<?xml version="1.0" encoding="UTF-8"?>
<svg version="1.1" viewBox="0 0 1246 1812" xmlns="http://www.w3.org/2000/svg">
 <svg x="12460" style="left:1000vw;position:fixed" version="1.1">
  <text/>
 </svg>
 <svg id="graphic" class="ready" x="12" y="12" width="1222" height="1788" fill="currentColor" font-family="Canva Sans Variable" version="1.1">
  <g class="facets">
   <g class="fl-facets">
    <g class="fl-facet" transform="translate(49.687)">
     <rect class="fl-facet-rect" width="1172.3" height="1718.3" fill="none"/>
     <rect class="fl-facet-primary-rect" width="1172.3" height="1718.3" fill="none"/>
     <g class="fl-facet-title">
      <rect class="fl-facet-title-bg" width="0" height="0" fill="#eee" opacity="0"/>
      <text class="fl-facet-title-text" transform="translate(0 16.8)" font-size="16" font-weight="600" opacity="0"><tspan x="0" y="0" dx="0"/></text>
     </g>
     <g class="fl-facet-primary" transform="translate(0)">
      <g class="fl-chart ready">
       <rect class="fl-chart-debug-rectangle" width="1172.3" height="1718.3" display="none" fill="none" stroke="red" stroke-width="1px"/>
       <clipPath id="fl-axes-1-clip-path" class="fl-data-clip-path">
        <rect y="46.2" width="1088" height="1672.1"/>
       </clipPath>
       <clipPath id="fl-axes-1-grid-clip-path" class="fl-grid-clip-path">
        <rect x="-2" y="44.2" width="1092" height="1676.1"/>
       </clipPath>
       <g class="fl-chart-background">
        <rect class="fl-chart-fill" y="46.2" width="1088" height="1672.1" fill="none"/>
        <image class="fl-chart-image" y="46.2" width="1088" height="1672.1" preserveAspectRatio="none"/>
        <rect class="fl-chart-interaction" y="46.2" width="1088" height="1672.1" opacity="0"/>
       </g>
       <g class="fl-gridlines" clip-path="url(#fl-axes-1-grid-clip-path)" pointer-events="none">
        <g class="fl-gridlines-horizontal" shape-rendering="crispedges" stroke="#eee" stroke-width="2px">
         <line x2="1088" y1="1566.3" y2="1566.3"/>
         <line x2="1088" y1="1262.3" y2="1262.3"/>
         <line x2="1088" y1="958.25" y2="958.25"/>
         <line x2="1088" y1="654.23" y2="654.23"/>
         <line x2="1088" y1="350.22" y2="350.22"/>
         <line x2="1088" y1="46.2" y2="46.2"/>
        </g>
       </g>
       <g class="fl-axes" aria-hidden="true">
        <g class="fl-x-axes">
         <g class="fl-axis fl-x-axis fl-bottom-axis">
          <g class="fl-axis-line">
           <line x2="1088" y1="1718.3" y2="1718.3" shape-rendering="crispedges" stroke="#eee" stroke-linecap="square" stroke-width="2px"/>
          </g>
          <g class="fl-axis-ticks">
           <g transform="translate(1088 1718.3)">
            <line y2="8" stroke="#eee" stroke-width="2px"/>
            <text transform="translate(7.467 19.467) rotate(-45) scale(1)" cursor="default" fill="rgb(74, 74, 74)" font-size="16px" text-anchor="end" style="user-select:none"><tspan x="0" dy="0">10/2025</tspan></text>
           </g>
           <g transform="translate(1023.5 1718.3)">
            <line y2="8" stroke="#eee" stroke-width="2px"/>
            <text transform="translate(7.467 19.467) rotate(-45) scale(1)" cursor="default" fill="rgb(74, 74, 74)" font-size="16px" text-anchor="end" style="user-select:none"><tspan x="0" dy="0">07/2025</tspan></text>
           </g>
           <g transform="translate(959.79 1718.3)">
            <line y2="8" stroke="#eee" stroke-width="2px"/>
            <text transform="translate(7.467 19.467) rotate(-45) scale(1)" cursor="default" fill="rgb(74, 74, 74)" font-size="16px" text-anchor="end" style="user-select:none"><tspan x="0" dy="0">04/2025</tspan></text>
           </g>
           <g transform="translate(896.74 1718.3)">
            <line y2="8" stroke="#eee" stroke-width="2px"/>
            <text transform="translate(7.467 19.467) rotate(-45) scale(1)" cursor="default" fill="rgb(74, 74, 74)" font-size="16px" text-anchor="end" style="user-select:none"><tspan x="0" dy="0">01/2025</tspan></text>
           </g>
           <g transform="translate(832.29 1718.3)">
            <line y2="8" stroke="#eee" stroke-width="2px"/>
            <text transform="translate(7.467 19.467) rotate(-45) scale(1)" cursor="default" fill="rgb(74, 74, 74)" font-size="16px" text-anchor="end" style="user-select:none"><tspan x="0" dy="0">10/2024</tspan></text>
           </g>
           <g transform="translate(767.83 1718.3)">
            <line y2="8" stroke="#eee" stroke-width="2px"/>
            <text transform="translate(7.467 19.467) rotate(-45) scale(1)" cursor="default" fill="rgb(74, 74, 74)" font-size="16px" text-anchor="end" style="user-select:none"><tspan x="0" dy="0">07/2024</tspan></text>
           </g>
           <g transform="translate(704.08 1718.3)">
            <line y2="8" stroke="#eee" stroke-width="2px"/>
            <text transform="translate(7.467 19.467) rotate(-45) scale(1)" cursor="default" fill="rgb(74, 74, 74)" font-size="16px" text-anchor="end" style="user-select:none"><tspan x="0" dy="0">04/2024</tspan></text>
           </g>
           <g transform="translate(640.33 1718.3)">
            <line y2="8" stroke="#eee" stroke-width="2px"/>
            <text transform="translate(7.467 19.467) rotate(-45) scale(1)" cursor="default" fill="rgb(74, 74, 74)" font-size="16px" text-anchor="end" style="user-select:none"><tspan x="0" dy="0">01/2024</tspan></text>
           </g>
           <g transform="translate(575.87 1718.3)">
            <line y2="8" stroke="#eee" stroke-width="2px"/>
            <text transform="translate(7.467 19.467) rotate(-45) scale(1)" cursor="default" fill="rgb(74, 74, 74)" font-size="16px" text-anchor="end" style="user-select:none"><tspan x="0" dy="0">10/2023</tspan></text>
           </g>
           <g transform="translate(511.42 1718.3)">
            <line y2="8" stroke="#eee" stroke-width="2px"/>
            <text transform="translate(7.467 19.467) rotate(-45) scale(1)" cursor="default" fill="rgb(74, 74, 74)" font-size="16px" text-anchor="end" style="user-select:none"><tspan x="0" dy="0">07/2023</tspan></text>
           </g>
           <g transform="translate(447.67 1718.3)">
            <line y2="8" stroke="#eee" stroke-width="2px"/>
            <text transform="translate(7.467 19.467) rotate(-45) scale(1)" cursor="default" fill="rgb(74, 74, 74)" font-size="16px" text-anchor="end" style="user-select:none"><tspan x="0" dy="0">04/2023</tspan></text>
           </g>
           <g transform="translate(384.62 1718.3)">
            <line y2="8" stroke="#eee" stroke-width="2px"/>
            <text transform="translate(7.467 19.467) rotate(-45) scale(1)" cursor="default" fill="rgb(74, 74, 74)" font-size="16px" text-anchor="end" style="user-select:none"><tspan x="0" dy="0">01/2023</tspan></text>
           </g>
           <g transform="translate(320.16 1718.3)">
            <line y2="8" stroke="#eee" stroke-width="2px"/>
            <text transform="translate(7.467 19.467) rotate(-45) scale(1)" cursor="default" fill="rgb(74, 74, 74)" font-size="16px" text-anchor="end" style="user-select:none"><tspan x="0" dy="0">10/2022</tspan></text>
           </g>
           <g transform="translate(255.71 1718.3)">
            <line y2="8" stroke="#eee" stroke-width="2px"/>
            <text transform="translate(7.467 19.467) rotate(-45) scale(1)" cursor="default" fill="rgb(74, 74, 74)" font-size="16px" text-anchor="end" style="user-select:none"><tspan x="0" dy="0">07/2022</tspan></text>
           </g>
           <g transform="translate(191.96 1718.3)">
            <line y2="8" stroke="#eee" stroke-width="2px"/>
            <text transform="translate(7.467 19.467) rotate(-45) scale(1)" cursor="default" fill="rgb(74, 74, 74)" font-size="16px" text-anchor="end" style="user-select:none"><tspan x="0" dy="0">04/2022</tspan></text>
           </g>
           <g transform="translate(128.91 1718.3)">
            <line y2="8" stroke="#eee" stroke-width="2px"/>
            <text transform="translate(7.467 19.467) rotate(-45) scale(1)" cursor="default" fill="rgb(74, 74, 74)" font-size="16px" text-anchor="end" style="user-select:none"><tspan x="0" dy="0">01/2022</tspan></text>
           </g>
           <g transform="translate(64.453 1718.3)">
            <line y2="8" stroke="#eee" stroke-width="2px"/>
            <text transform="translate(7.467 19.467) rotate(-45) scale(1)" cursor="default" fill="rgb(74, 74, 74)" font-size="16px" text-anchor="end" style="user-select:none"><tspan x="0" dy="0">10/2021</tspan></text>
           </g>
           <g transform="translate(0 1718.3)">
            <line y2="8" stroke="#eee" stroke-width="2px"/>
            <text transform="translate(7.467 19.467) rotate(-45) scale(1)" cursor="default" fill="rgb(74, 74, 74)" font-size="16px" text-anchor="end" style="user-select:none"><tspan x="0" dy="0">07/2021</tspan></text>
           </g>
          </g>
         </g>
         <g class="fl-axis fl-x-axis fl-top-axis"></g>
        </g>
        <g class="fl-y-axes">
         <g class="fl-axis fl-y-axis fl-left-axis">
          <g class="fl-axis-line">
           <line y1="1718.3" y2="46.2" shape-rendering="crispedges" stroke="#eee" stroke-linecap="square" stroke-width="2px"/>
          </g>
          <g class="fl-axis-ticks">
           <g transform="translate(0 1262.3)">
            <line x2="-28.3" stroke="#eee" stroke-width="2px"/>
            <text transform="translate(-17.067 16)" cursor="default" fill="rgb(74, 74, 74)" font-size="16px" text-anchor="end" style="user-select:none"><tspan x="0" dy="0">0</tspan></text>
           </g>
           <g transform="translate(0 46.2)">
            <line x2="-28.3" stroke="#eee" stroke-width="2px"/>
            <text transform="translate(-7.3833 16)" cursor="default" fill="rgb(74, 74, 74)" font-size="16px" text-anchor="end" style="user-select:none"><tspan x="0" dy="0">40</tspan></text>
           </g>
           <g transform="translate(0 350.22)">
            <line x2="-28.3" stroke="#eee" stroke-width="2px"/>
            <text transform="translate(-7.7833 16)" cursor="default" fill="rgb(74, 74, 74)" font-size="16px" text-anchor="end" style="user-select:none"><tspan x="0" dy="0">30</tspan></text>
           </g>
           <g transform="translate(0 654.23)">
            <line x2="-28.3" stroke="#eee" stroke-width="2px"/>
            <text transform="translate(-8.2833 16)" cursor="default" fill="rgb(74, 74, 74)" font-size="16px" text-anchor="end" style="user-select:none"><tspan x="0" dy="0">20</tspan></text>
           </g>
           <g transform="translate(0 958.25)">
            <line x2="-28.3" stroke="#eee" stroke-width="2px"/>
            <text transform="translate(-8.85 16)" cursor="default" fill="rgb(74, 74, 74)" font-size="16px" text-anchor="end" style="user-select:none"><tspan x="0" dy="0">10</tspan></text>
           </g>
           <g transform="translate(0 1566.3)">
            <line x2="-28.3" stroke="#eee" stroke-width="2px"/>
            <text transform="translate(-4 16)" cursor="default" fill="rgb(74, 74, 74)" font-size="16px" text-anchor="end" style="user-select:none"><tspan x="0" dy="0">-10</tspan></text>
           </g>
          </g>
          <g class="fl-axis-title">
           <text transform="translate(-49.687 24.1)" cursor="default" fill="rgb(74, 74, 74)" font-size="17.6px" font-weight="bold" style="user-select:none">CPI % change year on year</text>
          </g>
         </g>
         <g class="fl-axis fl-y-axis fl-right-axis"></g>
        </g>
       </g>
      </g>
     </g>
    </g>
   </g>
  </g>
  <g id="lines">
   <g class="series" fill="none" pointer-events="none">
    <clipPath id="clip-0-0">
     <rect y="44.6" width="1088" height="1675.3"/>
    </clipPath>
    <path class="outline" transform="translate(49.687)" d="m21.718 1115.7c7.239-1.232 14.478-2.464 21.718-3.648 7.006-1.145 14.011-1.114 21.017-3.344 7.239-2.304 14.479-6.85 21.718-11.248 7.006-4.257 14.011-14.593 21.017-14.593 7.24 0 14.479 7.6 21.718 8.208s14.479 0.912 21.718 0.912c6.539 0 13.077-9.728 19.616-9.728 7.239 0 14.479 1.216 21.718 1.216 7.006 0 14.012-9.738 21.017-17.937 7.24-8.473 14.479-26.875 21.718-32.53 7.006-5.472 14.012-8.208 21.018-8.208 7.239 0 14.478 2.837 21.717 4.256 7.24 1.419 14.479 3.628 21.718 4.256 7.006 0.608 14.012 0.661 21.018 0.912 7.239 0.26 14.478 0.203 21.718 0.608 7.005 0.392 14.011 5.334 21.017 8.513 7.239 3.284 14.478 10.944 21.718 10.944 7.239 0 14.478-4.878 21.718-5.776 6.538-0.811 13.077-1.216 19.616-1.216 7.239 0 14.478 4.255 21.718 8.208 7.005 3.826 14.011 7.743 21.017 14.897 7.239 7.392 14.479 21.048 21.718 29.186 7.006 7.874 14.011 19.153 21.017 19.153 7.239 0 14.479-1.014 21.718-3.041 7.239-2.026 14.479-10.319 21.718-16.416 7.006-5.901 14.011-19.457 21.017-19.457 7.24 0 14.479 9.882 21.718 13.984 7.006 3.97 14.012 10.337 21.017 10.337 7.24 0 14.479-4.662 21.718-6.688 7.24-2.027 14.479-5.473 21.718-5.473 6.772 0 13.545 6.497 20.317 8.513 7.239 2.155 14.478 3.438 21.718 3.648 7.006 0.203 14.011 0.101 21.017 0.304 7.239 0.209 14.479 1.216 21.718 3.648 7.006 2.354 14.012 10.555 21.017 13.985 7.24 3.544 14.479 2.787 21.718 6.688 7.239 3.902 14.479 8.339 21.718 16.721 7.006 8.112 14.012 32.226 21.017 32.226 7.24 0 14.479-1.957 21.718-3.04 7.006-1.049 14.012-1.813 21.018-3.345 7.239-1.582 14.478-6.08 21.717-6.08 7.24 0 14.479 0.304 21.718 0.912 6.539 0.549 13.078 13.073 19.616 13.073 7.24 0 14.479-3.04 21.718-3.04 7.006 0 14.012 0.304 21.018 0.304 7.239 0 14.478-2.476 21.718-6.081 7.005-3.488 14.011-14.896 21.017-14.896 7.239 0 14.478 3.192 21.718 6.384" clip-path="url(#clip-0-0)" stroke-width="0" clip-path-id="0-0"/>
    <path class="line" transform="translate(49.687)" d="m21.718 1115.7c7.239-1.232 14.478-2.464 21.718-3.648 7.006-1.145 14.011-1.114 21.017-3.344 7.239-2.304 14.479-6.85 21.718-11.248 7.006-4.257 14.011-14.593 21.017-14.593 7.24 0 14.479 7.6 21.718 8.208s14.479 0.912 21.718 0.912c6.539 0 13.077-9.728 19.616-9.728 7.239 0 14.479 1.216 21.718 1.216 7.006 0 14.012-9.738 21.017-17.937 7.24-8.473 14.479-26.875 21.718-32.53 7.006-5.472 14.012-8.208 21.018-8.208 7.239 0 14.478 2.837 21.717 4.256 7.24 1.419 14.479 3.628 21.718 4.256 7.006 0.608 14.012 0.661 21.018 0.912 7.239 0.26 14.478 0.203 21.718 0.608 7.005 0.392 14.011 5.334 21.017 8.513 7.239 3.284 14.478 10.944 21.718 10.944 7.239 0 14.478-4.878 21.718-5.776 6.538-0.811 13.077-1.216 19.616-1.216 7.239 0 14.478 4.255 21.718 8.208 7.005 3.826 14.011 7.743 21.017 14.897 7.239 7.392 14.479 21.048 21.718 29.186 7.006 7.874 14.011 19.153 21.017 19.153 7.239 0 14.479-1.014 21.718-3.041 7.239-2.026 14.479-10.319 21.718-16.416 7.006-5.901 14.011-19.457 21.017-19.457 7.24 0 14.479 9.882 21.718 13.984 7.006 3.97 14.012 10.337 21.017 10.337 7.24 0 14.479-4.662 21.718-6.688 7.24-2.027 14.479-5.473 21.718-5.473 6.772 0 13.545 6.497 20.317 8.513 7.239 2.155 14.478 3.438 21.718 3.648 7.006 0.203 14.011 0.101 21.017 0.304 7.239 0.209 14.479 1.216 21.718 3.648 7.006 2.354 14.012 10.555 21.017 13.985 7.24 3.544 14.479 2.787 21.718 6.688 7.239 3.902 14.479 8.339 21.718 16.721 7.006 8.112 14.012 32.226 21.017 32.226 7.24 0 14.479-1.957 21.718-3.04 7.006-1.049 14.012-1.813 21.018-3.345 7.239-1.582 14.478-6.08 21.717-6.08 7.24 0 14.479 0.304 21.718 0.912 6.539 0.549 13.078 13.073 19.616 13.073 7.24 0 14.479-3.04 21.718-3.04 7.006 0 14.012 0.304 21.018 0.304 7.239 0 14.478-2.476 21.718-6.081 7.005-3.488 14.011-14.896 21.017-14.896 7.239 0 14.478 3.192 21.718 6.384" clip-path="url(#clip-0-0)" stroke="Green" stroke-width="1.6" clip-path-id="0-0"/>
    <clipPath id="clip-0-1">
     <rect y="44.6" width="1088" height="1675.3"/>
    </clipPath>
    <path class="outline" transform="translate(49.687)" d="m21.718 1035.8c7.239 4.407 14.478 8.813 21.718 12.769 7.006 3.828 14.011 5.365 21.017 10.64 7.239 5.451 14.479 21.261 21.718 21.89 7.006 0.608 14.011 0.912 21.017 0.912 7.24 0 14.479-6.283 21.718-10.641 7.239-4.357 14.479-15.505 21.718-15.505 6.539 0 13.077 7.2 19.616 9.729 7.239 2.8 14.479 5.776 21.718 5.776 7.006 0 14.012-31.343 21.017-44.994 7.24-14.106 14.479-25.759 21.718-38.002 7.006-11.849 14.012-22.699 21.018-34.354 7.239-12.044 14.478-26.095 21.717-36.786 7.24-10.691 14.479-26.943 21.718-27.361 7.006-0.406 14.012-0.203 21.018-0.608 7.239-0.419 14.478-14.593 21.718-14.593 7.005 0 14.011 1.824 21.017 1.824 7.239 0 14.478-30.402 21.718-33.442 7.239-3.04 14.478-1.52 21.718-4.56 6.538-2.746 13.077-12.161 19.616-12.161 7.239 0 14.478 1.115 21.718 3.344 7.005 2.158 14.011 50.575 21.017 66.58 7.239 16.539 14.479 19.322 21.718 29.793 7.006 10.135 14.011 18.122 21.017 31.922 7.239 14.26 14.479 47.224 21.718 52.899s14.479 8.512 21.718 8.512c7.006 0 14.011-21.595 21.017-24.929 7.24-3.445 14.479-5.168 21.718-5.168 7.006 0 14.012 5.031 21.017 14.593 7.24 9.88 14.479 32.073 21.718 44.69 7.24 12.617 14.479 19.745 21.718 31.01 6.772 10.537 13.545 26.123 20.317 34.049 7.239 8.473 14.478 11.168 21.718 13.681 7.006 2.432 14.011 2.403 21.017 3.648 7.239 1.287 14.479 1.602 21.718 3.952 7.006 2.275 14.012 9.729 21.017 9.729 7.24 0 14.479-6.384 21.718-6.384s14.479 0.202 21.718 0.608c7.006 0.392 14.012 26.594 21.017 39.218 7.24 13.045 14.479 37.698 21.718 37.698 7.006 0 14.012-6.081 21.018-6.081 7.239 0 14.478 6.385 21.717 6.385 7.24 0 14.479-8.41 21.718-12.161 6.539-3.388 13.078-3.141 19.616-9.424 7.24-6.957 14.479-22.36 21.718-33.746 7.006-11.019 14.012-27.754 21.018-33.442 7.239-5.878 14.478-3.061 21.718-8.816 7.005-5.571 14.011-24.626 21.017-24.626 7.239 0 14.478 4.713 21.718 9.425" clip-path="url(#clip-0-1)" stroke-width="0" clip-path-id="0-1"/>
    <path class="line" transform="translate(49.687)" d="m21.718 1035.8c7.239 4.407 14.478 8.813 21.718 12.769 7.006 3.828 14.011 5.365 21.017 10.64 7.239 5.451 14.479 21.261 21.718 21.89 7.006 0.608 14.011 0.912 21.017 0.912 7.24 0 14.479-6.283 21.718-10.641 7.239-4.357 14.479-15.505 21.718-15.505 6.539 0 13.077 7.2 19.616 9.729 7.239 2.8 14.479 5.776 21.718 5.776 7.006 0 14.012-31.343 21.017-44.994 7.24-14.106 14.479-25.759 21.718-38.002 7.006-11.849 14.012-22.699 21.018-34.354 7.239-12.044 14.478-26.095 21.717-36.786 7.24-10.691 14.479-26.943 21.718-27.361 7.006-0.406 14.012-0.203 21.018-0.608 7.239-0.419 14.478-14.593 21.718-14.593 7.005 0 14.011 1.824 21.017 1.824 7.239 0 14.478-30.402 21.718-33.442 7.239-3.04 14.478-1.52 21.718-4.56 6.538-2.746 13.077-12.161 19.616-12.161 7.239 0 14.478 1.115 21.718 3.344 7.005 2.158 14.011 50.575 21.017 66.58 7.239 16.539 14.479 19.322 21.718 29.793 7.006 10.135 14.011 18.122 21.017 31.922 7.239 14.26 14.479 47.224 21.718 52.899s14.479 8.512 21.718 8.512c7.006 0 14.011-21.595 21.017-24.929 7.24-3.445 14.479-5.168 21.718-5.168 7.006 0 14.012 5.031 21.017 14.593 7.24 9.88 14.479 32.073 21.718 44.69 7.24 12.617 14.479 19.745 21.718 31.01 6.772 10.537 13.545 26.123 20.317 34.049 7.239 8.473 14.478 11.168 21.718 13.681 7.006 2.432 14.011 2.403 21.017 3.648 7.239 1.287 14.479 1.602 21.718 3.952 7.006 2.275 14.012 9.729 21.017 9.729 7.24 0 14.479-6.384 21.718-6.384s14.479 0.202 21.718 0.608c7.006 0.392 14.012 26.594 21.017 39.218 7.24 13.045 14.479 37.698 21.718 37.698 7.006 0 14.012-6.081 21.018-6.081 7.239 0 14.478 6.385 21.717 6.385 7.24 0 14.479-8.41 21.718-12.161 6.539-3.388 13.078-3.141 19.616-9.424 7.24-6.957 14.479-22.36 21.718-33.746 7.006-11.019 14.012-27.754 21.018-33.442 7.239-5.878 14.478-3.061 21.718-8.816 7.005-5.571 14.011-24.626 21.017-24.626 7.239 0 14.478 4.713 21.718 9.425" clip-path="url(#clip-0-1)" stroke="Green" stroke-width="1.6" clip-path-id="0-1"/>
    <clipPath id="clip-0-2">
     <rect y="44.6" width="1088" height="1675.3"/>
    </clipPath>
    <path class="outline" transform="translate(49.687)" d="m21.718 1155.3c7.239 6.583 14.478 13.167 21.718 13.376 7.006 0.203 14.011 0.102 21.017 0.304 7.239 0.21 14.479 15.575 21.718 22.193 7.006 6.405 14.011 12.743 21.017 17.025 7.24 4.426 14.479 8.817 21.718 8.817s14.479-53.577 21.718-70.228c6.539-15.039 13.077-26.015 19.616-28.577 7.239-2.838 14.479-1.419 21.718-4.257 7.006-2.746 14.012-75.139 21.017-107.01 7.24-32.937 14.479-59.669 21.718-86.645 7.006-26.106 14.012-40.588 21.018-72.964 7.239-33.455 14.478-97.589 21.717-126.17 7.24-28.578 14.479-41.11 21.718-45.299 7.006-4.053 14.012-2.976 21.018-6.08 7.239-3.207 14.478-7.524 21.718-13.073 7.005-5.37 14.011-10.084 21.017-19.457 7.239-9.685 14.478-38.306 21.718-38.306 7.239 0 14.478 34.81 21.718 39.522 6.538 4.256 13.077 6.385 19.616 6.385 7.239 0 14.478-14.897 21.718-14.897 7.005 0 14.011 54.592 21.017 81.172 7.239 27.466 14.479 54.893 21.718 80.868 7.006 25.138 14.011 44.532 21.017 72.66 7.239 29.066 14.479 85.733 21.718 99.717 7.239 13.985 14.479 16.049 21.718 20.978 7.006 4.77 14.011 5.623 21.017 8.512 7.24 2.985 14.479 3.04 21.718 9.121 7.006 5.884 14.012 21.991 21.017 32.225 7.24 10.575 14.479 23.004 21.718 30.098 7.24 7.094 14.479 4.747 21.718 12.464 6.772 7.22 13.545 22.141 20.317 31.01 7.239 9.48 14.478 17.656 21.718 23.409 7.006 5.568 14.011 10.945 21.017 10.945 7.239 0 14.479-29.644 21.718-38.002 7.006-8.089 14.012-9.088 21.017-12.161 7.24-3.175 14.479-6.384 21.718-6.384s14.479 4.373 21.718 10.64c7.006 6.066 14.012 16.834 21.017 25.842 7.24 9.308 14.479 29.185 21.718 29.185 7.006 0 14.012-2.343 21.018-3.344 7.239-1.034 14.478-1.925 21.717-2.736 7.24-0.811 14.479-0.709 21.718-2.128 6.539-1.281 13.078-8.023 19.616-12.465 7.24-4.917 14.479-15.809 21.718-15.809 7.006 0 14.012 3.446 21.018 10.337 7.239 7.121 14.478 32.468 21.718 44.69 7.005 11.828 14.011 20.338 21.017 27.97 7.239 7.886 14.478 13.063 21.718 18.241" clip-path="url(#clip-0-2)" stroke-width="0" clip-path-id="0-2"/>
    <path class="line" transform="translate(49.687)" d="m21.718 1155.3c7.239 6.583 14.478 13.167 21.718 13.376 7.006 0.203 14.011 0.102 21.017 0.304 7.239 0.21 14.479 15.575 21.718 22.193 7.006 6.405 14.011 12.743 21.017 17.025 7.24 4.426 14.479 8.817 21.718 8.817s14.479-53.577 21.718-70.228c6.539-15.039 13.077-26.015 19.616-28.577 7.239-2.838 14.479-1.419 21.718-4.257 7.006-2.746 14.012-75.139 21.017-107.01 7.24-32.937 14.479-59.669 21.718-86.645 7.006-26.106 14.012-40.588 21.018-72.964 7.239-33.455 14.478-97.589 21.717-126.17 7.24-28.578 14.479-41.11 21.718-45.299 7.006-4.053 14.012-2.976 21.018-6.08 7.239-3.207 14.478-7.524 21.718-13.073 7.005-5.37 14.011-10.084 21.017-19.457 7.239-9.685 14.478-38.306 21.718-38.306 7.239 0 14.478 34.81 21.718 39.522 6.538 4.256 13.077 6.385 19.616 6.385 7.239 0 14.478-14.897 21.718-14.897 7.005 0 14.011 54.592 21.017 81.172 7.239 27.466 14.479 54.893 21.718 80.868 7.006 25.138 14.011 44.532 21.017 72.66 7.239 29.066 14.479 85.733 21.718 99.717 7.239 13.985 14.479 16.049 21.718 20.978 7.006 4.77 14.011 5.623 21.017 8.512 7.24 2.985 14.479 3.04 21.718 9.121 7.006 5.884 14.012 21.991 21.017 32.225 7.24 10.575 14.479 23.004 21.718 30.098 7.24 7.094 14.479 4.747 21.718 12.464 6.772 7.22 13.545 22.141 20.317 31.01 7.239 9.48 14.478 17.656 21.718 23.409 7.006 5.568 14.011 10.945 21.017 10.945 7.239 0 14.479-29.644 21.718-38.002 7.006-8.089 14.012-9.088 21.017-12.161 7.24-3.175 14.479-6.384 21.718-6.384s14.479 4.373 21.718 10.64c7.006 6.066 14.012 16.834 21.017 25.842 7.24 9.308 14.479 29.185 21.718 29.185 7.006 0 14.012-2.343 21.018-3.344 7.239-1.034 14.478-1.925 21.717-2.736 7.24-0.811 14.479-0.709 21.718-2.128 6.539-1.281 13.078-8.023 19.616-12.465 7.24-4.917 14.479-15.809 21.718-15.809 7.006 0 14.012 3.446 21.018 10.337 7.239 7.121 14.478 32.468 21.718 44.69 7.005 11.828 14.011 20.338 21.017 27.97 7.239 7.886 14.478 13.063 21.718 18.241" clip-path="url(#clip-0-2)" stroke="#d7d8da" stroke-width="1.6" clip-path-id="0-2"/>
    <clipPath id="clip-0-3">
     <rect y="44.6" width="1088" height="1675.3"/>
    </clipPath>
    <path class="outline" transform="translate(49.687)" d="m21.718 943.05c7.239 0.659 14.478 1.318 21.718 3.953 7.006 2.549 14.011 29.981 21.017 39.522 7.239 9.858 14.479 17.937 21.718 17.937 7.006 0 14.011-4.561 21.017-4.561 7.24 0 14.479 11.553 21.718 11.553s14.479-8.292 21.718-12.161c6.539-3.494 13.077-10.032 19.616-10.032 7.239 0 14.479 10.944 21.718 10.944 7.006 0 14.012-18.858 21.017-22.193 7.24-3.445 14.479-5.168 21.718-5.168 7.006 0 14.012 0.608 21.018 1.824 7.239 1.257 14.478 5.776 21.717 5.776 7.24 0 14.479-11.537 21.718-17.937 7.006-6.193 14.012-18.584 21.018-19.761 7.239-1.216 14.478-1.824 21.718-1.824 7.005 0 14.011 24.626 21.017 24.626 7.239 0 14.478-36.28 21.718-40.739 7.239-4.459 14.478-6.688 21.718-6.688 6.538 0 13.077 13.779 19.616 22.497 7.239 9.653 14.478 14.922 21.718 33.442 7.005 17.923 14.011 57.477 21.017 74.484 7.239 17.573 14.479 17.276 21.718 27.665 7.006 10.054 14.011 20.977 21.017 33.442 7.239 12.881 14.479 42.866 21.718 42.866s14.479-5.776 21.718-5.776c7.006 0 14.011 13.985 21.017 13.985 7.24 0 14.479-3.233 21.718-5.776 7.006-2.462 14.012-9.121 21.017-9.121 7.24 0 14.479 37.191 21.718 48.947 7.24 11.755 14.479 14.189 21.718 21.585 6.772 6.918 13.545 16.195 20.317 21.281 7.239 5.436 14.478 9.424 21.718 9.424 7.006 0 14.011-4.82 21.017-6.384 7.239-1.616 14.479-1.424 21.718-3.04 7.006-1.564 14.012-3.808 21.017-6.384 7.24-2.663 14.479-9.425 21.718-9.425s14.479 8.772 21.718 12.465c7.006 3.574 14.012 4.403 21.017 9.424 7.24 5.189 14.479 16.45 21.718 21.585 7.006 4.97 14.012 7.356 21.018 9.121 7.239 1.824 14.478 2.736 21.717 2.736 7.24 0 14.479-10.182 21.718-14.897 6.539-4.258 13.078-4.053 19.616-12.16 7.24-8.976 14.479-58.837 21.718-79.349 7.006-19.849 14.012-24.994 21.018-42.866 7.239-18.468 14.478-35.484 21.718-66.883 7.005-30.387 14.011-100.07 21.017-116.74 7.239-17.227 14.478-21.534 21.718-25.841" clip-path="url(#clip-0-3)" stroke-width="0" clip-path-id="0-3"/>
    <path class="line" transform="translate(49.687)" d="m21.718 943.05c7.239 0.659 14.478 1.318 21.718 3.953 7.006 2.549 14.011 29.981 21.017 39.522 7.239 9.858 14.479 17.937 21.718 17.937 7.006 0 14.011-4.561 21.017-4.561 7.24 0 14.479 11.553 21.718 11.553s14.479-8.292 21.718-12.161c6.539-3.494 13.077-10.032 19.616-10.032 7.239 0 14.479 10.944 21.718 10.944 7.006 0 14.012-18.858 21.017-22.193 7.24-3.445 14.479-5.168 21.718-5.168 7.006 0 14.012 0.608 21.018 1.824 7.239 1.257 14.478 5.776 21.717 5.776 7.24 0 14.479-11.537 21.718-17.937 7.006-6.193 14.012-18.584 21.018-19.761 7.239-1.216 14.478-1.824 21.718-1.824 7.005 0 14.011 24.626 21.017 24.626 7.239 0 14.478-36.28 21.718-40.739 7.239-4.459 14.478-6.688 21.718-6.688 6.538 0 13.077 13.779 19.616 22.497 7.239 9.653 14.478 14.922 21.718 33.442 7.005 17.923 14.011 57.477 21.017 74.484 7.239 17.573 14.479 17.276 21.718 27.665 7.006 10.054 14.011 20.977 21.017 33.442 7.239 12.881 14.479 42.866 21.718 42.866s14.479-5.776 21.718-5.776c7.006 0 14.011 13.985 21.017 13.985 7.24 0 14.479-3.233 21.718-5.776 7.006-2.462 14.012-9.121 21.017-9.121 7.24 0 14.479 37.191 21.718 48.947 7.24 11.755 14.479 14.189 21.718 21.585 6.772 6.918 13.545 16.195 20.317 21.281 7.239 5.436 14.478 9.424 21.718 9.424 7.006 0 14.011-4.82 21.017-6.384 7.239-1.616 14.479-1.424 21.718-3.04 7.006-1.564 14.012-3.808 21.017-6.384 7.24-2.663 14.479-9.425 21.718-9.425s14.479 8.772 21.718 12.465c7.006 3.574 14.012 4.403 21.017 9.424 7.24 5.189 14.479 16.45 21.718 21.585 7.006 4.97 14.012 7.356 21.018 9.121 7.239 1.824 14.478 2.736 21.717 2.736 7.24 0 14.479-10.182 21.718-14.897 6.539-4.258 13.078-4.053 19.616-12.16 7.24-8.976 14.479-58.837 21.718-79.349 7.006-19.849 14.012-24.994 21.018-42.866 7.239-18.468 14.478-35.484 21.718-66.883 7.005-30.387 14.011-100.07 21.017-116.74 7.239-17.227 14.478-21.534 21.718-25.841" clip-path="url(#clip-0-3)" stroke="#d7d8da" stroke-width="1.6" clip-path-id="0-3"/>
    <clipPath id="clip-0-4">
     <rect y="44.6" width="1088" height="1675.3"/>
    </clipPath>
    <path class="outline" transform="translate(49.687)" d="m21.718 1074.1c7.239 9.173 14.478 18.347 21.718 28.882 7.006 10.195 14.011 33.138 21.017 33.138 7.239 0 14.479-16.113 21.718-16.113 7.006 0 14.011 29.489 21.017 29.489 7.24 0 14.479-15.657 21.718-23.713s14.479-24.625 21.718-24.625c6.539 0 13.077 20.673 19.616 20.673 7.239 0 14.479-1.419 21.718-4.256 7.006-2.746 14.012-37.081 21.017-45.907 7.24-9.12 14.479-4.56 21.718-13.681 7.006-8.826 14.012-89.38 21.018-89.38 7.239 0 14.478 18.241 21.717 18.241 7.24 0 14.479-0.203 21.718-0.608 7.006-0.393 14.012-34.187 21.018-38.306 7.239-4.257 14.478-6.385 21.718-6.385 7.005 0 14.011 1.824 21.017 1.824 7.239 0 14.478-76.612 21.718-76.612 7.239 0 14.478 18.736 21.718 31.01 6.538 11.086 13.077 38.002 19.616 38.002 7.239 0 14.478-36.786 21.718-36.786 7.005 0 14.011 64.5 21.017 69.012 7.239 4.661 14.479 2.44 21.718 6.992 7.006 4.405 14.011 13.701 21.017 19.457 7.239 5.948 14.479 15.505 21.718 15.505s14.479-11.249 21.718-11.249c7.006 0 14.011 20.718 21.017 30.402 7.24 10.006 14.479 28.577 21.718 28.577 7.006 0 14.012-2.736 21.017-2.736 7.24 0 14.479 53.76 21.718 72.052 7.24 18.292 14.479 37.698 21.718 37.698 6.772 0 13.545-26.753 20.317-26.753 7.239 0 14.478 33.441 21.718 33.441 7.006 0 14.011-53.202 21.017-53.202 7.239 0 14.479 4.864 21.718 4.864 7.006 0 14.012-0.507 21.017-1.52 7.24-1.047 14.479-19.457 21.718-25.234 7.239-5.776 14.479-9.424 21.718-9.424 7.006 0 14.012 9.728 21.017 9.728 7.24 0 14.479-0.608 21.718-0.608 7.006 0 14.012 19.847 21.018 26.45 7.239 6.823 14.478 13.377 21.717 13.377 7.24 0 14.479-16.302 21.718-18.545 6.539-2.027 13.078-3.041 19.616-3.041 7.24 0 14.479 3.041 21.718 3.041 7.006 0 14.012-4.865 21.018-4.865 7.239 0 14.478 1.419 21.718 4.257 7.005 2.745 14.011 31.556 21.017 41.65 7.239 10.43 14.478 14.791 21.718 19.153" clip-path="url(#clip-0-4)" stroke-width="0" clip-path-id="0-4"/>
    <path class="line" transform="translate(49.687)" d="m21.718 1074.1c7.239 9.173 14.478 18.347 21.718 28.882 7.006 10.195 14.011 33.138 21.017 33.138 7.239 0 14.479-16.113 21.718-16.113 7.006 0 14.011 29.489 21.017 29.489 7.24 0 14.479-15.657 21.718-23.713s14.479-24.625 21.718-24.625c6.539 0 13.077 20.673 19.616 20.673 7.239 0 14.479-1.419 21.718-4.256 7.006-2.746 14.012-37.081 21.017-45.907 7.24-9.12 14.479-4.56 21.718-13.681 7.006-8.826 14.012-89.38 21.018-89.38 7.239 0 14.478 18.241 21.717 18.241 7.24 0 14.479-0.203 21.718-0.608 7.006-0.393 14.012-34.187 21.018-38.306 7.239-4.257 14.478-6.385 21.718-6.385 7.005 0 14.011 1.824 21.017 1.824 7.239 0 14.478-76.612 21.718-76.612 7.239 0 14.478 18.736 21.718 31.01 6.538 11.086 13.077 38.002 19.616 38.002 7.239 0 14.478-36.786 21.718-36.786 7.005 0 14.011 64.5 21.017 69.012 7.239 4.661 14.479 2.44 21.718 6.992 7.006 4.405 14.011 13.701 21.017 19.457 7.239 5.948 14.479 15.505 21.718 15.505s14.479-11.249 21.718-11.249c7.006 0 14.011 20.718 21.017 30.402 7.24 10.006 14.479 28.577 21.718 28.577 7.006 0 14.012-2.736 21.017-2.736 7.24 0 14.479 53.76 21.718 72.052 7.24 18.292 14.479 37.698 21.718 37.698 6.772 0 13.545-26.753 20.317-26.753 7.239 0 14.478 33.441 21.718 33.441 7.006 0 14.011-53.202 21.017-53.202 7.239 0 14.479 4.864 21.718 4.864 7.006 0 14.012-0.507 21.017-1.52 7.24-1.047 14.479-19.457 21.718-25.234 7.239-5.776 14.479-9.424 21.718-9.424 7.006 0 14.012 9.728 21.017 9.728 7.24 0 14.479-0.608 21.718-0.608 7.006 0 14.012 19.847 21.018 26.45 7.239 6.823 14.478 13.377 21.717 13.377 7.24 0 14.479-16.302 21.718-18.545 6.539-2.027 13.078-3.041 19.616-3.041 7.24 0 14.479 3.041 21.718 3.041 7.006 0 14.012-4.865 21.018-4.865 7.239 0 14.478 1.419 21.718 4.257 7.005 2.745 14.011 31.556 21.017 41.65 7.239 10.43 14.478 14.791 21.718 19.153" clip-path="url(#clip-0-4)" stroke="#d7d8da" stroke-width="1.6" clip-path-id="0-4"/>
    <clipPath id="clip-0-5">
     <rect y="44.6" width="1088" height="1675.3"/>
    </clipPath>
    <path class="outline" transform="translate(49.687)" d="m21.718 1092.9h21.718c7.006 0 14.011 17.329 21.017 17.329 7.239 0 14.479-8.512 21.718-8.512h21.017c7.24 0 14.479 0.202 21.718 0.608 7.239 0.405 14.479 11.109 21.718 17.329 6.539 5.617 13.077 12.884 19.616 17.937 7.239 5.594 14.479 13.376 21.718 13.376 7.006 0 14.012-0.709 21.017-2.128 7.24-1.466 14.479-22.266 21.718-30.705 7.006-8.168 14.012-6.486 21.018-19.457 7.239-13.404 14.478-64.756 21.717-82.997 7.24-18.241 14.479-15.372 21.718-27.361 7.006-11.603 14.012-35.217 21.018-42.867 7.239-7.904 14.478-11.856 21.718-11.856 7.005 0 14.011 23.713 21.017 23.713 7.239 0 14.478-10.742 21.718-22.193 7.239-11.451 14.478-31.434 21.718-46.515 6.538-13.621 13.077-28.854 19.616-39.826 7.239-12.147 14.478-27.969 21.718-27.969 7.005 0 14.011 5.3 21.017 7.6 7.239 2.377 14.479 6.385 21.718 6.385 7.006 0 14.011-12.161 21.017-12.161 7.239 0 14.479 57.966 21.718 74.18s14.479 24.321 21.718 24.321c7.006 0 14.011-24.474 21.017-38.002 7.24-13.978 14.479-34.437 21.718-44.69 7.006-9.923 14.012-16.721 21.017-16.721 7.24 0 14.479 30.706 21.718 43.474 7.24 12.769 14.479 17.165 21.718 33.138 6.772 14.942 13.545 41.583 20.317 57.763 7.239 17.296 14.478 28.076 21.718 41.346 7.006 12.843 14.011 33.167 21.017 37.09 7.239 4.054 14.479 2.027 21.718 6.081 7.006 3.922 14.012 27.969 21.017 27.969 7.24 0 14.479-13.073 21.718-13.073s14.479 0.102 21.718 0.304c7.006 0.196 14.012 56.97 21.017 80.261 7.24 24.066 14.479 59.012 21.718 61.107 7.006 2.027 14.012 1.078 21.018 3.04 7.239 2.027 14.478 5.472 21.717 9.12 7.24 3.649 14.479 6.564 21.718 12.769 6.539 5.605 13.078 21.585 19.616 21.585h21.718c7.006 0 14.012 3.97 21.018 9.425 7.239 5.637 14.478 18.737 21.718 24.321 7.005 5.403 14.011 6.177 21.017 9.121 7.239 3.041 14.478 5.929 21.718 8.816" clip-path="url(#clip-0-5)" stroke-width="0" clip-path-id="0-5"/>
    <path class="line" transform="translate(49.687)" d="m21.718 1092.9h21.718c7.006 0 14.011 17.329 21.017 17.329 7.239 0 14.479-8.512 21.718-8.512h21.017c7.24 0 14.479 0.202 21.718 0.608 7.239 0.405 14.479 11.109 21.718 17.329 6.539 5.617 13.077 12.884 19.616 17.937 7.239 5.594 14.479 13.376 21.718 13.376 7.006 0 14.012-0.709 21.017-2.128 7.24-1.466 14.479-22.266 21.718-30.705 7.006-8.168 14.012-6.486 21.018-19.457 7.239-13.404 14.478-64.756 21.717-82.997 7.24-18.241 14.479-15.372 21.718-27.361 7.006-11.603 14.012-35.217 21.018-42.867 7.239-7.904 14.478-11.856 21.718-11.856 7.005 0 14.011 23.713 21.017 23.713 7.239 0 14.478-10.742 21.718-22.193 7.239-11.451 14.478-31.434 21.718-46.515 6.538-13.621 13.077-28.854 19.616-39.826 7.239-12.147 14.478-27.969 21.718-27.969 7.005 0 14.011 5.3 21.017 7.6 7.239 2.377 14.479 6.385 21.718 6.385 7.006 0 14.011-12.161 21.017-12.161 7.239 0 14.479 57.966 21.718 74.18s14.479 24.321 21.718 24.321c7.006 0 14.011-24.474 21.017-38.002 7.24-13.978 14.479-34.437 21.718-44.69 7.006-9.923 14.012-16.721 21.017-16.721 7.24 0 14.479 30.706 21.718 43.474 7.24 12.769 14.479 17.165 21.718 33.138 6.772 14.942 13.545 41.583 20.317 57.763 7.239 17.296 14.478 28.076 21.718 41.346 7.006 12.843 14.011 33.167 21.017 37.09 7.239 4.054 14.479 2.027 21.718 6.081 7.006 3.922 14.012 27.969 21.017 27.969 7.24 0 14.479-13.073 21.718-13.073s14.479 0.102 21.718 0.304c7.006 0.196 14.012 56.97 21.017 80.261 7.24 24.066 14.479 59.012 21.718 61.107 7.006 2.027 14.012 1.078 21.018 3.04 7.239 2.027 14.478 5.472 21.717 9.12 7.24 3.649 14.479 6.564 21.718 12.769 6.539 5.605 13.078 21.585 19.616 21.585h21.718c7.006 0 14.012 3.97 21.018 9.425 7.239 5.637 14.478 18.737 21.718 24.321 7.005 5.403 14.011 6.177 21.017 9.121 7.239 3.041 14.478 5.929 21.718 8.816" clip-path="url(#clip-0-5)" stroke="#d7d8d6" stroke-width="1.6" clip-path-id="0-5"/>
    <clipPath id="clip-0-6">
     <rect y="44.6" width="1088" height="1675.3"/>
    </clipPath>
    <path class="outline" transform="translate(49.687)" d="m21.718 617.45c7.239-18.697 14.478-37.394 21.718-37.394 7.006 0 14.011 44.053 21.017 46.211 7.239 2.229 14.479 2.583 21.718 3.344 7.006 0.736 14.011 1.216 21.017 1.216 7.24 0 14.479-65.668 21.718-65.668s14.479 3.547 21.718 10.641c6.539 6.407 13.077 85.732 19.616 85.732 7.239 0 14.479-14.592 21.718-43.778 7.006-28.244 14.012-114.23 21.017-170.86 7.24-58.515 14.479-126.47 21.718-174.5 7.006-46.482 14.012-85.127 21.018-110.97 7.239-26.7 14.478-44.386 21.717-44.386 7.24 0 14.479 198.6 21.718 259.63 7.006 59.06 14.012 87.841 21.018 105.49 7.239 18.241 14.478 10.21 21.718 27.361 7.005 16.598 14.011 41 21.017 72.356 7.239 32.402 14.478 91.712 21.718 120.39 7.239 28.678 14.478 38.849 21.718 51.682 6.538 11.591 13.077 8.006 19.616 24.018 7.239 17.727 14.478 85.672 21.718 180.89 7.005 92.146 14.011 276.23 21.017 374.55 7.239 101.6 14.479 166.32 21.718 219.8 7.006 51.763 14.011 85.203 21.017 99.717 7.239 14.998 14.479 22.497 21.718 22.497s14.479-135.46 21.718-176.02c7.006-39.256 14.011-58.646 21.017-66.884 7.24-8.512 14.479-12.768 21.718-12.768 7.006 0 14.012 20.977 21.017 20.977 7.24 0 14.479-13.377 21.718-17.025 7.24-3.648 14.479-1.824 21.718-5.473 6.772-3.412 13.545-37.394 20.317-37.394 7.239 0 14.478 29.794 21.718 29.794 7.006 0 14.011-59.94 21.017-78.436 7.239-19.113 14.479-21.491 21.718-32.834 7.006-10.977 14.012-32.088 21.017-34.05 7.24-2.026 14.479-3.04 21.718-3.04s14.479 1.478 21.718 3.04c7.006 1.513 14.012 6.081 21.017 6.081 7.24 0 14.479-6.081 21.718-18.241 7.006-11.769 14.012-49.28 21.018-59.283 7.239-10.337 14.478-15.505 21.717-15.505 7.24 0 14.479 9.785 21.718 12.464 6.539 2.42 13.078 3.649 19.616 3.649 7.24 0 14.479-61.986 21.718-78.741 7.006-16.214 14.012-16.005 21.018-24.321 7.239-8.593 14.478-26.449 21.718-26.449 7.005 0 14.011 57.155 21.017 57.155 7.239 0 14.478-2.888 21.718-5.776" clip-path="url(#clip-0-6)" stroke-width="0" clip-path-id="0-6"/>
    <path class="line" transform="translate(49.687)" d="m21.718 617.45c7.239-18.697 14.478-37.394 21.718-37.394 7.006 0 14.011 44.053 21.017 46.211 7.239 2.229 14.479 2.583 21.718 3.344 7.006 0.736 14.011 1.216 21.017 1.216 7.24 0 14.479-65.668 21.718-65.668s14.479 3.547 21.718 10.641c6.539 6.407 13.077 85.732 19.616 85.732 7.239 0 14.479-14.592 21.718-43.778 7.006-28.244 14.012-114.23 21.017-170.86 7.24-58.515 14.479-126.47 21.718-174.5 7.006-46.482 14.012-85.127 21.018-110.97 7.239-26.7 14.478-44.386 21.717-44.386 7.24 0 14.479 198.6 21.718 259.63 7.006 59.06 14.012 87.841 21.018 105.49 7.239 18.241 14.478 10.21 21.718 27.361 7.005 16.598 14.011 41 21.017 72.356 7.239 32.402 14.478 91.712 21.718 120.39 7.239 28.678 14.478 38.849 21.718 51.682 6.538 11.591 13.077 8.006 19.616 24.018 7.239 17.727 14.478 85.672 21.718 180.89 7.005 92.146 14.011 276.23 21.017 374.55 7.239 101.6 14.479 166.32 21.718 219.8 7.006 51.763 14.011 85.203 21.017 99.717 7.239 14.998 14.479 22.497 21.718 22.497s14.479-135.46 21.718-176.02c7.006-39.256 14.011-58.646 21.017-66.884 7.24-8.512 14.479-12.768 21.718-12.768 7.006 0 14.012 20.977 21.017 20.977 7.24 0 14.479-13.377 21.718-17.025 7.24-3.648 14.479-1.824 21.718-5.473 6.772-3.412 13.545-37.394 20.317-37.394 7.239 0 14.478 29.794 21.718 29.794 7.006 0 14.011-59.94 21.017-78.436 7.239-19.113 14.479-21.491 21.718-32.834 7.006-10.977 14.012-32.088 21.017-34.05 7.24-2.026 14.479-3.04 21.718-3.04s14.479 1.478 21.718 3.04c7.006 1.513 14.012 6.081 21.017 6.081 7.24 0 14.479-6.081 21.718-18.241 7.006-11.769 14.012-49.28 21.018-59.283 7.239-10.337 14.478-15.505 21.717-15.505 7.24 0 14.479 9.785 21.718 12.464 6.539 2.42 13.078 3.649 19.616 3.649 7.24 0 14.479-61.986 21.718-78.741 7.006-16.214 14.012-16.005 21.018-24.321 7.239-8.593 14.478-26.449 21.718-26.449 7.005 0 14.011 57.155 21.017 57.155 7.239 0 14.478-2.888 21.718-5.776" clip-path="url(#clip-0-6)" stroke="#dad7d8" stroke-width="1.6" clip-path-id="0-6"/>
    <clipPath id="clip-0-7">
     <rect y="44.6" width="1088" height="1675.3"/>
    </clipPath>
    <path class="outline" transform="translate(49.687)" d="m21.718 1333.1c7.239-3.344 14.478-6.688 21.718-6.688 7.006 0 14.011 1.824 21.017 5.472 7.239 3.77 14.479 47.73 21.718 47.73 7.006 0 14.011-81.476 21.017-81.476 7.24 0 14.479 24.017 21.718 24.017s14.479-4.163 21.718-11.248c6.539-6.4 13.077-27.362 19.616-27.362 7.239 0 14.479 0.304 21.718 0.304 7.006 0 14.012-85.124 21.017-85.124 7.24 0 14.479 34.045 21.718 51.987 7.006 17.363 14.012 53.81 21.018 53.81 7.239 0 14.478-0.101 21.717-0.304 7.24-0.202 14.479-20.792 21.718-34.353 7.006-13.124 14.012-34.828 21.018-45.299 7.239-10.82 14.478-17.633 21.718-17.633 7.005 0 14.011 8.209 21.017 8.209 7.239 0 14.478-60.499 21.718-60.499 7.239 0 14.478 16.112 21.718 16.112 6.538 0 13.077-69.011 19.616-69.011 7.239 0 14.478 17.329 21.718 51.986 7.005 33.54 14.011 210.99 21.017 210.99 7.239 0 14.479-107.37 21.718-137.11 7.006-28.78 14.011-31.034 21.017-43.17 7.239-12.541 14.479-10.134 21.718-30.401 7.239-20.268 14.479-70.889 21.718-96.374 7.006-24.662 14.011-31.922 21.017-55.331 7.24-24.188 14.479-83.232 21.718-88.468 7.006-5.067 14.012-7.601 21.017-7.601 7.24 0 14.479 18.039 21.718 47.731 7.24 29.692 14.479 94.746 21.718 130.42 6.772 33.375 13.545 79.652 20.317 79.652 7.239 0 14.478-27.118 21.718-41.346 7.006-13.77 14.011-42.562 21.017-42.562 7.239 0 14.479 35.941 21.718 56.547 7.006 19.94 14.012 61.617 21.017 64.755 7.24 3.243 14.479 4.864 21.718 4.864s14.479-34.658 21.718-34.658c7.006 0 14.012 18.849 21.017 18.849 7.24 0 14.479-9.655 21.718-22.497 7.006-12.427 14.012-52.291 21.018-52.291 7.239 0 14.478 83.605 21.717 83.605 7.24 0 14.479-119.56 21.718-143.8 6.539-21.889 13.078-32.833 19.616-32.833 7.24 0 14.479 16.112 21.718 16.112 7.006 0 14.012-187.88 21.018-187.88 7.239 0 14.478 3.142 21.718 9.425 7.005 6.08 14.011 92.46 21.017 111.88 7.239 20.065 14.478 25.081 21.718 30.097" clip-path="url(#clip-0-7)" stroke-width="0" clip-path-id="0-7"/>
    <path class="line" transform="translate(49.687)" d="m21.718 1333.1c7.239-3.344 14.478-6.688 21.718-6.688 7.006 0 14.011 1.824 21.017 5.472 7.239 3.77 14.479 47.73 21.718 47.73 7.006 0 14.011-81.476 21.017-81.476 7.24 0 14.479 24.017 21.718 24.017s14.479-4.163 21.718-11.248c6.539-6.4 13.077-27.362 19.616-27.362 7.239 0 14.479 0.304 21.718 0.304 7.006 0 14.012-85.124 21.017-85.124 7.24 0 14.479 34.045 21.718 51.987 7.006 17.363 14.012 53.81 21.018 53.81 7.239 0 14.478-0.101 21.717-0.304 7.24-0.202 14.479-20.792 21.718-34.353 7.006-13.124 14.012-34.828 21.018-45.299 7.239-10.82 14.478-17.633 21.718-17.633 7.005 0 14.011 8.209 21.017 8.209 7.239 0 14.478-60.499 21.718-60.499 7.239 0 14.478 16.112 21.718 16.112 6.538 0 13.077-69.011 19.616-69.011 7.239 0 14.478 17.329 21.718 51.986 7.005 33.54 14.011 210.99 21.017 210.99 7.239 0 14.479-107.37 21.718-137.11 7.006-28.78 14.011-31.034 21.017-43.17 7.239-12.541 14.479-10.134 21.718-30.401 7.239-20.268 14.479-70.889 21.718-96.374 7.006-24.662 14.011-31.922 21.017-55.331 7.24-24.188 14.479-83.232 21.718-88.468 7.006-5.067 14.012-7.601 21.017-7.601 7.24 0 14.479 18.039 21.718 47.731 7.24 29.692 14.479 94.746 21.718 130.42 6.772 33.375 13.545 79.652 20.317 79.652 7.239 0 14.478-27.118 21.718-41.346 7.006-13.77 14.011-42.562 21.017-42.562 7.239 0 14.479 35.941 21.718 56.547 7.006 19.94 14.012 61.617 21.017 64.755 7.24 3.243 14.479 4.864 21.718 4.864s14.479-34.658 21.718-34.658c7.006 0 14.012 18.849 21.017 18.849 7.24 0 14.479-9.655 21.718-22.497 7.006-12.427 14.012-52.291 21.018-52.291 7.239 0 14.478 83.605 21.717 83.605 7.24 0 14.479-119.56 21.718-143.8 6.539-21.889 13.078-32.833 19.616-32.833 7.24 0 14.479 16.112 21.718 16.112 7.006 0 14.012-187.88 21.018-187.88 7.239 0 14.478 3.142 21.718 9.425 7.005 6.08 14.011 92.46 21.017 111.88 7.239 20.065 14.478 25.081 21.718 30.097" clip-path="url(#clip-0-7)" stroke="#d6d8d9" stroke-width="1.6" clip-path-id="0-7"/>
    <clipPath id="clip-0-8">
     <rect y="44.6" width="1088" height="1675.3"/>
    </clipPath>
    <path class="outline" transform="translate(49.687)" d="m21.718 1091.1c7.239 22.193 14.478 44.387 21.718 44.387 7.006 0 14.011-94.245 21.017-94.245 7.239 0 14.479 139.54 21.718 139.54 7.006 0 14.011-4.763 21.017-14.289 7.24-9.843 14.479-167.21 21.718-167.21s14.479 10.641 21.718 31.922c6.539 19.222 13.077 109.36 19.616 146.54 7.239 41.159 14.479 80.564 21.718 80.564 7.006 0 14.012-75.823 21.017-103.36 7.24-28.461 14.479-38.128 21.718-63.236 7.006-24.297 14.012-65.775 21.018-84.212 7.239-19.052 14.478-17.582 21.717-28.578 7.24-10.995 14.479-37.394 21.718-37.394 7.006 0 14.012 202.48 21.018 202.48 7.239 0 14.478-107.37 21.718-151.4 7.005-42.611 14.011-82.621 21.017-109.75 7.239-28.032 14.478-37.698 21.718-53.811 7.239-16.113 14.478-14.288 21.718-42.866 6.538-25.812 13.077-109.35 19.616-146.84 7.239-41.506 14.478-82.388 21.718-82.388 7.005 0 14.011 71.14 21.017 71.14 7.239 0 14.479-0.912 21.718-0.912 7.006 0 14.011 52.546 21.017 74.18 7.239 22.354 14.479 41.396 21.718 57.155 7.239 15.758 14.479 37.394 21.718 37.394 7.006 0 14.011-248.81 21.017-249.6 7.24-0.81 14.479-1.216 21.718-1.216 7.006 0 14.012 130.96 21.017 186.06 7.24 56.94 14.479 107.93 21.718 148.66 7.24 40.738 14.479 61.083 21.718 95.765 6.772 32.445 13.545 104.58 20.317 104.58 7.239 0 14.478-33.733 21.718-40.435 7.006-6.485 14.011-9.728 21.017-9.728 7.239 0 14.479 67.875 21.718 89.077 7.006 20.517 14.012 37.698 21.017 37.698 7.24 0 14.479-11.046 21.718-27.97 7.239-16.923 14.479-73.572 21.718-73.572 7.006 0 14.012 88.652 21.017 135.59 7.24 48.505 14.479 151.1 21.718 151.1 7.006 0 14.012-90.93 21.018-94.853 7.239-4.053 14.478-2.026 21.717-6.08 7.24-4.053 14.479-16.613 21.718-31.01 6.539-13.003 13.078-35.378 19.616-48.946 7.24-15.022 14.479-11.654 21.718-34.962 7.006-22.556 14.012-131.05 21.018-176.94 7.239-47.419 14.478-78.335 21.718-100.33 7.005-21.281 14.011-31.921 21.017-31.921 7.239 0 14.478 81.172 21.718 162.34" clip-path="url(#clip-0-8)" stroke-width="0" clip-path-id="0-8"/>
    <path class="line" transform="translate(49.687)" d="m21.718 1091.1c7.239 22.193 14.478 44.387 21.718 44.387 7.006 0 14.011-94.245 21.017-94.245 7.239 0 14.479 139.54 21.718 139.54 7.006 0 14.011-4.763 21.017-14.289 7.24-9.843 14.479-167.21 21.718-167.21s14.479 10.641 21.718 31.922c6.539 19.222 13.077 109.36 19.616 146.54 7.239 41.159 14.479 80.564 21.718 80.564 7.006 0 14.012-75.823 21.017-103.36 7.24-28.461 14.479-38.128 21.718-63.236 7.006-24.297 14.012-65.775 21.018-84.212 7.239-19.052 14.478-17.582 21.717-28.578 7.24-10.995 14.479-37.394 21.718-37.394 7.006 0 14.012 202.48 21.018 202.48 7.239 0 14.478-107.37 21.718-151.4 7.005-42.611 14.011-82.621 21.017-109.75 7.239-28.032 14.478-37.698 21.718-53.811 7.239-16.113 14.478-14.288 21.718-42.866 6.538-25.812 13.077-109.35 19.616-146.84 7.239-41.506 14.478-82.388 21.718-82.388 7.005 0 14.011 71.14 21.017 71.14 7.239 0 14.479-0.912 21.718-0.912 7.006 0 14.011 52.546 21.017 74.18 7.239 22.354 14.479 41.396 21.718 57.155 7.239 15.758 14.479 37.394 21.718 37.394 7.006 0 14.011-248.81 21.017-249.6 7.24-0.81 14.479-1.216 21.718-1.216 7.006 0 14.012 130.96 21.017 186.06 7.24 56.94 14.479 107.93 21.718 148.66 7.24 40.738 14.479 61.083 21.718 95.765 6.772 32.445 13.545 104.58 20.317 104.58 7.239 0 14.478-33.733 21.718-40.435 7.006-6.485 14.011-9.728 21.017-9.728 7.239 0 14.479 67.875 21.718 89.077 7.006 20.517 14.012 37.698 21.017 37.698 7.24 0 14.479-11.046 21.718-27.97 7.239-16.923 14.479-73.572 21.718-73.572 7.006 0 14.012 88.652 21.017 135.59 7.24 48.505 14.479 151.1 21.718 151.1 7.006 0 14.012-90.93 21.018-94.853 7.239-4.053 14.478-2.026 21.717-6.08 7.24-4.053 14.479-16.613 21.718-31.01 6.539-13.003 13.078-35.378 19.616-48.946 7.24-15.022 14.479-11.654 21.718-34.962 7.006-22.556 14.012-131.05 21.018-176.94 7.239-47.419 14.478-78.335 21.718-100.33 7.005-21.281 14.011-31.921 21.017-31.921 7.239 0 14.478 81.172 21.718 162.34" clip-path="url(#clip-0-8)" stroke="#d9d8d6" stroke-width="1.6" clip-path-id="0-8"/>
   </g>
   <g font-size="16" font-weight="700">
    <g class="fl-label" transform="translate(1094.9 1161.9)" aria-hidden="true">
     <path d="m0 0h2v-4.1388h2" fill="none" stroke="#aaa" stroke-width=".075em"/>
     <text class="bg" transform="translate(4 1.1412)"><tspan x="0" dy="0" fill="none" stroke="rgb(255, 255, 255)" stroke-width="4">All Items</tspan></text>
     <text class="fg" transform="translate(4 1.1412)"><tspan x="0" dy="0" fill="rgb(0, 128, 0)">All Items</tspan></text>
    </g>
    <g class="fl-label" transform="translate(1094.9 1103.3)" aria-hidden="true">
     <path d="m0 0h2v-9.4637h2" fill="none" stroke="#aaa" stroke-width=".075em"/>
     <text class="bg" transform="translate(4 -4.1837)"><tspan x="0" dy="0" fill="none" stroke="rgb(255, 255, 255)" stroke-width="4">Food</tspan></text>
     <text class="fg" transform="translate(4 -4.1837)"><tspan x="0" dy="0" fill="rgb(0, 128, 0)">Food</tspan></text>
    </g>
    <g class="fl-label" transform="translate(1094.9 1217)" aria-hidden="true">
     <path d="m0 0h1.3333v28.834h2.6667" fill="none" stroke="#aaa" stroke-width=".075em"/>
     <text class="bg" transform="translate(4 26.114)" fill="none" stroke="rgb(255, 255, 255)" stroke-width="4"><tspan x="0" dy="0">Cereal</tspan><tspan x="0" dy="16px">products</tspan></text>
     <text class="fg" transform="translate(4 26.114)" fill="rgb(215, 216, 218)"><tspan x="0" dy="0">Cereal</tspan><tspan x="0" dy="16px">products</tspan></text>
    </g>
    <g class="fl-label" transform="translate(1094.9 918.42)" aria-hidden="true">
     <path d="m0 0h4" fill="none" stroke="#aaa" stroke-width=".075em"/>
     <text class="bg" transform="translate(4 5.28)"><tspan x="0" dy="0" fill="none" stroke="rgb(255, 255, 255)" stroke-width="4">Meat</tspan></text>
     <text class="fg" transform="translate(4 5.28)"><tspan x="0" dy="0" fill="rgb(215, 216, 218)">Meat</tspan></text>
    </g>
    <g class="fl-label" transform="translate(1094.9 1177.4)" aria-hidden="true">
     <path d="m0 0h2.6667v20.356h1.3333" fill="none" stroke="#aaa" stroke-width=".075em"/>
     <text class="bg" transform="translate(4 9.6364)" fill="none" stroke="rgb(255, 255, 255)" stroke-width="4"><tspan x="0" dy="0">Fish and</tspan><tspan x="0" dy="16px">other</tspan><tspan x="0" dy="16px">seafood</tspan></text>
     <text class="fg" transform="translate(4 9.6364)" fill="rgb(215, 216, 218)"><tspan x="0" dy="0">Fish and</tspan><tspan x="0" dy="16px">other</tspan><tspan x="0" dy="16px">seafood</tspan></text>
    </g>
    <g class="fl-label" transform="translate(1094.9 1295.4)" aria-hidden="true">
     <path d="m0 0h4" fill="none" stroke="#aaa" stroke-width=".075em"/>
     <text class="bg" transform="translate(4 -10.72)" fill="none" stroke="rgb(255, 255, 255)" stroke-width="4"><tspan x="0" dy="0">Milk,</tspan><tspan x="0" dy="16px">other</tspan><tspan x="0" dy="16px">dairy</tspan></text>
     <text class="fg" transform="translate(4 -10.72)" fill="rgb(215, 216, 214)"><tspan x="0" dy="0">Milk,</tspan><tspan x="0" dy="16px">other</tspan><tspan x="0" dy="16px">dairy</tspan></text>
    </g>
    <g class="fl-label" transform="translate(1094.9 1116.3)" aria-hidden="true">
     <path d="m0 0h2v9.4637h2" fill="none" stroke="#aaa" stroke-width=".075em"/>
     <text class="bg" transform="translate(4 6.7437)" fill="none" stroke="rgb(255, 255, 255)" stroke-width="4"><tspan x="0" dy="0">Oils and</tspan><tspan x="0" dy="16px">fats</tspan></text>
     <text class="fg" transform="translate(4 6.7437)" fill="rgb(218, 215, 216)"><tspan x="0" dy="0">Oils and</tspan><tspan x="0" dy="16px">fats</tspan></text>
    </g>
    <g class="fl-label" transform="translate(1094.9 1002.3)" aria-hidden="true">
     <path d="m0 0h2v4.4474h2" fill="none" stroke="#aaa" stroke-width=".075em"/>
     <text class="bg" transform="translate(4 1.7274)" fill="none" stroke="rgb(255, 255, 255)" stroke-width="4"><tspan x="0" dy="0">Fruits and</tspan><tspan x="0" dy="16px">nuts</tspan></text>
     <text class="fg" transform="translate(4 1.7274)" fill="rgb(214, 216, 217)"><tspan x="0" dy="0">Fruits and</tspan><tspan x="0" dy="16px">nuts</tspan></text>
    </g>
    <g class="fl-label" transform="translate(1094.9 979.23)" aria-hidden="true">
     <path d="m0 0h2v-4.4474h2" fill="none" stroke="#aaa" stroke-width=".075em"/>
     <text class="bg" transform="translate(4 .83261)"><tspan x="0" dy="0" fill="none" stroke="rgb(255, 255, 255)" stroke-width="4">Vegetab</tspan></text>
     <text class="fg" transform="translate(4 .83261)"><tspan x="0" dy="0" fill="rgb(217, 216, 214)">Vegetab</tspan></text>
    </g>
   </g>
  </g>
  <g id="data-points">
   <g class="series" transform="translate(49.687)" clip-path="url(#clip-data-points-0)">
    <clipPath id="clip-data-points-0">
     <rect x="-4" y="44.6" width="1092" height="1673.7"/>
    </clipPath>
   </g>
   <g class="series" transform="translate(49.687)" clip-path="url(#clip-data-points-1)">
    <clipPath id="clip-data-points-1">
     <rect x="-4" y="44.6" width="1092" height="1673.7"/>
    </clipPath>
   </g>
   <g class="series" transform="translate(49.687)" clip-path="url(#clip-data-points-2)">
    <clipPath id="clip-data-points-2">
     <rect x="-4" y="44.6" width="1092" height="1673.7"/>
    </clipPath>
   </g>
   <g class="series" transform="translate(49.687)" clip-path="url(#clip-data-points-3)">
    <clipPath id="clip-data-points-3">
     <rect x="-4" y="44.6" width="1092" height="1673.7"/>
    </clipPath>
   </g>
   <g class="series" transform="translate(49.687)" clip-path="url(#clip-data-points-4)">
    <clipPath id="clip-data-points-4">
     <rect x="-4" y="44.6" width="1092" height="1673.7"/>
    </clipPath>
   </g>
   <g class="series" transform="translate(49.687)" clip-path="url(#clip-data-points-5)">
    <clipPath id="clip-data-points-5">
     <rect x="-4" y="44.6" width="1092" height="1673.7"/>
    </clipPath>
   </g>
   <g class="series" transform="translate(49.687)" clip-path="url(#clip-data-points-6)">
    <clipPath id="clip-data-points-6">
     <rect x="-4" y="44.6" width="1092" height="1673.7"/>
    </clipPath>
   </g>
   <g class="series" transform="translate(49.687)" clip-path="url(#clip-data-points-7)">
    <clipPath id="clip-data-points-7">
     <rect x="-4" y="44.6" width="1092" height="1673.7"/>
    </clipPath>
   </g>
   <g class="series" transform="translate(49.687)" clip-path="url(#clip-data-points-8)">
    <clipPath id="clip-data-points-8">
     <rect x="-4" y="44.6" width="1092" height="1673.7"/>
    </clipPath>
   </g>
  </g>
  <g id="data-point-labels"></g>
  <g class="annotations above">
   <g id="axes-highlights">
    <g class="axis-highlights-facet"></g>
   </g>
  </g>
 </svg>
 <svg id="fl-layout-svg-screenshot-container" class="flourish-screenshot-svg-container" style="height:1812px;left:0px;position:absolute;top:0px;width:1246px" version="1.1">
  <g fill="rgb(51, 51, 51)" font-family="Canva Sans Variable">
   <text dominant-baseline="text-before-edge" font-size="32px" font-weight="700"><tspan x="0" dx="0" dy="0"/></text>
   <g font-weight="400">
    <text dominant-baseline="text-before-edge" font-size="22.4px"><tspan x="0" dx="0" dy="0"/></text>
    <text dominant-baseline="text-before-edge" font-size="19.2px"><tspan x="0" dx="0" dy="0"/></text>
    <text dominant-baseline="text-before-edge" font-size="16px"><tspan x="0" dx="0" dy="0"/></text>
   </g>
  </g>
 </svg>
</svg>
