<svg xmlns='http://www.w3.org/2000/svg' version='1.1' width='794px' height='541px'><svg xmlns="http://www.w3.org/2000/svg" style="position: fixed; left: 1000vw;" x="7940" y="0"><text/></svg><svg xmlns="http://www.w3.org/2000/svg" id="graphic" fill="currentColor" font-family="Canva Sans Variable" width="773" height="520" class="ready" x="10.5" y="10.5"><g class="facets"><g class="fl-facets"><g class="fl-facet" transform="translate(44.25447463989258, 0)" opacity="1"><rect class="fl-facet-rect" width="728.7455242167671" height="459.0597155560534" fill="none"/><rect class="fl-facet-primary-rect" width="728.7455242167671" height="459.0597155560534" y="0" fill="none"/><g class="fl-facet-title"><rect class="fl-facet-title-bg" height="0" width="0" fill="rgb(238, 238, 238)" x="0" opacity="0"/><text class="fl-facet-title-text" font-size="14" font-weight="600" transform="translate(0, 14.700000000000001)" opacity="0" text-anchor="start"><tspan x="0" y="0" dx="0" text-anchor="start"/></text></g><g class="fl-facet-primary" transform="translate(0, 0)"><g class="fl-chart ready"><rect class="fl-chart-debug-rectangle" x="0" y="0" style="stroke-width: 1px; fill: none; display: none; stroke: red;" width="728.7455242167671" height="459.0597155560534"/><clipPath class="fl-data-clip-path" id="fl-axes-1-clip-path"><rect x="0" y="39.3" width="608.5288555155952" height="419.7597155560534"/></clipPath><clipPath class="fl-grid-clip-path" id="fl-axes-1-grid-clip-path"><rect x="-1.5" y="37.8" width="611.5288555155952" height="422.7597155560534"/></clipPath><g class="fl-chart-background"><rect class="fl-chart-fill" x="0" y="39.3" width="608.5288555155952" height="419.7597155560534" fill="none"/><image class="fl-chart-image" x="0" y="39.3" width="608.5288555155952" height="419.7597155560534" preserveAspectRatio="none"/><rect class="fl-chart-interaction" style="opacity: 0;" x="0" y="39.3" width="608.5288555155952" height="419.7597155560534"/></g><g class="fl-data-background" clip-path="url(#fl-axes-1-clip-path)"/><g class="fl-gridlines" style="pointer-events: none;" clip-path="url(#fl-axes-1-grid-clip-path)"><g class="fl-gridlines-vertical"/><g class="fl-gridlines-horizontal"><line style="shape-rendering: crispedges; opacity: 1; stroke: rgb(238, 238, 238); stroke-width: 1.5px;" x1="0" x2="608.5288555155952" y1="420.89974141459396" y2="420.89974141459396"/><line style="shape-rendering: crispedges; opacity: 1; stroke: rgb(238, 238, 238); stroke-width: 1.5px;" x1="0" x2="608.5288555155952" y1="344.57979313167516" y2="344.57979313167516"/><line style="shape-rendering: crispedges; opacity: 1; stroke: rgb(238, 238, 238); stroke-width: 1.5px;" x1="0" x2="608.5288555155952" y1="268.25984484875636" y2="268.25984484875636"/><line style="shape-rendering: crispedges; opacity: 1; stroke: rgb(238, 238, 238); stroke-width: 1.5px;" x1="0" x2="608.5288555155952" y1="191.93989656583759" y2="191.93989656583759"/><line style="shape-rendering: crispedges; opacity: 1; stroke: rgb(238, 238, 238); stroke-width: 1.5px;" x1="0" x2="608.5288555155952" y1="115.61994828291877" y2="115.61994828291877"/><line style="shape-rendering: crispedges; opacity: 1; stroke: rgb(238, 238, 238); stroke-width: 1.5px;" x1="0" x2="608.5288555155952" y1="39.3" y2="39.3"/></g></g><g class="fl-axes" aria-hidden="true"><g class="fl-x-axes"><g class="fl-axis fl-x-axis fl-bottom-axis"><g class="fl-axis-line"><line style="shape-rendering: crispedges; stroke-linecap: square; stroke-width: 1.5px; opacity: 1; stroke: rgb(238, 238, 238);" x1="0" y1="459.0597155560534" y2="459.0597155560534" x2="608.5288555155952"/></g><g class="fl-axis-ticks"><g style="opacity: 1;" transform="translate(608.5288555155952,459.0597155560534)"><line y2="7" style="stroke: rgb(238, 238, 238); stroke-width: 1.5px;"/><text text-anchor="end" transform="translate(0,10.5) rotate(-45,0,0) translate(0,9.24)" style="user-select: none; cursor: default; fill: rgb(74, 74, 74); font-size: 14px; font-weight: normal;"><tspan x="0" dy="0">10/2025</tspan></text></g><g style="opacity: 1;" transform="translate(572.4794963994106,459.0597155560534)"><line y2="7" style="stroke: rgb(238, 238, 238); stroke-width: 1.5px;"/><text text-anchor="end" transform="translate(0,10.5) rotate(-45,0,0) translate(0,9.24)" style="user-select: none; cursor: default; fill: rgb(74, 74, 74); font-size: 14px; font-weight: normal;"><tspan x="0" dy="0">07/2025</tspan></text></g><g style="opacity: 1;" transform="translate(536.8219781431844,459.0597155560534)"><line y2="7" style="stroke: rgb(238, 238, 238); stroke-width: 1.5px;"/><text text-anchor="end" transform="translate(0,10.5) rotate(-45,0,0) translate(0,9.24)" style="user-select: none; cursor: default; fill: rgb(74, 74, 74); font-size: 14px; font-weight: normal;"><tspan x="0" dy="0">04/2025</tspan></text></g><g style="opacity: 1;" transform="translate(501.5563007469168,459.0597155560534)"><line y2="7" style="stroke: rgb(238, 238, 238); stroke-width: 1.5px;"/><text text-anchor="end" transform="translate(0,10.5) rotate(-45,0,0) translate(0,9.24)" style="user-select: none; cursor: default; fill: rgb(74, 74, 74); font-size: 14px; font-weight: normal;"><tspan x="0" dy="0">01/2025</tspan></text></g><g style="opacity: 1;" transform="translate(465.50694163073223,459.0597155560534)"><line y2="7" style="stroke: rgb(238, 238, 238); stroke-width: 1.5px;"/><text text-anchor="end" transform="translate(0,10.5) rotate(-45,0,0) translate(0,9.24)" style="user-select: none; cursor: default; fill: rgb(74, 74, 74); font-size: 14px; font-weight: normal;"><tspan x="0" dy="0">10/2024</tspan></text></g><g style="opacity: 1;" transform="translate(429.45758251454754,459.0597155560534)"><line y2="7" style="stroke: rgb(238, 238, 238); stroke-width: 1.5px;"/><text text-anchor="end" transform="translate(0,10.5) rotate(-45,0,0) translate(0,9.24)" style="user-select: none; cursor: default; fill: rgb(74, 74, 74); font-size: 14px; font-weight: normal;"><tspan x="0" dy="0">07/2024</tspan></text></g><g style="opacity: 1;" transform="translate(393.8000642583214,459.0597155560534)"><line y2="7" style="stroke: rgb(238, 238, 238); stroke-width: 1.5px;"/><text text-anchor="end" transform="translate(0,10.5) rotate(-45,0,0) translate(0,9.24)" style="user-select: none; cursor: default; fill: rgb(74, 74, 74); font-size: 14px; font-weight: normal;"><tspan x="0" dy="0">04/2024</tspan></text></g><g style="opacity: 1;" transform="translate(358.1425460020953,459.0597155560534)"><line y2="7" style="stroke: rgb(238, 238, 238); stroke-width: 1.5px;"/><text text-anchor="end" transform="translate(0,10.5) rotate(-45,0,0) translate(0,9.24)" style="user-select: none; cursor: default; fill: rgb(74, 74, 74); font-size: 14px; font-weight: normal;"><tspan x="0" dy="0">01/2024</tspan></text></g><g style="opacity: 1;" transform="translate(322.0931868859106,459.0597155560534)"><line y2="7" style="stroke: rgb(238, 238, 238); stroke-width: 1.5px;"/><text text-anchor="end" transform="translate(0,10.5) rotate(-45,0,0) translate(0,9.24)" style="user-select: none; cursor: default; fill: rgb(74, 74, 74); font-size: 14px; font-weight: normal;"><tspan x="0" dy="0">10/2023</tspan></text></g><g style="opacity: 1;" transform="translate(286.04382776972597,459.0597155560534)"><line y2="7" style="stroke: rgb(238, 238, 238); stroke-width: 1.5px;"/><text text-anchor="end" transform="translate(0,10.5) rotate(-45,0,0) translate(0,9.24)" style="user-select: none; cursor: default; fill: rgb(74, 74, 74); font-size: 14px; font-weight: normal;"><tspan x="0" dy="0">07/2023</tspan></text></g><g style="opacity: 1;" transform="translate(250.3863095134999,459.0597155560534)"><line y2="7" style="stroke: rgb(238, 238, 238); stroke-width: 1.5px;"/><text text-anchor="end" transform="translate(0,10.5) rotate(-45,0,0) translate(0,9.24)" style="user-select: none; cursor: default; fill: rgb(74, 74, 74); font-size: 14px; font-weight: normal;"><tspan x="0" dy="0">04/2023</tspan></text></g><g style="opacity: 1;" transform="translate(215.1206321172323,459.0597155560534)"><line y2="7" style="stroke: rgb(238, 238, 238); stroke-width: 1.5px;"/><text text-anchor="end" transform="translate(0,10.5) rotate(-45,0,0) translate(0,9.24)" style="user-select: none; cursor: default; fill: rgb(74, 74, 74); font-size: 14px; font-weight: normal;"><tspan x="0" dy="0">01/2023</tspan></text></g><g style="opacity: 1;" transform="translate(179.07127300104764,459.0597155560534)"><line y2="7" style="stroke: rgb(238, 238, 238); stroke-width: 1.5px;"/><text text-anchor="end" transform="translate(0,10.5) rotate(-45,0,0) translate(0,9.24)" style="user-select: none; cursor: default; fill: rgb(74, 74, 74); font-size: 14px; font-weight: normal;"><tspan x="0" dy="0">10/2022</tspan></text></g><g style="opacity: 1;" transform="translate(143.02191388486298,459.0597155560534)"><line y2="7" style="stroke: rgb(238, 238, 238); stroke-width: 1.5px;"/><text text-anchor="end" transform="translate(0,10.5) rotate(-45,0,0) translate(0,9.24)" style="user-select: none; cursor: default; fill: rgb(74, 74, 74); font-size: 14px; font-weight: normal;"><tspan x="0" dy="0">07/2022</tspan></text></g><g style="opacity: 1;" transform="translate(107.36439562863688,459.0597155560534)"><line y2="7" style="stroke: rgb(238, 238, 238); stroke-width: 1.5px;"/><text text-anchor="end" transform="translate(0,10.5) rotate(-45,0,0) translate(0,9.24)" style="user-select: none; cursor: default; fill: rgb(74, 74, 74); font-size: 14px; font-weight: normal;"><tspan x="0" dy="0">04/2022</tspan></text></g><g style="opacity: 1;" transform="translate(72.0987182323693,459.0597155560534)"><line y2="7" style="stroke: rgb(238, 238, 238); stroke-width: 1.5px;"/><text text-anchor="end" transform="translate(0,10.5) rotate(-45,0,0) translate(0,9.24)" style="user-select: none; cursor: default; fill: rgb(74, 74, 74); font-size: 14px; font-weight: normal;"><tspan x="0" dy="0">01/2022</tspan></text></g><g style="opacity: 1;" transform="translate(36.04935911618465,459.0597155560534)"><line y2="7" style="stroke: rgb(238, 238, 238); stroke-width: 1.5px;"/><text text-anchor="end" transform="translate(0,10.5) rotate(-45,0,0) translate(0,9.24)" style="user-select: none; cursor: default; fill: rgb(74, 74, 74); font-size: 14px; font-weight: normal;"><tspan x="0" dy="0">10/2021</tspan></text></g><g style="opacity: 1;" transform="translate(0,459.0597155560534)"><line y2="7" style="stroke: rgb(238, 238, 238); stroke-width: 1.5px;"/><text text-anchor="end" transform="translate(0,10.5) rotate(-45,0,0) translate(0,9.24)" style="user-select: none; cursor: default; fill: rgb(74, 74, 74); font-size: 14px; font-weight: normal;"><tspan x="0" dy="0">07/2021</tspan></text></g></g><g class="fl-axis-title"/></g><g class="fl-axis fl-x-axis fl-top-axis"><g class="fl-axis-line"/><g class="fl-axis-ticks"/><g class="fl-axis-title"/></g></g><g class="fl-y-axes"><g class="fl-axis fl-y-axis fl-left-axis"><g class="fl-axis-line"><line style="shape-rendering: crispedges; stroke-linecap: square; stroke-width: 1.5px; opacity: 1; stroke: rgb(238, 238, 238);" x1="0" x2="0" y1="459.0597155560534" y2="39.3"/></g><g class="fl-axis-ticks"><g style="opacity: 1;" transform="translate(0,344.57979313167516)"><line x2="-24.766666412353516" style="stroke: rgb(238, 238, 238); stroke-width: 1.5px;"/><text text-anchor="end" transform="translate(-14.933333396911621,14)" style="user-select: none; cursor: default; fill: rgb(74, 74, 74); font-size: 14px; font-weight: normal;"><tspan x="0" dy="0">0</tspan></text></g><g style="opacity: 1;" transform="translate(0,39.3)"><line x2="-24.766666412353516" style="stroke: rgb(238, 238, 238); stroke-width: 1.5px;"/><text text-anchor="end" transform="translate(-6.466667175292969,14)" style="user-select: none; cursor: default; fill: rgb(74, 74, 74); font-size: 14px; font-weight: normal;"><tspan x="0" dy="0">40</tspan></text></g><g style="opacity: 1;" transform="translate(0,115.61994828291877)"><line x2="-24.766666412353516" style="stroke: rgb(238, 238, 238); stroke-width: 1.5px;"/><text text-anchor="end" transform="translate(-6.799999237060547,14)" style="user-select: none; cursor: default; fill: rgb(74, 74, 74); font-size: 14px; font-weight: normal;"><tspan x="0" dy="0">30</tspan></text></g><g style="opacity: 1;" transform="translate(0,191.93989656583759)"><line x2="-24.766666412353516" style="stroke: rgb(238, 238, 238); stroke-width: 1.5px;"/><text text-anchor="end" transform="translate(-7.233333587646484,14)" style="user-select: none; cursor: default; fill: rgb(74, 74, 74); font-size: 14px; font-weight: normal;"><tspan x="0" dy="0">20</tspan></text></g><g style="opacity: 1;" transform="translate(0,268.25984484875636)"><line x2="-24.766666412353516" style="stroke: rgb(238, 238, 238); stroke-width: 1.5px;"/><text text-anchor="end" transform="translate(-7.733333587646484,14)" style="user-select: none; cursor: default; fill: rgb(74, 74, 74); font-size: 14px; font-weight: normal;"><tspan x="0" dy="0">10</tspan></text></g><g style="opacity: 1;" transform="translate(0,420.89974141459396)"><line x2="-24.766666412353516" style="stroke: rgb(238, 238, 238); stroke-width: 1.5px;"/><text text-anchor="end" transform="translate(-3.5,14)" style="user-select: none; cursor: default; fill: rgb(74, 74, 74); font-size: 14px; font-weight: normal;"><tspan x="0" dy="0">-10</tspan></text></g></g><g class="fl-axis-title"><text style="opacity: 1; user-select: none; cursor: default; font-size: 15.4px; fill: rgb(74, 74, 74); font-weight: bold;" transform="translate(-44.2544757832329,20.65)" text-anchor="start">CPI % change year on year</text></g></g><g class="fl-axis fl-y-axis fl-right-axis"><g class="fl-axis-line"/><g class="fl-axis-ticks"/><g class="fl-axis-title"/></g></g></g><g class="fl-data-foreground" clip-path="url(#fl-axes-1-clip-path)"/></g></g></g></g></g><g class="annotations below"/><g id="areas"/><g id="lines"><g class="series"><clipPath id="clip-0-0"><rect width="608.5288555155952" x="0" y="37.9" height="422.5597155560534"/></clipPath><path class="outline" opacity="1" pointer-events="none" fill="none" stroke-width="0" transform="translate(44.2544757832329,0)" clip-path="url(#clip-0-0)" clip-path-id="0-0" d="M12.147,307.794C16.196,307.484,20.245,307.175,24.294,306.878C28.213,306.59,32.131,306.598,36.049,306.038C40.098,305.46,44.147,304.319,48.196,303.214C52.115,302.146,56.033,299.551,59.952,299.551C64.001,299.551,68.05,301.459,72.099,301.612C76.148,301.764,80.197,301.841,84.246,301.841C87.903,301.841,91.56,299.398,95.217,299.398C99.266,299.398,103.315,299.704,107.364,299.704C111.283,299.704,115.201,297.259,119.12,295.201C123.169,293.074,127.218,288.454,131.267,287.035C135.185,285.661,139.104,284.974,143.022,284.974C147.071,284.974,151.12,285.686,155.169,286.042C159.218,286.399,163.267,286.953,167.316,287.111C171.234,287.264,175.153,287.277,179.071,287.34C183.12,287.405,187.169,287.391,191.218,287.492C195.137,287.591,199.055,288.832,202.974,289.629C207.023,290.454,211.072,292.377,215.121,292.377C219.17,292.377,223.219,291.152,227.268,290.927C230.925,290.723,234.582,290.622,238.239,290.622C242.288,290.622,246.337,291.69,250.386,292.682C254.305,293.643,258.223,294.626,262.142,296.422C266.191,298.278,270.24,301.706,274.289,303.749C278.207,305.725,282.125,308.557,286.044,308.557C290.093,308.557,294.142,308.302,298.191,307.794C302.24,307.285,306.289,305.203,310.338,303.672C314.256,302.191,318.175,298.788,322.093,298.788C326.142,298.788,330.191,301.269,334.24,302.299C338.159,303.295,342.077,304.893,345.995,304.893C350.045,304.893,354.094,303.723,358.143,303.214C362.192,302.706,366.241,301.841,370.29,301.841C374.077,301.841,377.865,303.472,381.653,303.978C385.702,304.519,389.751,304.841,393.8,304.893C397.718,304.944,401.637,304.919,405.555,304.97C409.604,305.022,413.653,305.275,417.702,305.886C421.621,306.476,425.539,308.535,429.458,309.396C433.507,310.286,437.556,310.096,441.605,311.075C445.654,312.055,449.703,313.169,453.752,315.273C457.67,317.309,461.589,323.363,465.507,323.363C469.556,323.363,473.605,322.872,477.654,322.6C481.572,322.336,485.491,322.144,489.409,321.76C493.458,321.363,497.507,320.234,501.556,320.234C505.605,320.234,509.654,320.31,513.703,320.463C517.361,320.601,521.018,323.744,524.675,323.744C528.724,323.744,532.773,322.981,536.822,322.981C540.74,322.981,544.659,323.058,548.577,323.058C552.626,323.058,556.675,322.436,560.724,321.531C564.643,320.656,568.561,317.791,572.479,317.791C576.529,317.791,580.578,318.593,584.627,319.394"/><path class="line" opacity="1" pointer-events="none" fill="none" stroke="#d7d8da" stroke-width="1.4000000000000001" transform="translate(44.2544757832329,0)" clip-path="url(#clip-0-0)" clip-path-id="0-0" d="M12.147,307.794C16.196,307.484,20.245,307.175,24.294,306.878C28.213,306.59,32.131,306.598,36.049,306.038C40.098,305.46,44.147,304.319,48.196,303.214C52.115,302.146,56.033,299.551,59.952,299.551C64.001,299.551,68.05,301.459,72.099,301.612C76.148,301.764,80.197,301.841,84.246,301.841C87.903,301.841,91.56,299.398,95.217,299.398C99.266,299.398,103.315,299.704,107.364,299.704C111.283,299.704,115.201,297.259,119.12,295.201C123.169,293.074,127.218,288.454,131.267,287.035C135.185,285.661,139.104,284.974,143.022,284.974C147.071,284.974,151.12,285.686,155.169,286.042C159.218,286.399,163.267,286.953,167.316,287.111C171.234,287.264,175.153,287.277,179.071,287.34C183.12,287.405,187.169,287.391,191.218,287.492C195.137,287.591,199.055,288.832,202.974,289.629C207.023,290.454,211.072,292.377,215.121,292.377C219.17,292.377,223.219,291.152,227.268,290.927C230.925,290.723,234.582,290.622,238.239,290.622C242.288,290.622,246.337,291.69,250.386,292.682C254.305,293.643,258.223,294.626,262.142,296.422C266.191,298.278,270.24,301.706,274.289,303.749C278.207,305.725,282.125,308.557,286.044,308.557C290.093,308.557,294.142,308.302,298.191,307.794C302.24,307.285,306.289,305.203,310.338,303.672C314.256,302.191,318.175,298.788,322.093,298.788C326.142,298.788,330.191,301.269,334.24,302.299C338.159,303.295,342.077,304.893,345.995,304.893C350.045,304.893,354.094,303.723,358.143,303.214C362.192,302.706,366.241,301.841,370.29,301.841C374.077,301.841,377.865,303.472,381.653,303.978C385.702,304.519,389.751,304.841,393.8,304.893C397.718,304.944,401.637,304.919,405.555,304.97C409.604,305.022,413.653,305.275,417.702,305.886C421.621,306.476,425.539,308.535,429.458,309.396C433.507,310.286,437.556,310.096,441.605,311.075C445.654,312.055,449.703,313.169,453.752,315.273C457.67,317.309,461.589,323.363,465.507,323.363C469.556,323.363,473.605,322.872,477.654,322.6C481.572,322.336,485.491,322.144,489.409,321.76C493.458,321.363,497.507,320.234,501.556,320.234C505.605,320.234,509.654,320.31,513.703,320.463C517.361,320.601,521.018,323.744,524.675,323.744C528.724,323.744,532.773,322.981,536.822,322.981C540.74,322.981,544.659,323.058,548.577,323.058C552.626,323.058,556.675,322.436,560.724,321.531C564.643,320.656,568.561,317.791,572.479,317.791C576.529,317.791,580.578,318.593,584.627,319.394"/></g><g class="series"><clipPath id="clip-0-1"><rect width="608.5288555155952" x="0" y="37.9" height="422.5597155560534"/></clipPath><path class="outline" opacity="1" pointer-events="none" fill="none" stroke-width="0" transform="translate(44.2544757832329,0)" clip-path="url(#clip-0-1)" clip-path-id="0-1" d="M12.147,287.721C16.196,288.828,20.245,289.934,24.294,290.927C28.213,291.888,32.131,292.274,36.049,293.598C40.098,294.966,44.147,298.935,48.196,299.093C52.115,299.246,56.033,299.322,59.952,299.322C64.001,299.322,68.05,297.745,72.099,296.651C76.148,295.557,80.197,292.759,84.246,292.759C87.903,292.759,91.56,294.566,95.217,295.201C99.266,295.904,103.315,296.651,107.364,296.651C111.283,296.651,115.201,288.782,119.12,285.356C123.169,281.814,127.218,278.889,131.267,275.816C135.185,272.841,139.104,270.117,143.022,267.191C147.071,264.168,151.12,260.641,155.169,257.957C159.218,255.273,163.267,251.193,167.316,251.088C171.234,250.986,175.153,251.037,179.071,250.935C183.12,250.83,187.169,247.272,191.218,247.272C195.137,247.272,199.055,247.73,202.974,247.73C207.023,247.73,211.072,240.098,215.121,239.335C219.17,238.571,223.219,238.953,227.268,238.19C230.925,237.5,234.582,235.137,238.239,235.137C242.288,235.137,246.337,235.417,250.386,235.977C254.305,236.518,258.223,248.673,262.142,252.691C266.191,256.842,270.24,257.541,274.289,260.17C278.207,262.714,282.125,264.719,286.044,268.184C290.093,271.763,294.142,280.039,298.191,281.463C302.24,282.888,306.289,283.6,310.338,283.6C314.256,283.6,318.175,278.179,322.093,277.342C326.142,276.477,330.191,276.044,334.24,276.044C338.159,276.044,342.077,277.307,345.995,279.708C350.045,282.188,354.094,287.76,358.143,290.927C362.192,294.094,366.241,295.884,370.29,298.712C374.077,301.357,377.865,305.27,381.653,307.259C385.702,309.386,389.751,310.063,393.8,310.694C397.718,311.304,401.637,311.297,405.555,311.61C409.604,311.933,413.653,312.012,417.702,312.602C421.621,313.173,425.539,315.044,429.458,315.044C433.507,315.044,437.556,313.441,441.605,313.441C445.654,313.441,449.703,313.492,453.752,313.594C457.67,313.692,461.589,320.27,465.507,323.439C469.556,326.714,473.605,332.903,477.654,332.903C481.572,332.903,485.491,331.376,489.409,331.376C493.458,331.376,497.507,332.979,501.556,332.979C505.605,332.979,509.654,330.868,513.703,329.926C517.361,329.076,521.018,329.138,524.675,327.56C528.724,325.814,532.773,321.947,536.822,319.089C540.74,316.323,544.659,312.122,548.577,310.694C552.626,309.218,556.675,309.925,560.724,308.48C564.643,307.082,568.561,302.299,572.479,302.299C576.529,302.299,580.578,303.482,584.627,304.664"/><path class="line" opacity="1" pointer-events="none" fill="none" stroke="#d7d8da" stroke-width="1.4000000000000001" transform="translate(44.2544757832329,0)" clip-path="url(#clip-0-1)" clip-path-id="0-1" d="M12.147,287.721C16.196,288.828,20.245,289.934,24.294,290.927C28.213,291.888,32.131,292.274,36.049,293.598C40.098,294.966,44.147,298.935,48.196,299.093C52.115,299.246,56.033,299.322,59.952,299.322C64.001,299.322,68.05,297.745,72.099,296.651C76.148,295.557,80.197,292.759,84.246,292.759C87.903,292.759,91.56,294.566,95.217,295.201C99.266,295.904,103.315,296.651,107.364,296.651C111.283,296.651,115.201,288.782,119.12,285.356C123.169,281.814,127.218,278.889,131.267,275.816C135.185,272.841,139.104,270.117,143.022,267.191C147.071,264.168,151.12,260.641,155.169,257.957C159.218,255.273,163.267,251.193,167.316,251.088C171.234,250.986,175.153,251.037,179.071,250.935C183.12,250.83,187.169,247.272,191.218,247.272C195.137,247.272,199.055,247.73,202.974,247.73C207.023,247.73,211.072,240.098,215.121,239.335C219.17,238.571,223.219,238.953,227.268,238.19C230.925,237.5,234.582,235.137,238.239,235.137C242.288,235.137,246.337,235.417,250.386,235.977C254.305,236.518,258.223,248.673,262.142,252.691C266.191,256.842,270.24,257.541,274.289,260.17C278.207,262.714,282.125,264.719,286.044,268.184C290.093,271.763,294.142,280.039,298.191,281.463C302.24,282.888,306.289,283.6,310.338,283.6C314.256,283.6,318.175,278.179,322.093,277.342C326.142,276.477,330.191,276.044,334.24,276.044C338.159,276.044,342.077,277.307,345.995,279.708C350.045,282.188,354.094,287.76,358.143,290.927C362.192,294.094,366.241,295.884,370.29,298.712C374.077,301.357,377.865,305.27,381.653,307.259C385.702,309.386,389.751,310.063,393.8,310.694C397.718,311.304,401.637,311.297,405.555,311.61C409.604,311.933,413.653,312.012,417.702,312.602C421.621,313.173,425.539,315.044,429.458,315.044C433.507,315.044,437.556,313.441,441.605,313.441C445.654,313.441,449.703,313.492,453.752,313.594C457.67,313.692,461.589,320.27,465.507,323.439C469.556,326.714,473.605,332.903,477.654,332.903C481.572,332.903,485.491,331.376,489.409,331.376C493.458,331.376,497.507,332.979,501.556,332.979C505.605,332.979,509.654,330.868,513.703,329.926C517.361,329.076,521.018,329.138,524.675,327.56C528.724,325.814,532.773,321.947,536.822,319.089C540.74,316.323,544.659,312.122,548.577,310.694C552.626,309.218,556.675,309.925,560.724,308.48C564.643,307.082,568.561,302.299,572.479,302.299C576.529,302.299,580.578,303.482,584.627,304.664"/></g><g class="series"><clipPath id="clip-0-2"><rect width="608.5288555155952" x="0" y="37.9" height="422.5597155560534"/></clipPath><path class="outline" opacity="1" pointer-events="none" fill="none" stroke-width="0" transform="translate(44.2544757832329,0)" clip-path="url(#clip-0-2)" clip-path-id="0-2" d="M12.147,317.715C16.196,319.368,20.245,321.021,24.294,321.073C28.213,321.124,32.131,321.099,36.049,321.15C40.098,321.202,44.147,325.059,48.196,326.721C52.115,328.329,56.033,329.92,59.952,330.995C64.001,332.106,68.05,333.208,72.099,333.208C76.148,333.208,80.197,319.758,84.246,315.578C87.903,311.803,91.56,309.048,95.217,308.404C99.266,307.692,103.315,308.048,107.364,307.336C111.283,306.646,115.201,288.473,119.12,280.471C123.169,272.203,127.218,265.492,131.267,258.72C135.185,252.166,139.104,248.531,143.022,240.403C147.071,232.005,151.12,215.904,155.169,208.73C159.218,201.556,163.267,198.41,167.316,197.359C171.234,196.341,175.153,196.611,179.071,195.832C183.12,195.027,187.169,193.943,191.218,192.55C195.137,191.202,199.055,190.019,202.974,187.666C207.023,185.235,211.072,178.05,215.121,178.05C219.17,178.05,223.219,186.788,227.268,187.971C230.925,189.04,234.582,189.574,238.239,189.574C242.288,189.574,246.337,185.834,250.386,185.834C254.305,185.834,258.223,199.539,262.142,206.212C266.191,213.107,270.24,219.992,274.289,226.513C278.207,232.823,282.125,237.692,286.044,244.753C290.093,252.05,294.142,266.276,298.191,269.786C302.24,273.297,306.289,273.815,310.338,275.052C314.256,276.25,318.175,276.464,322.093,277.189C326.142,277.939,330.191,277.952,334.24,279.479C338.159,280.956,342.077,285,345.995,287.569C350.045,290.224,354.094,293.344,358.143,295.124C362.192,296.905,366.241,296.316,370.29,298.254C374.077,300.066,377.865,303.812,381.653,306.038C385.702,308.418,389.751,310.471,393.8,311.915C397.718,313.313,401.637,314.662,405.555,314.662C409.604,314.662,413.653,307.221,417.702,305.122C421.621,303.092,425.539,302.841,429.458,302.07C433.507,301.272,437.556,300.467,441.605,300.467C445.654,300.467,449.703,301.565,453.752,303.138C457.67,304.661,461.589,307.364,465.507,309.625C469.556,311.962,473.605,316.952,477.654,316.952C481.572,316.952,485.491,316.364,489.409,316.112C493.458,315.853,497.507,315.629,501.556,315.426C505.605,315.222,509.654,315.247,513.703,314.891C517.361,314.57,521.018,312.877,524.675,311.762C528.724,310.528,532.773,307.794,536.822,307.794C540.74,307.794,544.659,308.659,548.577,310.388C552.626,312.176,556.675,318.539,560.724,321.607C564.643,324.577,568.561,326.713,572.479,328.629C576.529,330.609,580.578,331.908,584.627,333.208"/><path class="line" opacity="1" pointer-events="none" fill="none" stroke="#d7d8da" stroke-width="1.4000000000000001" transform="translate(44.2544757832329,0)" clip-path="url(#clip-0-2)" clip-path-id="0-2" d="M12.147,317.715C16.196,319.368,20.245,321.021,24.294,321.073C28.213,321.124,32.131,321.099,36.049,321.15C40.098,321.202,44.147,325.059,48.196,326.721C52.115,328.329,56.033,329.92,59.952,330.995C64.001,332.106,68.05,333.208,72.099,333.208C76.148,333.208,80.197,319.758,84.246,315.578C87.903,311.803,91.56,309.048,95.217,308.404C99.266,307.692,103.315,308.048,107.364,307.336C111.283,306.646,115.201,288.473,119.12,280.471C123.169,272.203,127.218,265.492,131.267,258.72C135.185,252.166,139.104,248.531,143.022,240.403C147.071,232.005,151.12,215.904,155.169,208.73C159.218,201.556,163.267,198.41,167.316,197.359C171.234,196.341,175.153,196.611,179.071,195.832C183.12,195.027,187.169,193.943,191.218,192.55C195.137,191.202,199.055,190.019,202.974,187.666C207.023,185.235,211.072,178.05,215.121,178.05C219.17,178.05,223.219,186.788,227.268,187.971C230.925,189.04,234.582,189.574,238.239,189.574C242.288,189.574,246.337,185.834,250.386,185.834C254.305,185.834,258.223,199.539,262.142,206.212C266.191,213.107,270.24,219.992,274.289,226.513C278.207,232.823,282.125,237.692,286.044,244.753C290.093,252.05,294.142,266.276,298.191,269.786C302.24,273.297,306.289,273.815,310.338,275.052C314.256,276.25,318.175,276.464,322.093,277.189C326.142,277.939,330.191,277.952,334.24,279.479C338.159,280.956,342.077,285,345.995,287.569C350.045,290.224,354.094,293.344,358.143,295.124C362.192,296.905,366.241,296.316,370.29,298.254C374.077,300.066,377.865,303.812,381.653,306.038C385.702,308.418,389.751,310.471,393.8,311.915C397.718,313.313,401.637,314.662,405.555,314.662C409.604,314.662,413.653,307.221,417.702,305.122C421.621,303.092,425.539,302.841,429.458,302.07C433.507,301.272,437.556,300.467,441.605,300.467C445.654,300.467,449.703,301.565,453.752,303.138C457.67,304.661,461.589,307.364,465.507,309.625C469.556,311.962,473.605,316.952,477.654,316.952C481.572,316.952,485.491,316.364,489.409,316.112C493.458,315.853,497.507,315.629,501.556,315.426C505.605,315.222,509.654,315.247,513.703,314.891C517.361,314.57,521.018,312.877,524.675,311.762C528.724,310.528,532.773,307.794,536.822,307.794C540.74,307.794,544.659,308.659,548.577,310.388C552.626,312.176,556.675,318.539,560.724,321.607C564.643,324.577,568.561,326.713,572.479,328.629C576.529,330.609,580.578,331.908,584.627,333.208"/></g><g class="series"><clipPath id="clip-0-3"><rect width="608.5288555155952" x="0" y="37.9" height="422.5597155560534"/></clipPath><path class="outline" opacity="1" pointer-events="none" fill="none" stroke-width="0" transform="translate(44.2544757832329,0)" clip-path="url(#clip-0-3)" clip-path-id="0-3" d="M12.147,264.444C16.196,264.609,20.245,264.775,24.294,265.436C28.213,266.076,32.131,272.963,36.049,275.358C40.098,277.833,44.147,279.86,48.196,279.86C52.115,279.86,56.033,278.716,59.952,278.716C64.001,278.716,68.05,281.616,72.099,281.616C76.148,281.616,80.197,279.534,84.246,278.563C87.903,277.686,91.56,276.044,95.217,276.044C99.266,276.044,103.315,278.792,107.364,278.792C111.283,278.792,115.201,274.058,119.12,273.221C123.169,272.356,127.218,271.923,131.267,271.923C135.185,271.923,139.104,272.076,143.022,272.381C147.071,272.697,151.12,273.831,155.169,273.831C159.218,273.831,163.267,270.935,167.316,269.328C171.234,267.774,175.153,264.663,179.071,264.368C183.12,264.062,187.169,263.91,191.218,263.91C195.137,263.91,199.055,270.092,202.974,270.092C207.023,270.092,211.072,260.984,215.121,259.865C219.17,258.745,223.219,258.186,227.268,258.186C230.925,258.186,234.582,261.645,238.239,263.833C242.288,266.256,246.337,267.579,250.386,272.228C254.305,276.728,258.223,286.658,262.142,290.927C266.191,295.338,270.24,295.264,274.289,297.872C278.207,300.396,282.125,303.138,286.044,306.267C290.093,309.501,294.142,317.028,298.191,317.028C302.24,317.028,306.289,315.578,310.338,315.578C314.256,315.578,318.175,319.089,322.093,319.089C326.142,319.089,330.191,318.277,334.24,317.639C338.159,317.021,342.077,315.349,345.995,315.349C350.045,315.349,354.094,324.686,358.143,327.637C362.192,330.588,366.241,331.199,370.29,333.055C374.077,334.792,377.865,337.121,381.653,338.398C385.702,339.763,389.751,340.764,393.8,340.764C397.718,340.764,401.637,339.554,405.555,339.161C409.604,338.755,413.653,338.804,417.702,338.398C421.621,338.005,425.539,337.442,429.458,336.795C433.507,336.127,437.556,334.429,441.605,334.429C445.654,334.429,449.703,336.631,453.752,337.558C457.67,338.456,461.589,338.664,465.507,339.924C469.556,341.227,473.605,344.054,477.654,345.343C481.572,346.591,485.491,347.189,489.409,347.633C493.458,348.091,497.507,348.319,501.556,348.319C505.605,348.319,509.654,345.763,513.703,344.58C517.361,343.511,521.018,343.562,524.675,341.527C528.724,339.274,532.773,326.757,536.822,321.607C540.74,316.624,544.659,315.333,548.577,310.846C552.626,306.21,556.675,301.939,560.724,294.056C564.643,286.428,568.561,268.934,572.479,264.749C576.529,260.424,580.578,259.343,584.627,258.262"/><path class="line" opacity="1" pointer-events="none" fill="none" stroke="Green" stroke-width="1.4000000000000001" transform="translate(44.2544757832329,0)" clip-path="url(#clip-0-3)" clip-path-id="0-3" d="M12.147,264.444C16.196,264.609,20.245,264.775,24.294,265.436C28.213,266.076,32.131,272.963,36.049,275.358C40.098,277.833,44.147,279.86,48.196,279.86C52.115,279.86,56.033,278.716,59.952,278.716C64.001,278.716,68.05,281.616,72.099,281.616C76.148,281.616,80.197,279.534,84.246,278.563C87.903,277.686,91.56,276.044,95.217,276.044C99.266,276.044,103.315,278.792,107.364,278.792C111.283,278.792,115.201,274.058,119.12,273.221C123.169,272.356,127.218,271.923,131.267,271.923C135.185,271.923,139.104,272.076,143.022,272.381C147.071,272.697,151.12,273.831,155.169,273.831C159.218,273.831,163.267,270.935,167.316,269.328C171.234,267.774,175.153,264.663,179.071,264.368C183.12,264.062,187.169,263.91,191.218,263.91C195.137,263.91,199.055,270.092,202.974,270.092C207.023,270.092,211.072,260.984,215.121,259.865C219.17,258.745,223.219,258.186,227.268,258.186C230.925,258.186,234.582,261.645,238.239,263.833C242.288,266.256,246.337,267.579,250.386,272.228C254.305,276.728,258.223,286.658,262.142,290.927C266.191,295.338,270.24,295.264,274.289,297.872C278.207,300.396,282.125,303.138,286.044,306.267C290.093,309.501,294.142,317.028,298.191,317.028C302.24,317.028,306.289,315.578,310.338,315.578C314.256,315.578,318.175,319.089,322.093,319.089C326.142,319.089,330.191,318.277,334.24,317.639C338.159,317.021,342.077,315.349,345.995,315.349C350.045,315.349,354.094,324.686,358.143,327.637C362.192,330.588,366.241,331.199,370.29,333.055C374.077,334.792,377.865,337.121,381.653,338.398C385.702,339.763,389.751,340.764,393.8,340.764C397.718,340.764,401.637,339.554,405.555,339.161C409.604,338.755,413.653,338.804,417.702,338.398C421.621,338.005,425.539,337.442,429.458,336.795C433.507,336.127,437.556,334.429,441.605,334.429C445.654,334.429,449.703,336.631,453.752,337.558C457.67,338.456,461.589,338.664,465.507,339.924C469.556,341.227,473.605,344.054,477.654,345.343C481.572,346.591,485.491,347.189,489.409,347.633C493.458,348.091,497.507,348.319,501.556,348.319C505.605,348.319,509.654,345.763,513.703,344.58C517.361,343.511,521.018,343.562,524.675,341.527C528.724,339.274,532.773,326.757,536.822,321.607C540.74,316.624,544.659,315.333,548.577,310.846C552.626,306.21,556.675,301.939,560.724,294.056C564.643,286.428,568.561,268.934,572.479,264.749C576.529,260.424,580.578,259.343,584.627,258.262"/></g><g class="series"><clipPath id="clip-0-4"><rect width="608.5288555155952" x="0" y="37.9" height="422.5597155560534"/></clipPath><path class="outline" opacity="1" pointer-events="none" fill="none" stroke-width="0" transform="translate(44.2544757832329,0)" clip-path="url(#clip-0-4)" clip-path-id="0-4" d="M12.147,297.338C16.196,299.641,20.245,301.943,24.294,304.588C28.213,307.148,32.131,312.907,36.049,312.907C40.098,312.907,44.147,308.862,48.196,308.862C52.115,308.862,56.033,316.265,59.952,316.265C64.001,316.265,68.05,312.335,72.099,310.312C76.148,308.29,80.197,304.13,84.246,304.13C87.903,304.13,91.56,309.32,95.217,309.32C99.266,309.32,103.315,308.964,107.364,308.251C111.283,307.562,115.201,298.943,119.12,296.727C123.169,294.438,127.218,295.582,131.267,293.293C135.185,291.077,139.104,270.855,143.022,270.855C147.071,270.855,151.12,275.434,155.169,275.434C159.218,275.434,163.267,275.383,167.316,275.281C171.234,275.183,175.153,266.699,179.071,265.665C183.12,264.596,187.169,264.062,191.218,264.062C195.137,264.062,199.055,264.52,202.974,264.52C207.023,264.52,211.072,245.288,215.121,245.288C219.17,245.288,223.219,249.991,227.268,253.072C230.925,255.855,234.582,262.612,238.239,262.612C242.288,262.612,246.337,253.377,250.386,253.377C254.305,253.377,258.223,269.57,262.142,270.702C266.191,271.872,270.24,271.315,274.289,272.457C278.207,273.563,282.125,275.897,286.044,277.342C290.093,278.835,294.142,281.234,298.191,281.234C302.24,281.234,306.289,278.41,310.338,278.41C314.256,278.41,318.175,283.611,322.093,286.042C326.142,288.554,330.191,293.216,334.24,293.216C338.159,293.216,342.077,292.53,345.995,292.53C350.045,292.53,354.094,306.025,358.143,310.617C362.192,315.209,366.241,320.081,370.29,320.081C374.077,320.081,377.865,313.365,381.653,313.365C385.702,313.365,389.751,321.76,393.8,321.76C397.718,321.76,401.637,308.404,405.555,308.404C409.604,308.404,413.653,309.625,417.702,309.625C421.621,309.625,425.539,309.498,429.458,309.244C433.507,308.981,437.556,304.359,441.605,302.909C445.654,301.459,449.703,300.543,453.752,300.543C457.67,300.543,461.589,302.985,465.507,302.985C469.556,302.985,473.605,302.833,477.654,302.833C481.572,302.833,485.491,307.815,489.409,309.473C493.458,311.185,497.507,312.831,501.556,312.831C505.605,312.831,509.654,308.738,513.703,308.175C517.361,307.666,521.018,307.412,524.675,307.412C528.724,307.412,532.773,308.175,536.822,308.175C540.74,308.175,544.659,306.954,548.577,306.954C552.626,306.954,556.675,307.31,560.724,308.023C564.643,308.712,568.561,315.944,572.479,318.478C576.529,321.097,580.578,322.192,584.627,323.287"/><path class="line" opacity="1" pointer-events="none" fill="none" stroke="#d7d8da" stroke-width="1.4000000000000001" transform="translate(44.2544757832329,0)" clip-path="url(#clip-0-4)" clip-path-id="0-4" d="M12.147,297.338C16.196,299.641,20.245,301.943,24.294,304.588C28.213,307.148,32.131,312.907,36.049,312.907C40.098,312.907,44.147,308.862,48.196,308.862C52.115,308.862,56.033,316.265,59.952,316.265C64.001,316.265,68.05,312.335,72.099,310.312C76.148,308.29,80.197,304.13,84.246,304.13C87.903,304.13,91.56,309.32,95.217,309.32C99.266,309.32,103.315,308.964,107.364,308.251C111.283,307.562,115.201,298.943,119.12,296.727C123.169,294.438,127.218,295.582,131.267,293.293C135.185,291.077,139.104,270.855,143.022,270.855C147.071,270.855,151.12,275.434,155.169,275.434C159.218,275.434,163.267,275.383,167.316,275.281C171.234,275.183,175.153,266.699,179.071,265.665C183.12,264.596,187.169,264.062,191.218,264.062C195.137,264.062,199.055,264.52,202.974,264.52C207.023,264.52,211.072,245.288,215.121,245.288C219.17,245.288,223.219,249.991,227.268,253.072C230.925,255.855,234.582,262.612,238.239,262.612C242.288,262.612,246.337,253.377,250.386,253.377C254.305,253.377,258.223,269.57,262.142,270.702C266.191,271.872,270.24,271.315,274.289,272.457C278.207,273.563,282.125,275.897,286.044,277.342C290.093,278.835,294.142,281.234,298.191,281.234C302.24,281.234,306.289,278.41,310.338,278.41C314.256,278.41,318.175,283.611,322.093,286.042C326.142,288.554,330.191,293.216,334.24,293.216C338.159,293.216,342.077,292.53,345.995,292.53C350.045,292.53,354.094,306.025,358.143,310.617C362.192,315.209,366.241,320.081,370.29,320.081C374.077,320.081,377.865,313.365,381.653,313.365C385.702,313.365,389.751,321.76,393.8,321.76C397.718,321.76,401.637,308.404,405.555,308.404C409.604,308.404,413.653,309.625,417.702,309.625C421.621,309.625,425.539,309.498,429.458,309.244C433.507,308.981,437.556,304.359,441.605,302.909C445.654,301.459,449.703,300.543,453.752,300.543C457.67,300.543,461.589,302.985,465.507,302.985C469.556,302.985,473.605,302.833,477.654,302.833C481.572,302.833,485.491,307.815,489.409,309.473C493.458,311.185,497.507,312.831,501.556,312.831C505.605,312.831,509.654,308.738,513.703,308.175C517.361,307.666,521.018,307.412,524.675,307.412C528.724,307.412,532.773,308.175,536.822,308.175C540.74,308.175,544.659,306.954,548.577,306.954C552.626,306.954,556.675,307.31,560.724,308.023C564.643,308.712,568.561,315.944,572.479,318.478C576.529,321.097,580.578,322.192,584.627,323.287"/></g><g class="series"><clipPath id="clip-0-5"><rect width="608.5288555155952" x="0" y="37.9" height="422.5597155560534"/></clipPath><path class="outline" opacity="1" pointer-events="none" fill="none" stroke-width="0" transform="translate(44.2544757832329,0)" clip-path="url(#clip-0-5)" clip-path-id="0-5" d="M12.147,302.07C16.196,302.07,20.245,302.07,24.294,302.07C28.213,302.07,32.131,306.42,36.049,306.42C40.098,306.42,44.147,304.283,48.196,304.283C52.115,304.283,56.033,304.283,59.952,304.283C64.001,304.283,68.05,304.334,72.099,304.436C76.148,304.537,80.197,307.224,84.246,308.786C87.903,310.196,91.56,312.02,95.217,313.289C99.266,314.693,103.315,316.647,107.364,316.647C111.283,316.647,115.201,316.469,119.12,316.112C123.169,315.744,127.218,310.523,131.267,308.404C135.185,306.354,139.104,306.776,143.022,303.52C147.071,300.155,151.12,287.264,155.169,282.684C159.218,278.105,163.267,278.825,167.316,275.816C171.234,272.903,175.153,266.975,179.071,265.054C183.12,263.07,187.169,262.078,191.218,262.078C195.137,262.078,199.055,268.031,202.974,268.031C207.023,268.031,211.072,265.334,215.121,262.46C219.17,259.585,223.219,254.568,227.268,250.783C230.925,247.363,234.582,243.539,238.239,240.785C242.288,237.735,246.337,233.763,250.386,233.763C254.305,233.763,258.223,235.094,262.142,235.671C266.191,236.268,270.24,237.274,274.289,237.274C278.207,237.274,282.125,234.221,286.044,234.221C290.093,234.221,294.142,248.773,298.191,252.843C302.24,256.914,306.289,258.949,310.338,258.949C314.256,258.949,318.175,252.805,322.093,249.409C326.142,245.9,330.191,240.764,334.24,238.19C338.159,235.699,342.077,233.992,345.995,233.992C350.045,233.992,354.094,241.701,358.143,244.906C362.192,248.111,366.241,249.215,370.29,253.225C374.077,256.976,377.865,263.664,381.653,267.726C385.702,272.067,389.751,274.774,393.8,278.105C397.718,281.329,401.637,286.431,405.555,287.416C409.604,288.434,413.653,287.925,417.702,288.943C421.621,289.927,425.539,295.964,429.458,295.964C433.507,295.964,437.556,292.682,441.605,292.682C445.654,292.682,449.703,292.708,453.752,292.759C457.67,292.808,461.589,307.06,465.507,312.907C469.556,318.949,473.605,327.722,477.654,328.247C481.572,328.756,485.491,328.518,489.409,329.011C493.458,329.519,497.507,330.384,501.556,331.3C505.605,332.216,509.654,332.948,513.703,334.506C517.361,335.913,521.018,339.924,524.675,339.924C528.724,339.924,532.773,339.924,536.822,339.924C540.74,339.924,544.659,340.921,548.577,342.29C552.626,343.705,556.675,346.994,560.724,348.396C564.643,349.752,568.561,349.946,572.479,350.685C576.529,351.449,580.578,352.174,584.627,352.899"/><path class="line" opacity="1" pointer-events="none" fill="none" stroke="#d7d8d6" stroke-width="1.4000000000000001" transform="translate(44.2544757832329,0)" clip-path="url(#clip-0-5)" clip-path-id="0-5" d="M12.147,302.07C16.196,302.07,20.245,302.07,24.294,302.07C28.213,302.07,32.131,306.42,36.049,306.42C40.098,306.42,44.147,304.283,48.196,304.283C52.115,304.283,56.033,304.283,59.952,304.283C64.001,304.283,68.05,304.334,72.099,304.436C76.148,304.537,80.197,307.224,84.246,308.786C87.903,310.196,91.56,312.02,95.217,313.289C99.266,314.693,103.315,316.647,107.364,316.647C111.283,316.647,115.201,316.469,119.12,316.112C123.169,315.744,127.218,310.523,131.267,308.404C135.185,306.354,139.104,306.776,143.022,303.52C147.071,300.155,151.12,287.264,155.169,282.684C159.218,278.105,163.267,278.825,167.316,275.816C171.234,272.903,175.153,266.975,179.071,265.054C183.12,263.07,187.169,262.078,191.218,262.078C195.137,262.078,199.055,268.031,202.974,268.031C207.023,268.031,211.072,265.334,215.121,262.46C219.17,259.585,223.219,254.568,227.268,250.783C230.925,247.363,234.582,243.539,238.239,240.785C242.288,237.735,246.337,233.763,250.386,233.763C254.305,233.763,258.223,235.094,262.142,235.671C266.191,236.268,270.24,237.274,274.289,237.274C278.207,237.274,282.125,234.221,286.044,234.221C290.093,234.221,294.142,248.773,298.191,252.843C302.24,256.914,306.289,258.949,310.338,258.949C314.256,258.949,318.175,252.805,322.093,249.409C326.142,245.9,330.191,240.764,334.24,238.19C338.159,235.699,342.077,233.992,345.995,233.992C350.045,233.992,354.094,241.701,358.143,244.906C362.192,248.111,366.241,249.215,370.29,253.225C374.077,256.976,377.865,263.664,381.653,267.726C385.702,272.067,389.751,274.774,393.8,278.105C397.718,281.329,401.637,286.431,405.555,287.416C409.604,288.434,413.653,287.925,417.702,288.943C421.621,289.927,425.539,295.964,429.458,295.964C433.507,295.964,437.556,292.682,441.605,292.682C445.654,292.682,449.703,292.708,453.752,292.759C457.67,292.808,461.589,307.06,465.507,312.907C469.556,318.949,473.605,327.722,477.654,328.247C481.572,328.756,485.491,328.518,489.409,329.011C493.458,329.519,497.507,330.384,501.556,331.3C505.605,332.216,509.654,332.948,513.703,334.506C517.361,335.913,521.018,339.924,524.675,339.924C528.724,339.924,532.773,339.924,536.822,339.924C540.74,339.924,544.659,340.921,548.577,342.29C552.626,343.705,556.675,346.994,560.724,348.396C564.643,349.752,568.561,349.946,572.479,350.685C576.529,351.449,580.578,352.174,584.627,352.899"/></g><g class="series"><clipPath id="clip-0-6"><rect width="608.5288555155952" x="0" y="37.9" height="422.5597155560534"/></clipPath><path class="outline" opacity="1" pointer-events="none" fill="none" stroke-width="0" transform="translate(44.2544757832329,0)" clip-path="url(#clip-0-6)" clip-path-id="0-6" d="M12.147,182.705C16.196,178.012,20.245,173.318,24.294,173.318C28.213,173.318,32.131,184.377,36.049,184.918C40.098,185.478,44.147,185.567,48.196,185.758C52.115,185.943,56.033,186.063,59.952,186.063C64.001,186.063,68.05,169.578,72.099,169.578C76.148,169.578,80.197,170.469,84.246,172.249C87.903,173.858,91.56,193.772,95.217,193.772C99.266,193.772,103.315,190.108,107.364,182.782C111.283,175.691,115.201,154.105,119.12,139.89C123.169,125.2,127.218,108.14,131.267,96.082C135.185,84.413,139.104,74.712,143.022,68.225C147.071,61.522,151.12,57.083,155.169,57.083C159.218,57.083,163.267,106.939,167.316,122.26C171.234,137.086,175.153,144.311,179.071,148.743C183.12,153.322,187.169,151.306,191.218,155.612C195.137,159.778,199.055,165.904,202.974,173.776C207.023,181.91,211.072,196.799,215.121,203.998C219.17,211.198,223.219,213.751,227.268,216.973C230.925,219.883,234.582,218.983,238.239,223.002C242.288,227.452,246.337,244.509,250.386,268.412C254.305,291.545,258.223,337.757,262.142,362.439C266.191,387.943,270.24,404.19,274.289,417.618C278.207,430.613,282.125,439.007,286.044,442.651C290.093,446.416,294.142,448.299,298.191,448.299C302.24,448.299,306.289,414.293,310.338,404.109C314.256,394.255,318.175,389.387,322.093,387.319C326.142,385.182,330.191,384.114,334.24,384.114C338.159,384.114,342.077,389.38,345.995,389.38C350.045,389.38,354.094,386.022,358.143,385.106C362.192,384.19,366.241,384.648,370.29,383.732C374.077,382.875,377.865,374.345,381.653,374.345C385.702,374.345,389.751,381.824,393.8,381.824C397.718,381.824,401.637,366.777,405.555,362.133C409.604,357.335,413.653,356.738,417.702,353.891C421.621,351.135,425.539,345.835,429.458,345.343C433.507,344.834,437.556,344.58,441.605,344.58C445.654,344.58,449.703,344.951,453.752,345.343C457.67,345.723,461.589,346.869,465.507,346.869C469.556,346.869,473.605,345.343,477.654,342.29C481.572,339.336,485.491,329.919,489.409,327.408C493.458,324.813,497.507,323.515,501.556,323.515C505.605,323.515,509.654,325.972,513.703,326.645C517.361,327.252,521.018,327.56,524.675,327.56C528.724,327.56,532.773,312,536.822,307.794C540.74,303.723,544.659,303.776,548.577,301.688C552.626,299.531,556.675,295.048,560.724,295.048C564.643,295.048,568.561,309.396,572.479,309.396C576.529,309.396,580.578,308.671,584.627,307.946"/><path class="line" opacity="1" pointer-events="none" fill="none" stroke="Green" stroke-width="1.4000000000000001" transform="translate(44.2544757832329,0)" clip-path="url(#clip-0-6)" clip-path-id="0-6" d="M12.147,182.705C16.196,178.012,20.245,173.318,24.294,173.318C28.213,173.318,32.131,184.377,36.049,184.918C40.098,185.478,44.147,185.567,48.196,185.758C52.115,185.943,56.033,186.063,59.952,186.063C64.001,186.063,68.05,169.578,72.099,169.578C76.148,169.578,80.197,170.469,84.246,172.249C87.903,173.858,91.56,193.772,95.217,193.772C99.266,193.772,103.315,190.108,107.364,182.782C111.283,175.691,115.201,154.105,119.12,139.89C123.169,125.2,127.218,108.14,131.267,96.082C135.185,84.413,139.104,74.712,143.022,68.225C147.071,61.522,151.12,57.083,155.169,57.083C159.218,57.083,163.267,106.939,167.316,122.26C171.234,137.086,175.153,144.311,179.071,148.743C183.12,153.322,187.169,151.306,191.218,155.612C195.137,159.778,199.055,165.904,202.974,173.776C207.023,181.91,211.072,196.799,215.121,203.998C219.17,211.198,223.219,213.751,227.268,216.973C230.925,219.883,234.582,218.983,238.239,223.002C242.288,227.452,246.337,244.509,250.386,268.412C254.305,291.545,258.223,337.757,262.142,362.439C266.191,387.943,270.24,404.19,274.289,417.618C278.207,430.613,282.125,439.007,286.044,442.651C290.093,446.416,294.142,448.299,298.191,448.299C302.24,448.299,306.289,414.293,310.338,404.109C314.256,394.255,318.175,389.387,322.093,387.319C326.142,385.182,330.191,384.114,334.24,384.114C338.159,384.114,342.077,389.38,345.995,389.38C350.045,389.38,354.094,386.022,358.143,385.106C362.192,384.19,366.241,384.648,370.29,383.732C374.077,382.875,377.865,374.345,381.653,374.345C385.702,374.345,389.751,381.824,393.8,381.824C397.718,381.824,401.637,366.777,405.555,362.133C409.604,357.335,413.653,356.738,417.702,353.891C421.621,351.135,425.539,345.835,429.458,345.343C433.507,344.834,437.556,344.58,441.605,344.58C445.654,344.58,449.703,344.951,453.752,345.343C457.67,345.723,461.589,346.869,465.507,346.869C469.556,346.869,473.605,345.343,477.654,342.29C481.572,339.336,485.491,329.919,489.409,327.408C493.458,324.813,497.507,323.515,501.556,323.515C505.605,323.515,509.654,325.972,513.703,326.645C517.361,327.252,521.018,327.56,524.675,327.56C528.724,327.56,532.773,312,536.822,307.794C540.74,303.723,544.659,303.776,548.577,301.688C552.626,299.531,556.675,295.048,560.724,295.048C564.643,295.048,568.561,309.396,572.479,309.396C576.529,309.396,580.578,308.671,584.627,307.946"/></g><g class="series"><clipPath id="clip-0-7"><rect width="608.5288555155952" x="0" y="37.9" height="422.5597155560534"/></clipPath><path class="outline" opacity="1" pointer-events="none" fill="none" stroke-width="0" transform="translate(44.2544757832329,0)" clip-path="url(#clip-0-7)" clip-path-id="0-7" d="M12.147,362.362C16.196,361.523,20.245,360.683,24.294,360.683C28.213,360.683,32.131,361.141,36.049,362.057C40.098,363.003,44.147,374.039,48.196,374.039C52.115,374.039,56.033,353.586,59.952,353.586C64.001,353.586,68.05,359.615,72.099,359.615C76.148,359.615,80.197,358.57,84.246,356.791C87.903,355.184,91.56,349.922,95.217,349.922C99.266,349.922,103.315,349.999,107.364,349.999C111.283,349.999,115.201,328.629,119.12,328.629C123.169,328.629,127.218,337.176,131.267,341.68C135.185,346.038,139.104,355.188,143.022,355.188C147.071,355.188,151.12,355.163,155.169,355.112C159.218,355.061,163.267,349.892,167.316,346.488C171.234,343.193,175.153,337.745,179.071,335.116C183.12,332.4,187.169,330.69,191.218,330.69C195.137,330.69,199.055,332.75,202.974,332.75C207.023,332.75,211.072,317.563,215.121,317.563C219.17,317.563,223.219,321.607,227.268,321.607C230.925,321.607,234.582,304.283,238.239,304.283C242.288,304.283,246.337,308.633,250.386,317.334C254.305,325.753,258.223,370.3,262.142,370.3C266.191,370.3,270.24,343.345,274.289,335.879C278.207,328.654,282.125,328.089,286.044,325.042C290.093,321.894,294.142,322.498,298.191,317.41C302.24,312.322,306.289,299.614,310.338,293.216C314.256,287.025,318.175,285.203,322.093,279.326C326.142,273.254,330.191,258.432,334.24,257.117C338.159,255.845,342.077,255.209,345.995,255.209C350.045,255.209,354.094,259.737,358.143,267.191C362.192,274.645,366.241,290.976,370.29,299.933C374.077,308.311,377.865,319.928,381.653,319.928C385.702,319.928,389.751,313.121,393.8,309.549C397.718,306.092,401.637,298.864,405.555,298.864C409.604,298.864,413.653,307.887,417.702,313.06C421.621,318.065,425.539,328.528,429.458,329.316C433.507,330.13,437.556,330.537,441.605,330.537C445.654,330.537,449.703,321.836,453.752,321.836C457.67,321.836,461.589,326.568,465.507,326.568C469.556,326.568,473.605,324.144,477.654,320.921C481.572,317.801,485.491,307.794,489.409,307.794C493.458,307.794,497.507,328.782,501.556,328.782C505.605,328.782,509.654,298.766,513.703,292.682C517.361,287.187,521.018,284.44,524.675,284.44C528.724,284.44,532.773,288.485,536.822,288.485C540.74,288.485,544.659,241.319,548.577,241.319C552.626,241.319,556.675,242.108,560.724,243.685C564.643,245.211,568.561,266.896,572.479,271.771C576.529,276.808,580.578,278.067,584.627,279.326"/><path class="line" opacity="1" pointer-events="none" fill="none" stroke="#d6d8d9" stroke-width="1.4000000000000001" transform="translate(44.2544757832329,0)" clip-path="url(#clip-0-7)" clip-path-id="0-7" d="M12.147,362.362C16.196,361.523,20.245,360.683,24.294,360.683C28.213,360.683,32.131,361.141,36.049,362.057C40.098,363.003,44.147,374.039,48.196,374.039C52.115,374.039,56.033,353.586,59.952,353.586C64.001,353.586,68.05,359.615,72.099,359.615C76.148,359.615,80.197,358.57,84.246,356.791C87.903,355.184,91.56,349.922,95.217,349.922C99.266,349.922,103.315,349.999,107.364,349.999C111.283,349.999,115.201,328.629,119.12,328.629C123.169,328.629,127.218,337.176,131.267,341.68C135.185,346.038,139.104,355.188,143.022,355.188C147.071,355.188,151.12,355.163,155.169,355.112C159.218,355.061,163.267,349.892,167.316,346.488C171.234,343.193,175.153,337.745,179.071,335.116C183.12,332.4,187.169,330.69,191.218,330.69C195.137,330.69,199.055,332.75,202.974,332.75C207.023,332.75,211.072,317.563,215.121,317.563C219.17,317.563,223.219,321.607,227.268,321.607C230.925,321.607,234.582,304.283,238.239,304.283C242.288,304.283,246.337,308.633,250.386,317.334C254.305,325.753,258.223,370.3,262.142,370.3C266.191,370.3,270.24,343.345,274.289,335.879C278.207,328.654,282.125,328.089,286.044,325.042C290.093,321.894,294.142,322.498,298.191,317.41C302.24,312.322,306.289,299.614,310.338,293.216C314.256,287.025,318.175,285.203,322.093,279.326C326.142,273.254,330.191,258.432,334.24,257.117C338.159,255.845,342.077,255.209,345.995,255.209C350.045,255.209,354.094,259.737,358.143,267.191C362.192,274.645,366.241,290.976,370.29,299.933C374.077,308.311,377.865,319.928,381.653,319.928C385.702,319.928,389.751,313.121,393.8,309.549C397.718,306.092,401.637,298.864,405.555,298.864C409.604,298.864,413.653,307.887,417.702,313.06C421.621,318.065,425.539,328.528,429.458,329.316C433.507,330.13,437.556,330.537,441.605,330.537C445.654,330.537,449.703,321.836,453.752,321.836C457.67,321.836,461.589,326.568,465.507,326.568C469.556,326.568,473.605,324.144,477.654,320.921C481.572,317.801,485.491,307.794,489.409,307.794C493.458,307.794,497.507,328.782,501.556,328.782C505.605,328.782,509.654,298.766,513.703,292.682C517.361,287.187,521.018,284.44,524.675,284.44C528.724,284.44,532.773,288.485,536.822,288.485C540.74,288.485,544.659,241.319,548.577,241.319C552.626,241.319,556.675,242.108,560.724,243.685C564.643,245.211,568.561,266.896,572.479,271.771C576.529,276.808,580.578,278.067,584.627,279.326"/></g><g class="series"><clipPath id="clip-0-8"><rect width="608.5288555155952" x="0" y="37.9" height="422.5597155560534"/></clipPath><path class="outline" opacity="1" pointer-events="none" fill="none" stroke-width="0" transform="translate(44.2544757832329,0)" clip-path="url(#clip-0-8)" clip-path-id="0-8" d="M12.147,301.612C16.196,307.183,20.245,312.754,24.294,312.754C28.213,312.754,32.131,289.095,36.049,289.095C40.098,289.095,44.147,324.126,48.196,324.126C52.115,324.126,56.033,322.93,59.952,320.539C64.001,318.068,68.05,278.563,72.099,278.563C76.148,278.563,80.197,281.234,84.246,286.577C87.903,291.402,91.56,314.03,95.217,323.363C99.266,333.695,103.315,343.588,107.364,343.588C111.283,343.588,115.201,324.553,119.12,317.639C123.169,310.494,127.218,308.067,131.267,301.764C135.185,295.665,139.104,285.252,143.022,280.624C147.071,275.841,151.12,276.21,155.169,273.45C159.218,270.689,163.267,264.062,167.316,264.062C171.234,264.062,175.153,314.891,179.071,314.891C183.12,314.891,187.169,287.937,191.218,276.884C195.137,266.187,199.055,256.143,202.974,249.332C207.023,242.295,211.072,239.869,215.121,235.824C219.17,231.779,223.219,232.237,227.268,225.063C230.925,218.583,234.582,197.612,238.239,188.2C242.288,177.78,246.337,167.518,250.386,167.518C254.305,167.518,258.223,185.376,262.142,185.376C266.191,185.376,270.24,185.147,274.289,185.147C278.207,185.147,282.125,198.339,286.044,203.769C290.093,209.381,294.142,214.162,298.191,218.118C302.24,222.074,306.289,227.505,310.338,227.505C314.256,227.505,318.175,165.043,322.093,164.846C326.142,164.643,330.191,164.541,334.24,164.541C338.159,164.541,342.077,197.416,345.995,211.249C350.045,225.543,354.094,238.342,358.143,248.569C362.192,258.796,366.241,263.903,370.29,272.61C374.077,280.755,377.865,298.864,381.653,298.864C385.702,298.864,389.751,290.396,393.8,288.714C397.718,287.085,401.637,286.271,405.555,286.271C409.604,286.271,413.653,303.311,417.702,308.633C421.621,313.784,425.539,318.097,429.458,318.097C433.507,318.097,437.556,315.324,441.605,311.075C445.654,306.827,449.703,292.606,453.752,292.606C457.67,292.606,461.589,314.861,465.507,326.645C469.556,338.821,473.605,364.576,477.654,364.576C481.572,364.576,485.491,341.749,489.409,340.764C493.458,339.746,497.507,340.255,501.556,339.237C505.605,338.22,509.654,335.067,513.703,331.453C517.361,328.188,521.018,322.571,524.675,319.165C528.724,315.394,532.773,316.24,536.822,310.388C540.74,304.726,544.659,277.49,548.577,265.97C552.626,254.066,556.675,246.305,560.724,240.785C564.643,235.442,568.561,232.771,572.479,232.771C576.529,232.771,580.578,253.148,584.627,273.526"/><path class="line" opacity="1" pointer-events="none" fill="none" stroke="#d9d8d6" stroke-width="1.4000000000000001" transform="translate(44.2544757832329,0)" clip-path="url(#clip-0-8)" clip-path-id="0-8" d="M12.147,301.612C16.196,307.183,20.245,312.754,24.294,312.754C28.213,312.754,32.131,289.095,36.049,289.095C40.098,289.095,44.147,324.126,48.196,324.126C52.115,324.126,56.033,322.93,59.952,320.539C64.001,318.068,68.05,278.563,72.099,278.563C76.148,278.563,80.197,281.234,84.246,286.577C87.903,291.402,91.56,314.03,95.217,323.363C99.266,333.695,103.315,343.588,107.364,343.588C111.283,343.588,115.201,324.553,119.12,317.639C123.169,310.494,127.218,308.067,131.267,301.764C135.185,295.665,139.104,285.252,143.022,280.624C147.071,275.841,151.12,276.21,155.169,273.45C159.218,270.689,163.267,264.062,167.316,264.062C171.234,264.062,175.153,314.891,179.071,314.891C183.12,314.891,187.169,287.937,191.218,276.884C195.137,266.187,199.055,256.143,202.974,249.332C207.023,242.295,211.072,239.869,215.121,235.824C219.17,231.779,223.219,232.237,227.268,225.063C230.925,218.583,234.582,197.612,238.239,188.2C242.288,177.78,246.337,167.518,250.386,167.518C254.305,167.518,258.223,185.376,262.142,185.376C266.191,185.376,270.24,185.147,274.289,185.147C278.207,185.147,282.125,198.339,286.044,203.769C290.093,209.381,294.142,214.162,298.191,218.118C302.24,222.074,306.289,227.505,310.338,227.505C314.256,227.505,318.175,165.043,322.093,164.846C326.142,164.643,330.191,164.541,334.24,164.541C338.159,164.541,342.077,197.416,345.995,211.249C350.045,225.543,354.094,238.342,358.143,248.569C362.192,258.796,366.241,263.903,370.29,272.61C374.077,280.755,377.865,298.864,381.653,298.864C385.702,298.864,389.751,290.396,393.8,288.714C397.718,287.085,401.637,286.271,405.555,286.271C409.604,286.271,413.653,303.311,417.702,308.633C421.621,313.784,425.539,318.097,429.458,318.097C433.507,318.097,437.556,315.324,441.605,311.075C445.654,306.827,449.703,292.606,453.752,292.606C457.67,292.606,461.589,314.861,465.507,326.645C469.556,338.821,473.605,364.576,477.654,364.576C481.572,364.576,485.491,341.749,489.409,340.764C493.458,339.746,497.507,340.255,501.556,339.237C505.605,338.22,509.654,335.067,513.703,331.453C517.361,328.188,521.018,322.571,524.675,319.165C528.724,315.394,532.773,316.24,536.822,310.388C540.74,304.726,544.659,277.49,548.577,265.97C552.626,254.066,556.675,246.305,560.724,240.785C564.643,235.442,568.561,232.771,572.479,232.771C576.529,232.771,580.578,253.148,584.627,273.526"/></g><g class="fl-label" transform="translate(628.8810388413578,258.26193162369407)" font-size="14" font-weight="700" opacity="1" aria-hidden="true"><path fill="none" d="" stroke-width="0.075rem" stroke="#aaaaaa"/><text class="bg" transform="translate(9.1,4.62)" text-anchor="start"><tspan x="0" fill="none" stroke="rgb(255, 255, 255)" stroke-width="3.5" dy="0">Meat</tspan></text><text class="fg" transform="translate(9.1,4.62)" text-anchor="start"><tspan x="0" fill="rgb(0, 128, 0)" dy="0">Meat</tspan></text></g><g class="fl-label" transform="translate(628.8810388413578,307.9462179558742)" font-size="14" font-weight="700" opacity="1" aria-hidden="true"><path fill="none" d="" stroke-width="0.075rem" stroke="#aaaaaa"/><text class="bg" transform="translate(9.1,4.62)" text-anchor="start"><tspan x="0" fill="none" stroke="rgb(255, 255, 255)" stroke-width="3.5" dy="0">Oils and fats</tspan></text><text class="fg" transform="translate(9.1,4.62)" text-anchor="start"><tspan x="0" fill="rgb(0, 128, 0)" dy="0">Oils and fats</tspan></text></g></g><g id="data-points"><g class="series" transform="translate(44.2544757832329,0)" clip-path="url(#clip-data-points-0)"><clipPath id="clip-data-points-0"><rect x="-3.5" y="37.9" height="421.15971555605336" width="612.0288555155952"/></clipPath></g><g class="series" transform="translate(44.2544757832329,0)" clip-path="url(#clip-data-points-1)"><clipPath id="clip-data-points-1"><rect x="-3.5" y="37.9" height="421.15971555605336" width="612.0288555155952"/></clipPath></g><g class="series" transform="translate(44.2544757832329,0)" clip-path="url(#clip-data-points-2)"><clipPath id="clip-data-points-2"><rect x="-3.5" y="37.9" height="421.15971555605336" width="612.0288555155952"/></clipPath></g><g class="series" transform="translate(44.2544757832329,0)" clip-path="url(#clip-data-points-3)"><clipPath id="clip-data-points-3"><rect x="-3.5" y="37.9" height="421.15971555605336" width="612.0288555155952"/></clipPath></g><g class="series" transform="translate(44.2544757832329,0)" clip-path="url(#clip-data-points-4)"><clipPath id="clip-data-points-4"><rect x="-3.5" y="37.9" height="421.15971555605336" width="612.0288555155952"/></clipPath></g><g class="series" transform="translate(44.2544757832329,0)" clip-path="url(#clip-data-points-5)"><clipPath id="clip-data-points-5"><rect x="-3.5" y="37.9" height="421.15971555605336" width="612.0288555155952"/></clipPath></g><g class="series" transform="translate(44.2544757832329,0)" clip-path="url(#clip-data-points-6)"><clipPath id="clip-data-points-6"><rect x="-3.5" y="37.9" height="421.15971555605336" width="612.0288555155952"/></clipPath></g><g class="series" transform="translate(44.2544757832329,0)" clip-path="url(#clip-data-points-7)"><clipPath id="clip-data-points-7"><rect x="-3.5" y="37.9" height="421.15971555605336" width="612.0288555155952"/></clipPath></g><g class="series" transform="translate(44.2544757832329,0)" clip-path="url(#clip-data-points-8)"><clipPath id="clip-data-points-8"><rect x="-3.5" y="37.9" height="421.15971555605336" width="612.0288555155952"/></clipPath></g></g><g id="lines-secondary"/><g id="data-points-secondary"/><g id="data-point-labels"><g class="series" transform="translate(44.2544757832329,0)" clip-path="url(#clip-data-points-0)"/><g class="series" transform="translate(44.2544757832329,0)" clip-path="url(#clip-data-points-1)"/><g class="series" transform="translate(44.2544757832329,0)" clip-path="url(#clip-data-points-2)"/><g class="series" transform="translate(44.2544757832329,0)" clip-path="url(#clip-data-points-3)"/><g class="series" transform="translate(44.2544757832329,0)" clip-path="url(#clip-data-points-4)"/><g class="series" transform="translate(44.2544757832329,0)" clip-path="url(#clip-data-points-5)"/><g class="series" transform="translate(44.2544757832329,0)" clip-path="url(#clip-data-points-6)"/><g class="series" transform="translate(44.2544757832329,0)" clip-path="url(#clip-data-points-7)"/><g class="series" transform="translate(44.2544757832329,0)" clip-path="url(#clip-data-points-8)"/></g><g id="stack-labels"/><g class="annotations above"><g id="axes-highlights"><g class="axis-highlights-facet"><defs><pattern class="fl-pattern-auto" width="4" height="4" patternUnits="userSpaceOnUse" id="fl-pattern-diagonal-x"><path stroke-width="1" shape-rendering="auto" stroke-linecap="square" d="M 0 4 l 4 -4 M -1 1 l 2 -2 M 3 5 l 2 -2" style="stroke: currentcolor;"/></pattern><pattern class="fl-pattern-auto" width="4" height="4" patternUnits="userSpaceOnUse" id="fl-pattern-dots-x"><path stroke-width="1" shape-rendering="auto" stroke-linecap="square" d="M 1 2 A 1.2 1.2 0 1 1 1 2.1 Z" style="fill: currentcolor;"/></pattern><pattern class="fl-pattern-auto" width="4" height="4" patternUnits="userSpaceOnUse" id="fl-pattern-grid-x"><path stroke-width="1" shape-rendering="auto" stroke-linecap="square" d="M 2 0 l 0 4 M 0 2 l 4 0" style="stroke: currentcolor;"/></pattern><pattern class="fl-pattern-auto" width="4" height="4" patternUnits="userSpaceOnUse" id="fl-pattern-diagonal-y"><path stroke-width="1" shape-rendering="auto" stroke-linecap="square" d="M 0 4 l 4 -4 M -1 1 l 2 -2 M 3 5 l 2 -2" style="stroke: currentcolor;"/></pattern><pattern class="fl-pattern-auto" width="4" height="4" patternUnits="userSpaceOnUse" id="fl-pattern-grid-y"><path stroke-width="1" shape-rendering="auto" stroke-linecap="square" d="M 2 0 l 0 4 M 0 2 l 4 0" style="stroke: currentcolor;"/></pattern><pattern class="fl-pattern-auto" width="4" height="4" patternUnits="userSpaceOnUse" id="fl-pattern-dots-y"><path stroke-width="1" shape-rendering="auto" stroke-linecap="square" d="M 1 2 A 1.2 1.2 0 1 1 1 2.1 Z" style="fill: currentcolor;"/></pattern></defs><g class="axis-highlights" style="opacity: 1;" transform="translate(44.25447463989258, 0)"><g class="line x" pointer-events="none" transform="translate(59.9516515736549, 39.3)" style="opacity: 1;"><line stroke-dasharray="2 2" stroke="currentColor" stroke-width="2" y2="419.7597155560534"/><text transform="translate(6.3, 15.12)" text-anchor="start" font-size="12.6" fill="currentColor"><tspan class="bg-label" y="0px" x="0" font-weight="regular" display="block" fill="none" stroke-width="2">December</tspan><tspan class="bg-label" y="15.12px" x="0" font-weight="regular" display="block" fill="none" stroke-width="2">2021</tspan><tspan class="fg-label" y="0px" x="0" font-weight="regular">December</tspan><tspan class="fg-label" y="15.12px" x="0" font-weight="regular">2021</tspan></text></g></g></g></g></g></svg><svg xmlns="http://www.w3.org/2000/svg" id="fl-layout-svg-screenshot-container" class="flourish-screenshot-svg-container" style="left: 0px; top: 0px; width: 794px; height: 541px; position: absolute;" x="0" y="0"><text style="dominant-baseline: text-before-edge;" x="0px" y="0px" font-family="Canva Sans Variable" font-size="28px" font-weight="700" fill="rgb(51, 51, 51)"><tspan dy="0" dx="0" x="0" opacity="1"/></text><text style="dominant-baseline: text-before-edge;" x="0px" y="0px" font-family="Canva Sans Variable" font-size="19.6px" font-weight="400" fill="rgb(51, 51, 51)"><tspan dy="0" dx="0" x="0" opacity="1"/></text><text style="dominant-baseline: text-before-edge;" x="0px" y="0px" font-family="Canva Sans Variable" font-size="16.8px" font-weight="400" fill="rgb(51, 51, 51)"><tspan dy="0" dx="0" x="0" opacity="1"/></text><text style="dominant-baseline: text-before-edge;" x="0px" y="0px" font-family="Canva Sans Variable" font-size="14px" font-weight="400" fill="rgb(51, 51, 51)"><tspan dy="0" dx="0" x="0" opacity="1"/></text></svg></svg>