<svg xmlns='http://www.w3.org/2000/svg' version='1.1' width='1246px' height='1812px'><svg xmlns="http://www.w3.org/2000/svg" style="position: fixed; left: 1000vw;" x="12460" y="0"><text/></svg><svg xmlns="http://www.w3.org/2000/svg" id="graphic" fill="currentColor" font-family="Canva Sans Variable" width="1222" height="1788" class="ready" x="12" y="12"><g class="facets"><g class="fl-facets"><g class="fl-facet" transform="translate(49.68741226196289, 0)" opacity="1"><rect class="fl-facet-rect" width="1172.3125863953442" height="1718.2882990245862" fill="none"/><rect class="fl-facet-primary-rect" width="1172.3125863953442" height="1718.2882990245862" y="0" fill="none"/><style><g class="fl-facet-title"><rect class="fl-facet-title-bg" height="0" width="0" fill="rgb(238, 238, 238)" x="0" opacity="0"/><text class="fl-facet-title-text" font-size="16" font-weight="600" transform="translate(0, 16.799999237060547)" opacity="0" text-anchor="start"><tspan x="0" y="0" dx="0" text-anchor="start"/></text></g><g class="fl-facet-primary" transform="translate(0, 0)"><g class="fl-chart ready"><rect class="fl-chart-debug-rectangle" x="0" y="0" style="stroke-width: 1px; fill: none; display: none; stroke: red;" width="1172.3125863953442" height="1718.2882990245862"/><clipPath class="fl-data-clip-path" id="fl-axes-1-clip-path"><rect x="0" y="46.2" width="1087.99592074593" height="1672.0882990245861"/></clipPath><clipPath class="fl-grid-clip-path" id="fl-axes-1-grid-clip-path"><rect x="-2" y="44.2" width="1091.99592074593" height="1676.0882990245861"/></clipPath><g class="fl-chart-background"><rect class="fl-chart-fill" x="0" y="46.2" width="1087.99592074593" height="1672.0882990245861" fill="none"/><image class="fl-chart-image" x="0" y="46.2" width="1087.99592074593" height="1672.0882990245861" preserveAspectRatio="none"/><rect class="fl-chart-interaction" style="opacity: 0;" x="0" y="46.2" width="1087.99592074593" height="1672.0882990245861"/></g><g class="fl-data-background" clip-path="url(#fl-axes-1-clip-path)"/><g class="fl-gridlines" style="pointer-events: none;" clip-path="url(#fl-axes-1-grid-clip-path)"><g class="fl-gridlines-vertical"/><g class="fl-gridlines-horizontal"><line style="shape-rendering: crispedges; opacity: 1; stroke: rgb(238, 238, 238); stroke-width: 2px;" x1="0" x2="1087.99592074593" y1="1566.2802718405328" y2="1566.2802718405328"/><line style="shape-rendering: crispedges; opacity: 1; stroke: rgb(238, 238, 238); stroke-width: 2px;" x1="0" x2="1087.99592074593" y1="1262.2642174724263" y2="1262.2642174724263"/><line style="shape-rendering: crispedges; opacity: 1; stroke: rgb(238, 238, 238); stroke-width: 2px;" x1="0" x2="1087.99592074593" y1="958.2481631043197" y2="958.2481631043197"/><line style="shape-rendering: crispedges; opacity: 1; stroke: rgb(238, 238, 238); stroke-width: 2px;" x1="0" x2="1087.99592074593" y1="654.2321087362131" y2="654.2321087362131"/><line style="shape-rendering: crispedges; opacity: 1; stroke: rgb(238, 238, 238); stroke-width: 2px;" x1="0" x2="1087.99592074593" y1="350.2160543681065" y2="350.2160543681065"/><line style="shape-rendering: crispedges; opacity: 1; stroke: rgb(238, 238, 238); stroke-width: 2px;" x1="0" x2="1087.99592074593" y1="46.2" y2="46.2"/></g></g><g class="fl-axes" aria-hidden="true"><g class="fl-x-axes"><g class="fl-axis fl-x-axis fl-bottom-axis"><g class="fl-axis-line"><line style="shape-rendering: crispedges; stroke-linecap: square; stroke-width: 2px; opacity: 1; stroke: rgb(238, 238, 238);" x1="0" y1="1718.2882990245862" y2="1718.2882990245862" x2="1087.99592074593"/></g><g class="fl-axis-ticks"><g style="opacity: 1;" transform="translate(1087.9959716796875, 1718.288330078125)"><line y2="8" style="stroke: rgb(238, 238, 238); stroke-width: 2px;"/><text text-anchor="end" transform="translate(7.467047691345215, 19.46704864501953) rotate(-45) scale(0.999999982885729,0.999999982885729)" style="user-select: none; cursor: default; fill: rgb(74, 74, 74); font-size: 16px; font-weight: normal;"><tspan x="0" dy="0">10/2025</tspan></text></g><g style="opacity: 1;" transform="translate(1023.5428466796875, 1718.288330078125)"><line y2="8" style="stroke: rgb(238, 238, 238); stroke-width: 2px;"/><text text-anchor="end" transform="translate(7.467047691345215, 19.46704864501953) rotate(-45) scale(0.999999982885729,0.999999982885729)" style="user-select: none; cursor: default; fill: rgb(74, 74, 74); font-size: 16px; font-weight: normal;"><tspan x="0" dy="0">07/2025</tspan></text></g><g style="opacity: 1;" transform="translate(959.7903442382812, 1718.288330078125)"><line y2="8" style="stroke: rgb(238, 238, 238); stroke-width: 2px;"/><text text-anchor="end" transform="translate(7.467047691345215, 19.46704864501953) rotate(-45) scale(0.999999982885729,0.999999982885729)" style="user-select: none; cursor: default; fill: rgb(74, 74, 74); font-size: 16px; font-weight: normal;"><tspan x="0" dy="0">04/2025</tspan></text></g><g style="opacity: 1;" transform="translate(896.7384033203125, 1718.288330078125)"><line y2="8" style="stroke: rgb(238, 238, 238); stroke-width: 2px;"/><text text-anchor="end" transform="translate(7.467047691345215, 19.46704864501953) rotate(-45) scale(0.999999982885729,0.999999982885729)" style="user-select: none; cursor: default; fill: rgb(74, 74, 74); font-size: 16px; font-weight: normal;"><tspan x="0" dy="0">01/2025</tspan></text></g><g style="opacity: 1;" transform="translate(832.2853393554688, 1718.288330078125)"><line y2="8" style="stroke: rgb(238, 238, 238); stroke-width: 2px;"/><text text-anchor="end" transform="translate(7.467047691345215, 19.46704864501953) rotate(-45) scale(0.999999982885729,0.999999982885729)" style="user-select: none; cursor: default; fill: rgb(74, 74, 74); font-size: 16px; font-weight: normal;"><tspan x="0" dy="0">10/2024</tspan></text></g><g style="opacity: 1;" transform="translate(767.832275390625, 1718.288330078125)"><line y2="8" style="stroke: rgb(238, 238, 238); stroke-width: 2px;"/><text text-anchor="end" transform="translate(7.467047691345215, 19.46704864501953) rotate(-45) scale(0.999999982885729,0.999999982885729)" style="user-select: none; cursor: default; fill: rgb(74, 74, 74); font-size: 16px; font-weight: normal;"><tspan x="0" dy="0">07/2024</tspan></text></g><g style="opacity: 1;" transform="translate(704.0797729492188, 1718.288330078125)"><line y2="8" style="stroke: rgb(238, 238, 238); stroke-width: 2px;"/><text text-anchor="end" transform="translate(7.467047691345215, 19.46704864501953) rotate(-45) scale(0.999999982885729,0.999999982885729)" style="user-select: none; cursor: default; fill: rgb(74, 74, 74); font-size: 16px; font-weight: normal;"><tspan x="0" dy="0">04/2024</tspan></text></g><g style="opacity: 1;" transform="translate(640.3272705078125, 1718.288330078125)"><line y2="8" style="stroke: rgb(238, 238, 238); stroke-width: 2px;"/><text text-anchor="end" transform="translate(7.467047691345215, 19.46704864501953) rotate(-45) scale(0.999999982885729,0.999999982885729)" style="user-select: none; cursor: default; fill: rgb(74, 74, 74); font-size: 16px; font-weight: normal;"><tspan x="0" dy="0">01/2024</tspan></text></g><g style="opacity: 1;" transform="translate(575.8742065429688, 1718.288330078125)"><line y2="8" style="stroke: rgb(238, 238, 238); stroke-width: 2px;"/><text text-anchor="end" transform="translate(7.467047691345215, 19.46704864501953) rotate(-45) scale(0.999999982885729,0.999999982885729)" style="user-select: none; cursor: default; fill: rgb(74, 74, 74); font-size: 16px; font-weight: normal;"><tspan x="0" dy="0">10/2023</tspan></text></g><g style="opacity: 1;" transform="translate(511.421142578125, 1718.288330078125)"><line y2="8" style="stroke: rgb(238, 238, 238); stroke-width: 2px;"/><text text-anchor="end" transform="translate(7.467047691345215, 19.46704864501953) rotate(-45) scale(0.999999982885729,0.999999982885729)" style="user-select: none; cursor: default; fill: rgb(74, 74, 74); font-size: 16px; font-weight: normal;"><tspan x="0" dy="0">07/2023</tspan></text></g><g style="opacity: 1;" transform="translate(447.66864013671875, 1718.288330078125)"><line y2="8" style="stroke: rgb(238, 238, 238); stroke-width: 2px;"/><text text-anchor="end" transform="translate(7.467047691345215, 19.46704864501953) rotate(-45) scale(0.999999982885729,0.999999982885729)" style="user-select: none; cursor: default; fill: rgb(74, 74, 74); font-size: 16px; font-weight: normal;"><tspan x="0" dy="0">04/2023</tspan></text></g><g style="opacity: 1;" transform="translate(384.6167297363281, 1718.288330078125)"><line y2="8" style="stroke: rgb(238, 238, 238); stroke-width: 2px;"/><text text-anchor="end" transform="translate(7.467047691345215, 19.46704864501953) rotate(-45) scale(0.999999982885729,0.999999982885729)" style="user-select: none; cursor: default; fill: rgb(74, 74, 74); font-size: 16px; font-weight: normal;"><tspan x="0" dy="0">01/2023</tspan></text></g><g style="opacity: 1;" transform="translate(320.16363525390625, 1718.288330078125)"><line y2="8" style="stroke: rgb(238, 238, 238); stroke-width: 2px;"/><text text-anchor="end" transform="translate(7.467047691345215, 19.46704864501953) rotate(-45) scale(0.999999982885729,0.999999982885729)" style="user-select: none; cursor: default; fill: rgb(74, 74, 74); font-size: 16px; font-weight: normal;"><tspan x="0" dy="0">10/2022</tspan></text></g><g style="opacity: 1;" transform="translate(255.7105712890625, 1718.288330078125)"><line y2="8" style="stroke: rgb(238, 238, 238); stroke-width: 2px;"/><text text-anchor="end" transform="translate(7.467047691345215, 19.46704864501953) rotate(-45) scale(0.999999982885729,0.999999982885729)" style="user-select: none; cursor: default; fill: rgb(74, 74, 74); font-size: 16px; font-weight: normal;"><tspan x="0" dy="0">07/2022</tspan></text></g><g style="opacity: 1;" transform="translate(191.95806884765625, 1718.288330078125)"><line y2="8" style="stroke: rgb(238, 238, 238); stroke-width: 2px;"/><text text-anchor="end" transform="translate(7.467047691345215, 19.46704864501953) rotate(-45) scale(0.999999982885729,0.999999982885729)" style="user-select: none; cursor: default; fill: rgb(74, 74, 74); font-size: 16px; font-weight: normal;"><tspan x="0" dy="0">04/2022</tspan></text></g><g style="opacity: 1;" transform="translate(128.90614318847656, 1718.288330078125)"><line y2="8" style="stroke: rgb(238, 238, 238); stroke-width: 2px;"/><text text-anchor="end" transform="translate(7.467047691345215, 19.46704864501953) rotate(-45) scale(0.999999982885729,0.999999982885729)" style="user-select: none; cursor: default; fill: rgb(74, 74, 74); font-size: 16px; font-weight: normal;"><tspan x="0" dy="0">01/2022</tspan></text></g><g style="opacity: 1;" transform="translate(64.45307159423828, 1718.288330078125)"><line y2="8" style="stroke: rgb(238, 238, 238); stroke-width: 2px;"/><text text-anchor="end" transform="translate(7.467047691345215, 19.46704864501953) rotate(-45) scale(0.999999982885729,0.999999982885729)" style="user-select: none; cursor: default; fill: rgb(74, 74, 74); font-size: 16px; font-weight: normal;"><tspan x="0" dy="0">10/2021</tspan></text></g><g style="opacity: 1;" transform="translate(0, 1718.288330078125)"><line y2="8" style="stroke: rgb(238, 238, 238); stroke-width: 2px;"/><text text-anchor="end" transform="translate(7.467047691345215, 19.46704864501953) rotate(-45) scale(0.999999982885729,0.999999982885729)" style="user-select: none; cursor: default; fill: rgb(74, 74, 74); font-size: 16px; font-weight: normal;"><tspan x="0" dy="0">07/2021</tspan></text></g></g><g class="fl-axis-title"/></g><g class="fl-axis fl-x-axis fl-top-axis"><g class="fl-axis-line"/><g class="fl-axis-ticks"/><g class="fl-axis-title"/></g></g><g class="fl-y-axes"><g class="fl-axis fl-y-axis fl-left-axis"><g class="fl-axis-line"><line style="shape-rendering: crispedges; stroke-linecap: square; stroke-width: 2px; opacity: 1; stroke: rgb(238, 238, 238);" x1="0" x2="0" y1="1718.2882990245862" y2="46.2"/></g><g class="fl-axis-ticks"><g style="opacity: 1;" transform="translate(0, 1262.26416015625)"><line x2="-28.299999237060547" style="stroke: rgb(238, 238, 238); stroke-width: 2px;"/><text text-anchor="end" transform="translate(-17.066665649414062, 16)" style="user-select: none; cursor: default; fill: rgb(74, 74, 74); font-size: 16px; font-weight: normal;"><tspan x="0" dy="0">0</tspan></text></g><g style="opacity: 1;" transform="translate(0, 46.20000076293945)"><line x2="-28.299999237060547" style="stroke: rgb(238, 238, 238); stroke-width: 2px;"/><text text-anchor="end" transform="translate(-7.383333206176758, 16)" style="user-select: none; cursor: default; fill: rgb(74, 74, 74); font-size: 16px; font-weight: normal;"><tspan x="0" dy="0">40</tspan></text></g><g style="opacity: 1;" transform="translate(0, 350.216064453125)"><line x2="-28.299999237060547" style="stroke: rgb(238, 238, 238); stroke-width: 2px;"/><text text-anchor="end" transform="translate(-7.783332824707031, 16)" style="user-select: none; cursor: default; fill: rgb(74, 74, 74); font-size: 16px; font-weight: normal;"><tspan x="0" dy="0">30</tspan></text></g><g style="opacity: 1;" transform="translate(0, 654.2321166992188)"><line x2="-28.299999237060547" style="stroke: rgb(238, 238, 238); stroke-width: 2px;"/><text text-anchor="end" transform="translate(-8.283332824707031, 16)" style="user-select: none; cursor: default; fill: rgb(74, 74, 74); font-size: 16px; font-weight: normal;"><tspan x="0" dy="0">20</tspan></text></g><g style="opacity: 1;" transform="translate(0, 958.2481689453125)"><line x2="-28.299999237060547" style="stroke: rgb(238, 238, 238); stroke-width: 2px;"/><text text-anchor="end" transform="translate(-8.849998474121094, 16)" style="user-select: none; cursor: default; fill: rgb(74, 74, 74); font-size: 16px; font-weight: normal;"><tspan x="0" dy="0">10</tspan></text></g><g style="opacity: 1;" transform="translate(0, 1566.2802734375)"><line x2="-28.299999237060547" style="stroke: rgb(238, 238, 238); stroke-width: 2px;"/><text text-anchor="end" transform="translate(-4, 16)" style="user-select: none; cursor: default; fill: rgb(74, 74, 74); font-size: 16px; font-weight: normal;"><tspan x="0" dy="0">-10</tspan></text></g></g><g class="fl-axis-title"><text style="opacity: 1; user-select: none; cursor: default; font-size: 17.6px; fill: rgb(74, 74, 74); font-weight: bold;" transform="translate(-49.68741226196289, 24.100000381469727)" text-anchor="start">CPI % change year on year</text></g></g><g class="fl-axis fl-y-axis fl-right-axis"><g class="fl-axis-line"/><g class="fl-axis-ticks"/><g class="fl-axis-title"/></g></g></g><g class="fl-data-foreground" clip-path="url(#fl-axes-1-clip-path)"/></g></g></g></g></g><g class="annotations below"/><g id="areas"/><g id="lines"><g class="series"><clipPath id="clip-0-0"><rect width="1087.99592074593" x="0" y="44.6" height="1675.2882990245862"/></clipPath><path class="outline" opacity="1" pointer-events="none" fill="none" stroke-width="0" transform="translate(49.68741226196289, 0)" clip-path="url(#clip-0-0)" clip-path-id="0-0" d="M21.718,1115.728C28.957,1114.496,36.196,1113.264,43.436,1112.08C50.442,1110.935,57.447,1110.966,64.453,1108.736C71.692,1106.432,78.932,1101.886,86.171,1097.488C93.177,1093.231,100.182,1082.895,107.188,1082.895C114.428,1082.895,121.667,1090.495,128.906,1091.103C136.145,1091.711,143.385,1092.015,150.624,1092.015C157.163,1092.015,163.701,1082.287,170.24,1082.287C177.479,1082.287,184.719,1083.503,191.958,1083.503C198.964,1083.503,205.97,1073.765,212.975,1065.566C220.215,1057.093,227.454,1038.691,234.693,1033.036C241.699,1027.564,248.705,1024.828,255.711,1024.828C262.95,1024.828,270.189,1027.665,277.428,1029.084C284.668,1030.503,291.907,1032.712,299.146,1033.34C306.152,1033.948,313.158,1034.001,320.164,1034.252C327.403,1034.512,334.642,1034.455,341.882,1034.86C348.887,1035.252,355.893,1040.194,362.899,1043.373C370.138,1046.657,377.377,1054.317,384.617,1054.317C391.856,1054.317,399.095,1049.439,406.335,1048.541C412.873,1047.73,419.412,1047.325,425.951,1047.325C433.19,1047.325,440.429,1051.58,447.669,1055.533C454.674,1059.359,461.68,1063.276,468.686,1070.43C475.925,1077.822,483.165,1091.478,490.404,1099.616C497.41,1107.49,504.415,1118.769,511.421,1118.769C518.66,1118.769,525.9,1117.755,533.139,1115.728C540.378,1113.702,547.618,1105.409,554.857,1099.312C561.863,1093.411,568.868,1079.855,575.874,1079.855C583.114,1079.855,590.353,1089.737,597.592,1093.839C604.598,1097.809,611.604,1104.176,618.609,1104.176C625.849,1104.176,633.088,1099.514,640.327,1097.488C647.567,1095.461,654.806,1092.015,662.045,1092.015C668.817,1092.015,675.59,1098.512,682.362,1100.528C689.601,1102.683,696.84,1103.966,704.08,1104.176C711.086,1104.379,718.091,1104.277,725.097,1104.48C732.336,1104.689,739.576,1105.696,746.815,1108.128C753.821,1110.482,760.827,1118.683,767.832,1122.113C775.072,1125.657,782.311,1124.9,789.55,1128.801C796.789,1132.703,804.029,1137.14,811.268,1145.522C818.274,1153.634,825.28,1177.748,832.285,1177.748C839.525,1177.748,846.764,1175.791,854.003,1174.708C861.009,1173.659,868.015,1172.895,875.021,1171.363C882.26,1169.781,889.499,1165.283,896.738,1165.283C903.978,1165.283,911.217,1165.587,918.456,1166.195C924.995,1166.744,931.534,1179.268,938.072,1179.268C945.312,1179.268,952.551,1176.228,959.79,1176.228C966.796,1176.228,973.802,1176.532,980.808,1176.532C988.047,1176.532,995.286,1174.056,1002.526,1170.451C1009.531,1166.963,1016.537,1155.555,1023.543,1155.555C1030.782,1155.555,1038.021,1158.747,1045.261,1161.939"/><path class="line" opacity="1" pointer-events="none" fill="none" stroke="#d7d8da" stroke-width="1.6" transform="translate(49.68741226196289, 0)" clip-path="url(#clip-0-0)" clip-path-id="0-0" d="M21.718,1115.728C28.957,1114.496,36.196,1113.264,43.436,1112.08C50.442,1110.935,57.447,1110.966,64.453,1108.736C71.692,1106.432,78.932,1101.886,86.171,1097.488C93.177,1093.231,100.182,1082.895,107.188,1082.895C114.428,1082.895,121.667,1090.495,128.906,1091.103C136.145,1091.711,143.385,1092.015,150.624,1092.015C157.163,1092.015,163.701,1082.287,170.24,1082.287C177.479,1082.287,184.719,1083.503,191.958,1083.503C198.964,1083.503,205.97,1073.765,212.975,1065.566C220.215,1057.093,227.454,1038.691,234.693,1033.036C241.699,1027.564,248.705,1024.828,255.711,1024.828C262.95,1024.828,270.189,1027.665,277.428,1029.084C284.668,1030.503,291.907,1032.712,299.146,1033.34C306.152,1033.948,313.158,1034.001,320.164,1034.252C327.403,1034.512,334.642,1034.455,341.882,1034.86C348.887,1035.252,355.893,1040.194,362.899,1043.373C370.138,1046.657,377.377,1054.317,384.617,1054.317C391.856,1054.317,399.095,1049.439,406.335,1048.541C412.873,1047.73,419.412,1047.325,425.951,1047.325C433.19,1047.325,440.429,1051.58,447.669,1055.533C454.674,1059.359,461.68,1063.276,468.686,1070.43C475.925,1077.822,483.165,1091.478,490.404,1099.616C497.41,1107.49,504.415,1118.769,511.421,1118.769C518.66,1118.769,525.9,1117.755,533.139,1115.728C540.378,1113.702,547.618,1105.409,554.857,1099.312C561.863,1093.411,568.868,1079.855,575.874,1079.855C583.114,1079.855,590.353,1089.737,597.592,1093.839C604.598,1097.809,611.604,1104.176,618.609,1104.176C625.849,1104.176,633.088,1099.514,640.327,1097.488C647.567,1095.461,654.806,1092.015,662.045,1092.015C668.817,1092.015,675.59,1098.512,682.362,1100.528C689.601,1102.683,696.84,1103.966,704.08,1104.176C711.086,1104.379,718.091,1104.277,725.097,1104.48C732.336,1104.689,739.576,1105.696,746.815,1108.128C753.821,1110.482,760.827,1118.683,767.832,1122.113C775.072,1125.657,782.311,1124.9,789.55,1128.801C796.789,1132.703,804.029,1137.14,811.268,1145.522C818.274,1153.634,825.28,1177.748,832.285,1177.748C839.525,1177.748,846.764,1175.791,854.003,1174.708C861.009,1173.659,868.015,1172.895,875.021,1171.363C882.26,1169.781,889.499,1165.283,896.738,1165.283C903.978,1165.283,911.217,1165.587,918.456,1166.195C924.995,1166.744,931.534,1179.268,938.072,1179.268C945.312,1179.268,952.551,1176.228,959.79,1176.228C966.796,1176.228,973.802,1176.532,980.808,1176.532C988.047,1176.532,995.286,1174.056,1002.526,1170.451C1009.531,1166.963,1016.537,1155.555,1023.543,1155.555C1030.782,1155.555,1038.021,1158.747,1045.261,1161.939"/></g><g class="series"><clipPath id="clip-0-1"><rect width="1087.99592074593" x="0" y="44.6" height="1675.2882990245862"/></clipPath><path class="outline" opacity="1" pointer-events="none" fill="none" stroke-width="0" transform="translate(49.68741226196289, 0)" clip-path="url(#clip-0-1)" clip-path-id="0-1" d="M21.718,1035.772C28.957,1040.179,36.196,1044.585,43.436,1048.541C50.442,1052.369,57.447,1053.906,64.453,1059.181C71.692,1064.632,78.932,1080.442,86.171,1081.071C93.177,1081.679,100.182,1081.983,107.188,1081.983C114.428,1081.983,121.667,1075.7,128.906,1071.342C136.145,1066.985,143.385,1055.837,150.624,1055.837C157.163,1055.837,163.701,1063.037,170.24,1065.566C177.479,1068.366,184.719,1071.342,191.958,1071.342C198.964,1071.342,205.97,1039.999,212.975,1026.348C220.215,1012.242,227.454,1000.589,234.693,988.346C241.699,976.497,248.705,965.647,255.711,953.992C262.95,941.948,270.189,927.897,277.428,917.206C284.668,906.515,291.907,890.263,299.146,889.845C306.152,889.439,313.158,889.642,320.164,889.237C327.403,888.818,334.642,874.644,341.882,874.644C348.887,874.644,355.893,876.468,362.899,876.468C370.138,876.468,377.377,846.066,384.617,843.026C391.856,839.986,399.095,841.506,406.335,838.466C412.873,835.72,419.412,826.305,425.951,826.305C433.19,826.305,440.429,827.42,447.669,829.649C454.674,831.807,461.68,880.224,468.686,896.229C475.925,912.768,483.165,915.551,490.404,926.022C497.41,936.157,504.415,944.144,511.421,957.944C518.66,972.204,525.9,1005.168,533.139,1010.843C540.378,1016.518,547.618,1019.355,554.857,1019.355C561.863,1019.355,568.868,997.76,575.874,994.426C583.114,990.981,590.353,989.258,597.592,989.258C604.598,989.258,611.604,994.289,618.609,1003.851C625.849,1013.731,633.088,1035.924,640.327,1048.541C647.567,1061.158,654.806,1068.286,662.045,1079.551C668.817,1090.088,675.59,1105.674,682.362,1113.6C689.601,1122.073,696.84,1124.768,704.08,1127.281C711.086,1129.713,718.091,1129.684,725.097,1130.929C732.336,1132.216,739.576,1132.531,746.815,1134.881C753.821,1137.156,760.827,1144.61,767.832,1144.61C775.072,1144.61,782.311,1138.226,789.55,1138.226C796.789,1138.226,804.029,1138.428,811.268,1138.834C818.274,1139.226,825.28,1165.428,832.285,1178.052C839.525,1191.097,846.764,1215.75,854.003,1215.75C861.009,1215.75,868.015,1209.669,875.021,1209.669C882.26,1209.669,889.499,1216.054,896.738,1216.054C903.978,1216.054,911.217,1207.644,918.456,1203.893C924.995,1200.505,931.534,1200.752,938.072,1194.469C945.312,1187.512,952.551,1172.109,959.79,1160.723C966.796,1149.704,973.802,1132.969,980.808,1127.281C988.047,1121.403,995.286,1124.22,1002.526,1118.465C1009.531,1112.894,1016.537,1093.839,1023.543,1093.839C1030.782,1093.839,1038.021,1098.552,1045.261,1103.264"/><path class="line" opacity="1" pointer-events="none" fill="none" stroke="#d7d8da" stroke-width="1.6" transform="translate(49.68741226196289, 0)" clip-path="url(#clip-0-1)" clip-path-id="0-1" d="M21.718,1035.772C28.957,1040.179,36.196,1044.585,43.436,1048.541C50.442,1052.369,57.447,1053.906,64.453,1059.181C71.692,1064.632,78.932,1080.442,86.171,1081.071C93.177,1081.679,100.182,1081.983,107.188,1081.983C114.428,1081.983,121.667,1075.7,128.906,1071.342C136.145,1066.985,143.385,1055.837,150.624,1055.837C157.163,1055.837,163.701,1063.037,170.24,1065.566C177.479,1068.366,184.719,1071.342,191.958,1071.342C198.964,1071.342,205.97,1039.999,212.975,1026.348C220.215,1012.242,227.454,1000.589,234.693,988.346C241.699,976.497,248.705,965.647,255.711,953.992C262.95,941.948,270.189,927.897,277.428,917.206C284.668,906.515,291.907,890.263,299.146,889.845C306.152,889.439,313.158,889.642,320.164,889.237C327.403,888.818,334.642,874.644,341.882,874.644C348.887,874.644,355.893,876.468,362.899,876.468C370.138,876.468,377.377,846.066,384.617,843.026C391.856,839.986,399.095,841.506,406.335,838.466C412.873,835.72,419.412,826.305,425.951,826.305C433.19,826.305,440.429,827.42,447.669,829.649C454.674,831.807,461.68,880.224,468.686,896.229C475.925,912.768,483.165,915.551,490.404,926.022C497.41,936.157,504.415,944.144,511.421,957.944C518.66,972.204,525.9,1005.168,533.139,1010.843C540.378,1016.518,547.618,1019.355,554.857,1019.355C561.863,1019.355,568.868,997.76,575.874,994.426C583.114,990.981,590.353,989.258,597.592,989.258C604.598,989.258,611.604,994.289,618.609,1003.851C625.849,1013.731,633.088,1035.924,640.327,1048.541C647.567,1061.158,654.806,1068.286,662.045,1079.551C668.817,1090.088,675.59,1105.674,682.362,1113.6C689.601,1122.073,696.84,1124.768,704.08,1127.281C711.086,1129.713,718.091,1129.684,725.097,1130.929C732.336,1132.216,739.576,1132.531,746.815,1134.881C753.821,1137.156,760.827,1144.61,767.832,1144.61C775.072,1144.61,782.311,1138.226,789.55,1138.226C796.789,1138.226,804.029,1138.428,811.268,1138.834C818.274,1139.226,825.28,1165.428,832.285,1178.052C839.525,1191.097,846.764,1215.75,854.003,1215.75C861.009,1215.75,868.015,1209.669,875.021,1209.669C882.26,1209.669,889.499,1216.054,896.738,1216.054C903.978,1216.054,911.217,1207.644,918.456,1203.893C924.995,1200.505,931.534,1200.752,938.072,1194.469C945.312,1187.512,952.551,1172.109,959.79,1160.723C966.796,1149.704,973.802,1132.969,980.808,1127.281C988.047,1121.403,995.286,1124.22,1002.526,1118.465C1009.531,1112.894,1016.537,1093.839,1023.543,1093.839C1030.782,1093.839,1038.021,1098.552,1045.261,1103.264"/></g><g class="series"><clipPath id="clip-0-2"><rect width="1087.99592074593" x="0" y="44.6" height="1675.2882990245862"/></clipPath><path class="outline" opacity="1" pointer-events="none" fill="none" stroke-width="0" transform="translate(49.68741226196289, 0)" clip-path="url(#clip-0-2)" clip-path-id="0-2" d="M21.718,1155.251C28.957,1161.834,36.196,1168.418,43.436,1168.627C50.442,1168.83,57.447,1168.729,64.453,1168.931C71.692,1169.141,78.932,1184.506,86.171,1191.124C93.177,1197.529,100.182,1203.867,107.188,1208.149C114.428,1212.575,121.667,1216.966,128.906,1216.966C136.145,1216.966,143.385,1163.389,150.624,1146.738C157.163,1131.699,163.701,1120.723,170.24,1118.161C177.479,1115.323,184.719,1116.742,191.958,1113.904C198.964,1111.158,205.97,1038.765,212.975,1006.891C220.215,973.954,227.454,947.222,234.693,920.246C241.699,894.14,248.705,879.658,255.711,847.282C262.95,813.827,270.189,749.693,277.428,721.116C284.668,692.538,291.907,680.006,299.146,675.817C306.152,671.764,313.158,672.841,320.164,669.737C327.403,666.53,334.642,662.213,341.882,656.664C348.887,651.294,355.893,646.58,362.899,637.207C370.138,627.522,377.377,598.901,384.617,598.901C391.856,598.901,399.095,633.711,406.335,638.423C412.873,642.679,419.412,644.808,425.951,644.808C433.19,644.808,440.429,629.911,447.669,629.911C454.674,629.911,461.68,684.503,468.686,711.083C475.925,738.549,483.165,765.976,490.404,791.951C497.41,817.089,504.415,836.483,511.421,864.611C518.66,893.677,525.9,950.344,533.139,964.328C540.378,978.313,547.618,980.377,554.857,985.306C561.863,990.076,568.868,990.929,575.874,993.818C583.114,996.803,590.353,996.858,597.592,1002.939C604.598,1008.823,611.604,1024.93,618.609,1035.164C625.849,1045.739,633.088,1058.168,640.327,1065.262C647.567,1072.356,654.806,1070.009,662.045,1077.726C668.817,1084.946,675.59,1099.867,682.362,1108.736C689.601,1118.216,696.84,1126.392,704.08,1132.145C711.086,1137.713,718.091,1143.09,725.097,1143.09C732.336,1143.09,739.576,1113.446,746.815,1105.088C753.821,1096.999,760.827,1096,767.832,1092.927C775.072,1089.752,782.311,1086.543,789.55,1086.543C796.789,1086.543,804.029,1090.916,811.268,1097.183C818.274,1103.249,825.28,1114.017,832.285,1123.025C839.525,1132.333,846.764,1152.21,854.003,1152.21C861.009,1152.21,868.015,1149.867,875.021,1148.866C882.26,1147.832,889.499,1146.941,896.738,1146.13C903.978,1145.319,911.217,1145.421,918.456,1144.002C924.995,1142.721,931.534,1135.979,938.072,1131.537C945.312,1126.62,952.551,1115.728,959.79,1115.728C966.796,1115.728,973.802,1119.174,980.808,1126.065C988.047,1133.186,995.286,1158.533,1002.526,1170.755C1009.531,1182.583,1016.537,1191.093,1023.543,1198.725C1030.782,1206.611,1038.021,1211.788,1045.261,1216.966"/><path class="line" opacity="1" pointer-events="none" fill="none" stroke="#d7d8da" stroke-width="1.6" transform="translate(49.68741226196289, 0)" clip-path="url(#clip-0-2)" clip-path-id="0-2" d="M21.718,1155.251C28.957,1161.834,36.196,1168.418,43.436,1168.627C50.442,1168.83,57.447,1168.729,64.453,1168.931C71.692,1169.141,78.932,1184.506,86.171,1191.124C93.177,1197.529,100.182,1203.867,107.188,1208.149C114.428,1212.575,121.667,1216.966,128.906,1216.966C136.145,1216.966,143.385,1163.389,150.624,1146.738C157.163,1131.699,163.701,1120.723,170.24,1118.161C177.479,1115.323,184.719,1116.742,191.958,1113.904C198.964,1111.158,205.97,1038.765,212.975,1006.891C220.215,973.954,227.454,947.222,234.693,920.246C241.699,894.14,248.705,879.658,255.711,847.282C262.95,813.827,270.189,749.693,277.428,721.116C284.668,692.538,291.907,680.006,299.146,675.817C306.152,671.764,313.158,672.841,320.164,669.737C327.403,666.53,334.642,662.213,341.882,656.664C348.887,651.294,355.893,646.58,362.899,637.207C370.138,627.522,377.377,598.901,384.617,598.901C391.856,598.901,399.095,633.711,406.335,638.423C412.873,642.679,419.412,644.808,425.951,644.808C433.19,644.808,440.429,629.911,447.669,629.911C454.674,629.911,461.68,684.503,468.686,711.083C475.925,738.549,483.165,765.976,490.404,791.951C497.41,817.089,504.415,836.483,511.421,864.611C518.66,893.677,525.9,950.344,533.139,964.328C540.378,978.313,547.618,980.377,554.857,985.306C561.863,990.076,568.868,990.929,575.874,993.818C583.114,996.803,590.353,996.858,597.592,1002.939C604.598,1008.823,611.604,1024.93,618.609,1035.164C625.849,1045.739,633.088,1058.168,640.327,1065.262C647.567,1072.356,654.806,1070.009,662.045,1077.726C668.817,1084.946,675.59,1099.867,682.362,1108.736C689.601,1118.216,696.84,1126.392,704.08,1132.145C711.086,1137.713,718.091,1143.09,725.097,1143.09C732.336,1143.09,739.576,1113.446,746.815,1105.088C753.821,1096.999,760.827,1096,767.832,1092.927C775.072,1089.752,782.311,1086.543,789.55,1086.543C796.789,1086.543,804.029,1090.916,811.268,1097.183C818.274,1103.249,825.28,1114.017,832.285,1123.025C839.525,1132.333,846.764,1152.21,854.003,1152.21C861.009,1152.21,868.015,1149.867,875.021,1148.866C882.26,1147.832,889.499,1146.941,896.738,1146.13C903.978,1145.319,911.217,1145.421,918.456,1144.002C924.995,1142.721,931.534,1135.979,938.072,1131.537C945.312,1126.62,952.551,1115.728,959.79,1115.728C966.796,1115.728,973.802,1119.174,980.808,1126.065C988.047,1133.186,995.286,1158.533,1002.526,1170.755C1009.531,1182.583,1016.537,1191.093,1023.543,1198.725C1030.782,1206.611,1038.021,1211.788,1045.261,1216.966"/></g><g class="series"><clipPath id="clip-0-3"><rect width="1087.99592074593" x="0" y="44.6" height="1675.2882990245862"/></clipPath><path class="outline" opacity="1" pointer-events="none" fill="none" stroke-width="0" transform="translate(49.68741226196289, 0)" clip-path="url(#clip-0-3)" clip-path-id="0-3" d="M21.718,943.047C28.957,943.706,36.196,944.365,43.436,947C50.442,949.549,57.447,976.981,64.453,986.522C71.692,996.38,78.932,1004.459,86.171,1004.459C93.177,1004.459,100.182,999.898,107.188,999.898C114.428,999.898,121.667,1011.451,128.906,1011.451C136.145,1011.451,143.385,1003.159,150.624,999.29C157.163,995.796,163.701,989.258,170.24,989.258C177.479,989.258,184.719,1000.202,191.958,1000.202C198.964,1000.202,205.97,981.344,212.975,978.009C220.215,974.564,227.454,972.841,234.693,972.841C241.699,972.841,248.705,973.449,255.711,974.665C262.95,975.922,270.189,980.441,277.428,980.441C284.668,980.441,291.907,968.904,299.146,962.504C306.152,956.311,313.158,943.92,320.164,942.743C327.403,941.527,334.642,940.919,341.882,940.919C348.887,940.919,355.893,965.545,362.899,965.545C370.138,965.545,377.377,929.265,384.617,924.806C391.856,920.347,399.095,918.118,406.335,918.118C412.873,918.118,419.412,931.897,425.951,940.615C433.19,950.268,440.429,955.537,447.669,974.057C454.674,991.98,461.68,1031.534,468.686,1048.541C475.925,1066.114,483.165,1065.817,490.404,1076.206C497.41,1086.26,504.415,1097.183,511.421,1109.648C518.66,1122.529,525.9,1152.514,533.139,1152.514C540.378,1152.514,547.618,1146.738,554.857,1146.738C561.863,1146.738,568.868,1160.723,575.874,1160.723C583.114,1160.723,590.353,1157.49,597.592,1154.947C604.598,1152.485,611.604,1145.826,618.609,1145.826C625.849,1145.826,633.088,1183.017,640.327,1194.773C647.567,1206.528,654.806,1208.962,662.045,1216.358C668.817,1223.276,675.59,1232.553,682.362,1237.639C689.601,1243.075,696.84,1247.063,704.08,1247.063C711.086,1247.063,718.091,1242.243,725.097,1240.679C732.336,1239.063,739.576,1239.255,746.815,1237.639C753.821,1236.075,760.827,1233.831,767.832,1231.255C775.072,1228.592,782.311,1221.83,789.55,1221.83C796.789,1221.83,804.029,1230.602,811.268,1234.295C818.274,1237.869,825.28,1238.698,832.285,1243.719C839.525,1248.908,846.764,1260.169,854.003,1265.304C861.009,1270.274,868.015,1272.66,875.021,1274.425C882.26,1276.249,889.499,1277.161,896.738,1277.161C903.978,1277.161,911.217,1266.979,918.456,1262.264C924.995,1258.006,931.534,1258.211,938.072,1250.104C945.312,1241.128,952.551,1191.267,959.79,1170.755C966.796,1150.906,973.802,1145.761,980.808,1127.889C988.047,1109.421,995.286,1092.405,1002.526,1061.006C1009.531,1030.619,1016.537,960.935,1023.543,944.263C1030.782,927.036,1038.021,922.729,1045.261,918.422"/><path class="line" opacity="1" pointer-events="none" fill="none" stroke="Green" stroke-width="1.6" transform="translate(49.68741226196289, 0)" clip-path="url(#clip-0-3)" clip-path-id="0-3" d="M21.718,943.047C28.957,943.706,36.196,944.365,43.436,947C50.442,949.549,57.447,976.981,64.453,986.522C71.692,996.38,78.932,1004.459,86.171,1004.459C93.177,1004.459,100.182,999.898,107.188,999.898C114.428,999.898,121.667,1011.451,128.906,1011.451C136.145,1011.451,143.385,1003.159,150.624,999.29C157.163,995.796,163.701,989.258,170.24,989.258C177.479,989.258,184.719,1000.202,191.958,1000.202C198.964,1000.202,205.97,981.344,212.975,978.009C220.215,974.564,227.454,972.841,234.693,972.841C241.699,972.841,248.705,973.449,255.711,974.665C262.95,975.922,270.189,980.441,277.428,980.441C284.668,980.441,291.907,968.904,299.146,962.504C306.152,956.311,313.158,943.92,320.164,942.743C327.403,941.527,334.642,940.919,341.882,940.919C348.887,940.919,355.893,965.545,362.899,965.545C370.138,965.545,377.377,929.265,384.617,924.806C391.856,920.347,399.095,918.118,406.335,918.118C412.873,918.118,419.412,931.897,425.951,940.615C433.19,950.268,440.429,955.537,447.669,974.057C454.674,991.98,461.68,1031.534,468.686,1048.541C475.925,1066.114,483.165,1065.817,490.404,1076.206C497.41,1086.26,504.415,1097.183,511.421,1109.648C518.66,1122.529,525.9,1152.514,533.139,1152.514C540.378,1152.514,547.618,1146.738,554.857,1146.738C561.863,1146.738,568.868,1160.723,575.874,1160.723C583.114,1160.723,590.353,1157.49,597.592,1154.947C604.598,1152.485,611.604,1145.826,618.609,1145.826C625.849,1145.826,633.088,1183.017,640.327,1194.773C647.567,1206.528,654.806,1208.962,662.045,1216.358C668.817,1223.276,675.59,1232.553,682.362,1237.639C689.601,1243.075,696.84,1247.063,704.08,1247.063C711.086,1247.063,718.091,1242.243,725.097,1240.679C732.336,1239.063,739.576,1239.255,746.815,1237.639C753.821,1236.075,760.827,1233.831,767.832,1231.255C775.072,1228.592,782.311,1221.83,789.55,1221.83C796.789,1221.83,804.029,1230.602,811.268,1234.295C818.274,1237.869,825.28,1238.698,832.285,1243.719C839.525,1248.908,846.764,1260.169,854.003,1265.304C861.009,1270.274,868.015,1272.66,875.021,1274.425C882.26,1276.249,889.499,1277.161,896.738,1277.161C903.978,1277.161,911.217,1266.979,918.456,1262.264C924.995,1258.006,931.534,1258.211,938.072,1250.104C945.312,1241.128,952.551,1191.267,959.79,1170.755C966.796,1150.906,973.802,1145.761,980.808,1127.889C988.047,1109.421,995.286,1092.405,1002.526,1061.006C1009.531,1030.619,1016.537,960.935,1023.543,944.263C1030.782,927.036,1038.021,922.729,1045.261,918.422"/></g><g class="series"><clipPath id="clip-0-4"><rect width="1087.99592074593" x="0" y="44.6" height="1675.2882990245862"/></clipPath><path class="outline" opacity="1" pointer-events="none" fill="none" stroke-width="0" transform="translate(49.68741226196289, 0)" clip-path="url(#clip-0-4)" clip-path-id="0-4" d="M21.718,1074.078C28.957,1083.251,36.196,1092.425,43.436,1102.96C50.442,1113.155,57.447,1136.098,64.453,1136.098C71.692,1136.098,78.932,1119.985,86.171,1119.985C93.177,1119.985,100.182,1149.474,107.188,1149.474C114.428,1149.474,121.667,1133.817,128.906,1125.761C136.145,1117.705,143.385,1101.136,150.624,1101.136C157.163,1101.136,163.701,1121.809,170.24,1121.809C177.479,1121.809,184.719,1120.39,191.958,1117.553C198.964,1114.807,205.97,1080.472,212.975,1071.646C220.215,1062.526,227.454,1067.086,234.693,1057.965C241.699,1049.139,248.705,968.585,255.711,968.585C262.95,968.585,270.189,986.826,277.428,986.826C284.668,986.826,291.907,986.623,299.146,986.218C306.152,985.825,313.158,952.031,320.164,947.912C327.403,943.655,334.642,941.527,341.882,941.527C348.887,941.527,355.893,943.351,362.899,943.351C370.138,943.351,377.377,866.739,384.617,866.739C391.856,866.739,399.095,885.475,406.335,897.749C412.873,908.835,419.412,935.751,425.951,935.751C433.19,935.751,440.429,898.965,447.669,898.965C454.674,898.965,461.68,963.465,468.686,967.977C475.925,972.638,483.165,970.417,490.404,974.969C497.41,979.374,504.415,988.67,511.421,994.426C518.66,1000.374,525.9,1009.931,533.139,1009.931C540.378,1009.931,547.618,998.682,554.857,998.682C561.863,998.682,568.868,1019.4,575.874,1029.084C583.114,1039.09,590.353,1057.661,597.592,1057.661C604.598,1057.661,611.604,1054.925,618.609,1054.925C625.849,1054.925,633.088,1108.685,640.327,1126.977C647.567,1145.269,654.806,1164.675,662.045,1164.675C668.817,1164.675,675.59,1137.922,682.362,1137.922C689.601,1137.922,696.84,1171.363,704.08,1171.363C711.086,1171.363,718.091,1118.161,725.097,1118.161C732.336,1118.161,739.576,1123.025,746.815,1123.025C753.821,1123.025,760.827,1122.518,767.832,1121.505C775.072,1120.458,782.311,1102.048,789.55,1096.271C796.789,1090.495,804.029,1086.847,811.268,1086.847C818.274,1086.847,825.28,1096.575,832.285,1096.575C839.525,1096.575,846.764,1095.967,854.003,1095.967C861.009,1095.967,868.015,1115.814,875.021,1122.417C882.26,1129.24,889.499,1135.794,896.738,1135.794C903.978,1135.794,911.217,1119.492,918.456,1117.249C924.995,1115.222,931.534,1114.208,938.072,1114.208C945.312,1114.208,952.551,1117.249,959.79,1117.249C966.796,1117.249,973.802,1112.384,980.808,1112.384C988.047,1112.384,995.286,1113.803,1002.526,1116.641C1009.531,1119.386,1016.537,1148.197,1023.543,1158.291C1030.782,1168.721,1038.021,1173.082,1045.261,1177.444"/><path class="line" opacity="1" pointer-events="none" fill="none" stroke="#d7d8da" stroke-width="1.6" transform="translate(49.68741226196289, 0)" clip-path="url(#clip-0-4)" clip-path-id="0-4" d="M21.718,1074.078C28.957,1083.251,36.196,1092.425,43.436,1102.96C50.442,1113.155,57.447,1136.098,64.453,1136.098C71.692,1136.098,78.932,1119.985,86.171,1119.985C93.177,1119.985,100.182,1149.474,107.188,1149.474C114.428,1149.474,121.667,1133.817,128.906,1125.761C136.145,1117.705,143.385,1101.136,150.624,1101.136C157.163,1101.136,163.701,1121.809,170.24,1121.809C177.479,1121.809,184.719,1120.39,191.958,1117.553C198.964,1114.807,205.97,1080.472,212.975,1071.646C220.215,1062.526,227.454,1067.086,234.693,1057.965C241.699,1049.139,248.705,968.585,255.711,968.585C262.95,968.585,270.189,986.826,277.428,986.826C284.668,986.826,291.907,986.623,299.146,986.218C306.152,985.825,313.158,952.031,320.164,947.912C327.403,943.655,334.642,941.527,341.882,941.527C348.887,941.527,355.893,943.351,362.899,943.351C370.138,943.351,377.377,866.739,384.617,866.739C391.856,866.739,399.095,885.475,406.335,897.749C412.873,908.835,419.412,935.751,425.951,935.751C433.19,935.751,440.429,898.965,447.669,898.965C454.674,898.965,461.68,963.465,468.686,967.977C475.925,972.638,483.165,970.417,490.404,974.969C497.41,979.374,504.415,988.67,511.421,994.426C518.66,1000.374,525.9,1009.931,533.139,1009.931C540.378,1009.931,547.618,998.682,554.857,998.682C561.863,998.682,568.868,1019.4,575.874,1029.084C583.114,1039.09,590.353,1057.661,597.592,1057.661C604.598,1057.661,611.604,1054.925,618.609,1054.925C625.849,1054.925,633.088,1108.685,640.327,1126.977C647.567,1145.269,654.806,1164.675,662.045,1164.675C668.817,1164.675,675.59,1137.922,682.362,1137.922C689.601,1137.922,696.84,1171.363,704.08,1171.363C711.086,1171.363,718.091,1118.161,725.097,1118.161C732.336,1118.161,739.576,1123.025,746.815,1123.025C753.821,1123.025,760.827,1122.518,767.832,1121.505C775.072,1120.458,782.311,1102.048,789.55,1096.271C796.789,1090.495,804.029,1086.847,811.268,1086.847C818.274,1086.847,825.28,1096.575,832.285,1096.575C839.525,1096.575,846.764,1095.967,854.003,1095.967C861.009,1095.967,868.015,1115.814,875.021,1122.417C882.26,1129.24,889.499,1135.794,896.738,1135.794C903.978,1135.794,911.217,1119.492,918.456,1117.249C924.995,1115.222,931.534,1114.208,938.072,1114.208C945.312,1114.208,952.551,1117.249,959.79,1117.249C966.796,1117.249,973.802,1112.384,980.808,1112.384C988.047,1112.384,995.286,1113.803,1002.526,1116.641C1009.531,1119.386,1016.537,1148.197,1023.543,1158.291C1030.782,1168.721,1038.021,1173.082,1045.261,1177.444"/></g><g class="series"><clipPath id="clip-0-5"><rect width="1087.99592074593" x="0" y="44.6" height="1675.2882990245862"/></clipPath><path class="outline" opacity="1" pointer-events="none" fill="none" stroke-width="0" transform="translate(49.68741226196289, 0)" clip-path="url(#clip-0-5)" clip-path-id="0-5" d="M21.718,1092.927C28.957,1092.927,36.196,1092.927,43.436,1092.927C50.442,1092.927,57.447,1110.256,64.453,1110.256C71.692,1110.256,78.932,1101.744,86.171,1101.744C93.177,1101.744,100.182,1101.744,107.188,1101.744C114.428,1101.744,121.667,1101.946,128.906,1102.352C136.145,1102.757,143.385,1113.461,150.624,1119.681C157.163,1125.298,163.701,1132.565,170.24,1137.618C177.479,1143.212,184.719,1150.994,191.958,1150.994C198.964,1150.994,205.97,1150.285,212.975,1148.866C220.215,1147.4,227.454,1126.6,234.693,1118.161C241.699,1109.993,248.705,1111.675,255.711,1098.704C262.95,1085.3,270.189,1033.948,277.428,1015.707C284.668,997.466,291.907,1000.335,299.146,988.346C306.152,976.743,313.158,953.129,320.164,945.479C327.403,937.575,334.642,933.623,341.882,933.623C348.887,933.623,355.893,957.336,362.899,957.336C370.138,957.336,377.377,946.594,384.617,935.143C391.856,923.692,399.095,903.709,406.335,888.628C412.873,875.007,419.412,859.774,425.951,848.802C433.19,836.655,440.429,820.833,447.669,820.833C454.674,820.833,461.68,826.133,468.686,828.433C475.925,830.81,483.165,834.818,490.404,834.818C497.41,834.818,504.415,822.657,511.421,822.657C518.66,822.657,525.9,880.623,533.139,896.837C540.378,913.051,547.618,921.158,554.857,921.158C561.863,921.158,568.868,896.684,575.874,883.156C583.114,869.178,590.353,848.719,597.592,838.466C604.598,828.543,611.604,821.745,618.609,821.745C625.849,821.745,633.088,852.451,640.327,865.219C647.567,877.988,654.806,882.384,662.045,898.357C668.817,913.299,675.59,939.94,682.362,956.12C689.601,973.416,696.84,984.196,704.08,997.466C711.086,1010.309,718.091,1030.633,725.097,1034.556C732.336,1038.61,739.576,1036.583,746.815,1040.637C753.821,1044.559,760.827,1068.606,767.832,1068.606C775.072,1068.606,782.311,1055.533,789.55,1055.533C796.789,1055.533,804.029,1055.635,811.268,1055.837C818.274,1056.033,825.28,1112.807,832.285,1136.098C839.525,1160.164,846.764,1195.11,854.003,1197.205C861.009,1199.232,868.015,1198.283,875.021,1200.245C882.26,1202.272,889.499,1205.717,896.738,1209.365C903.978,1213.014,911.217,1215.929,918.456,1222.134C924.995,1227.739,931.534,1243.719,938.072,1243.719C945.312,1243.719,952.551,1243.719,959.79,1243.719C966.796,1243.719,973.802,1247.689,980.808,1253.144C988.047,1258.781,995.286,1271.881,1002.526,1277.465C1009.531,1282.868,1016.537,1283.642,1023.543,1286.586C1030.782,1289.627,1038.021,1292.515,1045.261,1295.402"/><path class="line" opacity="1" pointer-events="none" fill="none" stroke="#d7d8d6" stroke-width="1.6" transform="translate(49.68741226196289, 0)" clip-path="url(#clip-0-5)" clip-path-id="0-5" d="M21.718,1092.927C28.957,1092.927,36.196,1092.927,43.436,1092.927C50.442,1092.927,57.447,1110.256,64.453,1110.256C71.692,1110.256,78.932,1101.744,86.171,1101.744C93.177,1101.744,100.182,1101.744,107.188,1101.744C114.428,1101.744,121.667,1101.946,128.906,1102.352C136.145,1102.757,143.385,1113.461,150.624,1119.681C157.163,1125.298,163.701,1132.565,170.24,1137.618C177.479,1143.212,184.719,1150.994,191.958,1150.994C198.964,1150.994,205.97,1150.285,212.975,1148.866C220.215,1147.4,227.454,1126.6,234.693,1118.161C241.699,1109.993,248.705,1111.675,255.711,1098.704C262.95,1085.3,270.189,1033.948,277.428,1015.707C284.668,997.466,291.907,1000.335,299.146,988.346C306.152,976.743,313.158,953.129,320.164,945.479C327.403,937.575,334.642,933.623,341.882,933.623C348.887,933.623,355.893,957.336,362.899,957.336C370.138,957.336,377.377,946.594,384.617,935.143C391.856,923.692,399.095,903.709,406.335,888.628C412.873,875.007,419.412,859.774,425.951,848.802C433.19,836.655,440.429,820.833,447.669,820.833C454.674,820.833,461.68,826.133,468.686,828.433C475.925,830.81,483.165,834.818,490.404,834.818C497.41,834.818,504.415,822.657,511.421,822.657C518.66,822.657,525.9,880.623,533.139,896.837C540.378,913.051,547.618,921.158,554.857,921.158C561.863,921.158,568.868,896.684,575.874,883.156C583.114,869.178,590.353,848.719,597.592,838.466C604.598,828.543,611.604,821.745,618.609,821.745C625.849,821.745,633.088,852.451,640.327,865.219C647.567,877.988,654.806,882.384,662.045,898.357C668.817,913.299,675.59,939.94,682.362,956.12C689.601,973.416,696.84,984.196,704.08,997.466C711.086,1010.309,718.091,1030.633,725.097,1034.556C732.336,1038.61,739.576,1036.583,746.815,1040.637C753.821,1044.559,760.827,1068.606,767.832,1068.606C775.072,1068.606,782.311,1055.533,789.55,1055.533C796.789,1055.533,804.029,1055.635,811.268,1055.837C818.274,1056.033,825.28,1112.807,832.285,1136.098C839.525,1160.164,846.764,1195.11,854.003,1197.205C861.009,1199.232,868.015,1198.283,875.021,1200.245C882.26,1202.272,889.499,1205.717,896.738,1209.365C903.978,1213.014,911.217,1215.929,918.456,1222.134C924.995,1227.739,931.534,1243.719,938.072,1243.719C945.312,1243.719,952.551,1243.719,959.79,1243.719C966.796,1243.719,973.802,1247.689,980.808,1253.144C988.047,1258.781,995.286,1271.881,1002.526,1277.465C1009.531,1282.868,1016.537,1283.642,1023.543,1286.586C1030.782,1289.627,1038.021,1292.515,1045.261,1295.402"/></g><g class="series"><clipPath id="clip-0-6"><rect width="1087.99592074593" x="0" y="44.6" height="1675.2882990245862"/></clipPath><path class="outline" opacity="1" pointer-events="none" fill="none" stroke-width="0" transform="translate(49.68741226196289, 0)" clip-path="url(#clip-0-6)" clip-path-id="0-6" d="M21.718,617.446C28.957,598.749,36.196,580.052,43.436,580.052C50.442,580.052,57.447,624.105,64.453,626.263C71.692,628.492,78.932,628.846,86.171,629.607C93.177,630.343,100.182,630.823,107.188,630.823C114.428,630.823,121.667,565.155,128.906,565.155C136.145,565.155,143.385,568.702,150.624,575.796C157.163,582.203,163.701,661.528,170.24,661.528C177.479,661.528,184.719,646.936,191.958,617.75C198.964,589.506,205.97,503.521,212.975,446.893C220.215,388.378,227.454,320.419,234.693,272.388C241.699,225.906,248.705,187.261,255.711,161.422C262.95,134.722,270.189,117.036,277.428,117.036C284.668,117.036,291.907,315.637,299.146,376.665C306.152,435.725,313.158,464.506,320.164,482.159C327.403,500.4,334.642,492.369,341.882,509.52C348.887,526.118,355.893,550.52,362.899,581.876C370.138,614.278,377.377,673.588,384.617,702.267C391.856,730.945,399.095,741.116,406.335,753.949C412.873,765.54,419.412,761.955,425.951,777.967C433.19,795.694,440.429,863.639,447.669,958.856C454.674,1051.002,461.68,1235.085,468.686,1333.404C475.925,1435,483.165,1499.719,490.404,1553.208C497.41,1604.971,504.415,1638.411,511.421,1652.925C518.66,1667.923,525.9,1675.422,533.139,1675.422C540.378,1675.422,547.618,1539.961,554.857,1499.397C561.863,1460.141,568.868,1440.751,575.874,1432.513C583.114,1424.001,590.353,1419.745,597.592,1419.745C604.598,1419.745,611.604,1440.722,618.609,1440.722C625.849,1440.722,633.088,1427.345,640.327,1423.697C647.567,1420.049,654.806,1421.873,662.045,1418.224C668.817,1414.812,675.59,1380.83,682.362,1380.83C689.601,1380.83,696.84,1410.624,704.08,1410.624C711.086,1410.624,718.091,1350.684,725.097,1332.188C732.336,1313.075,739.576,1310.697,746.815,1299.354C753.821,1288.377,760.827,1267.266,767.832,1265.304C775.072,1263.278,782.311,1262.264,789.55,1262.264C796.789,1262.264,804.029,1263.742,811.268,1265.304C818.274,1266.817,825.28,1271.385,832.285,1271.385C839.525,1271.385,846.764,1265.304,854.003,1253.144C861.009,1241.375,868.015,1203.864,875.021,1193.861C882.26,1183.524,889.499,1178.356,896.738,1178.356C903.978,1178.356,911.217,1188.141,918.456,1190.82C924.995,1193.24,931.534,1194.469,938.072,1194.469C945.312,1194.469,952.551,1132.483,959.79,1115.728C966.796,1099.514,973.802,1099.723,980.808,1091.407C988.047,1082.814,995.286,1064.958,1002.526,1064.958C1009.531,1064.958,1016.537,1122.113,1023.543,1122.113C1030.782,1122.113,1038.021,1119.225,1045.261,1116.337"/><path class="line" opacity="1" pointer-events="none" fill="none" stroke="Green" stroke-width="1.6" transform="translate(49.68741226196289, 0)" clip-path="url(#clip-0-6)" clip-path-id="0-6" d="M21.718,617.446C28.957,598.749,36.196,580.052,43.436,580.052C50.442,580.052,57.447,624.105,64.453,626.263C71.692,628.492,78.932,628.846,86.171,629.607C93.177,630.343,100.182,630.823,107.188,630.823C114.428,630.823,121.667,565.155,128.906,565.155C136.145,565.155,143.385,568.702,150.624,575.796C157.163,582.203,163.701,661.528,170.24,661.528C177.479,661.528,184.719,646.936,191.958,617.75C198.964,589.506,205.97,503.521,212.975,446.893C220.215,388.378,227.454,320.419,234.693,272.388C241.699,225.906,248.705,187.261,255.711,161.422C262.95,134.722,270.189,117.036,277.428,117.036C284.668,117.036,291.907,315.637,299.146,376.665C306.152,435.725,313.158,464.506,320.164,482.159C327.403,500.4,334.642,492.369,341.882,509.52C348.887,526.118,355.893,550.52,362.899,581.876C370.138,614.278,377.377,673.588,384.617,702.267C391.856,730.945,399.095,741.116,406.335,753.949C412.873,765.54,419.412,761.955,425.951,777.967C433.19,795.694,440.429,863.639,447.669,958.856C454.674,1051.002,461.68,1235.085,468.686,1333.404C475.925,1435,483.165,1499.719,490.404,1553.208C497.41,1604.971,504.415,1638.411,511.421,1652.925C518.66,1667.923,525.9,1675.422,533.139,1675.422C540.378,1675.422,547.618,1539.961,554.857,1499.397C561.863,1460.141,568.868,1440.751,575.874,1432.513C583.114,1424.001,590.353,1419.745,597.592,1419.745C604.598,1419.745,611.604,1440.722,618.609,1440.722C625.849,1440.722,633.088,1427.345,640.327,1423.697C647.567,1420.049,654.806,1421.873,662.045,1418.224C668.817,1414.812,675.59,1380.83,682.362,1380.83C689.601,1380.83,696.84,1410.624,704.08,1410.624C711.086,1410.624,718.091,1350.684,725.097,1332.188C732.336,1313.075,739.576,1310.697,746.815,1299.354C753.821,1288.377,760.827,1267.266,767.832,1265.304C775.072,1263.278,782.311,1262.264,789.55,1262.264C796.789,1262.264,804.029,1263.742,811.268,1265.304C818.274,1266.817,825.28,1271.385,832.285,1271.385C839.525,1271.385,846.764,1265.304,854.003,1253.144C861.009,1241.375,868.015,1203.864,875.021,1193.861C882.26,1183.524,889.499,1178.356,896.738,1178.356C903.978,1178.356,911.217,1188.141,918.456,1190.82C924.995,1193.24,931.534,1194.469,938.072,1194.469C945.312,1194.469,952.551,1132.483,959.79,1115.728C966.796,1099.514,973.802,1099.723,980.808,1091.407C988.047,1082.814,995.286,1064.958,1002.526,1064.958C1009.531,1064.958,1016.537,1122.113,1023.543,1122.113C1030.782,1122.113,1038.021,1119.225,1045.261,1116.337"/></g><g class="series"><clipPath id="clip-0-7"><rect width="1087.99592074593" x="0" y="44.6" height="1675.2882990245862"/></clipPath><path class="outline" opacity="1" pointer-events="none" fill="none" stroke-width="0" transform="translate(49.68741226196289, 0)" clip-path="url(#clip-0-7)" clip-path-id="0-7" d="M21.718,1333.1C28.957,1329.756,36.196,1326.412,43.436,1326.412C50.442,1326.412,57.447,1328.236,64.453,1331.884C71.692,1335.654,78.932,1379.614,86.171,1379.614C93.177,1379.614,100.182,1298.138,107.188,1298.138C114.428,1298.138,121.667,1322.155,128.906,1322.155C136.145,1322.155,143.385,1317.992,150.624,1310.907C157.163,1304.507,163.701,1283.545,170.24,1283.545C177.479,1283.545,184.719,1283.849,191.958,1283.849C198.964,1283.849,205.97,1198.725,212.975,1198.725C220.215,1198.725,227.454,1232.77,234.693,1250.712C241.699,1268.075,248.705,1304.522,255.711,1304.522C262.95,1304.522,270.189,1304.421,277.428,1304.218C284.668,1304.016,291.907,1283.426,299.146,1269.865C306.152,1256.741,313.158,1235.037,320.164,1224.566C327.403,1213.746,334.642,1206.933,341.882,1206.933C348.887,1206.933,355.893,1215.142,362.899,1215.142C370.138,1215.142,377.377,1154.643,384.617,1154.643C391.856,1154.643,399.095,1170.755,406.335,1170.755C412.873,1170.755,419.412,1101.744,425.951,1101.744C433.19,1101.744,440.429,1119.073,447.669,1153.73C454.674,1187.27,461.68,1364.718,468.686,1364.718C475.925,1364.718,483.165,1257.346,490.404,1227.606C497.41,1198.826,504.415,1196.572,511.421,1184.436C518.66,1171.895,525.9,1174.302,533.139,1154.035C540.378,1133.767,547.618,1083.146,554.857,1057.661C561.863,1032.999,568.868,1025.739,575.874,1002.33C583.114,978.142,590.353,919.098,597.592,913.862C604.598,908.795,611.604,906.261,618.609,906.261C625.849,906.261,633.088,924.3,640.327,953.992C647.567,983.684,654.806,1048.738,662.045,1084.415C668.817,1117.79,675.59,1164.067,682.362,1164.067C689.601,1164.067,696.84,1136.949,704.08,1122.721C711.086,1108.951,718.091,1080.159,725.097,1080.159C732.336,1080.159,739.576,1116.1,746.815,1136.706C753.821,1156.646,760.827,1198.323,767.832,1201.461C775.072,1204.704,782.311,1206.325,789.55,1206.325C796.789,1206.325,804.029,1171.667,811.268,1171.667C818.274,1171.667,825.28,1190.516,832.285,1190.516C839.525,1190.516,846.764,1180.861,854.003,1168.019C861.009,1155.592,868.015,1115.728,875.021,1115.728C882.26,1115.728,889.499,1199.333,896.738,1199.333C903.978,1199.333,911.217,1079.768,918.456,1055.533C924.995,1033.644,931.534,1022.7,938.072,1022.7C945.312,1022.7,952.551,1038.812,959.79,1038.812C966.796,1038.812,973.802,850.93,980.808,850.93C988.047,850.93,995.286,854.072,1002.526,860.355C1009.531,866.435,1016.537,952.815,1023.543,972.233C1030.782,992.298,1038.021,997.314,1045.261,1002.33"/><path class="line" opacity="1" pointer-events="none" fill="none" stroke="#d6d8d9" stroke-width="1.6" transform="translate(49.68741226196289, 0)" clip-path="url(#clip-0-7)" clip-path-id="0-7" d="M21.718,1333.1C28.957,1329.756,36.196,1326.412,43.436,1326.412C50.442,1326.412,57.447,1328.236,64.453,1331.884C71.692,1335.654,78.932,1379.614,86.171,1379.614C93.177,1379.614,100.182,1298.138,107.188,1298.138C114.428,1298.138,121.667,1322.155,128.906,1322.155C136.145,1322.155,143.385,1317.992,150.624,1310.907C157.163,1304.507,163.701,1283.545,170.24,1283.545C177.479,1283.545,184.719,1283.849,191.958,1283.849C198.964,1283.849,205.97,1198.725,212.975,1198.725C220.215,1198.725,227.454,1232.77,234.693,1250.712C241.699,1268.075,248.705,1304.522,255.711,1304.522C262.95,1304.522,270.189,1304.421,277.428,1304.218C284.668,1304.016,291.907,1283.426,299.146,1269.865C306.152,1256.741,313.158,1235.037,320.164,1224.566C327.403,1213.746,334.642,1206.933,341.882,1206.933C348.887,1206.933,355.893,1215.142,362.899,1215.142C370.138,1215.142,377.377,1154.643,384.617,1154.643C391.856,1154.643,399.095,1170.755,406.335,1170.755C412.873,1170.755,419.412,1101.744,425.951,1101.744C433.19,1101.744,440.429,1119.073,447.669,1153.73C454.674,1187.27,461.68,1364.718,468.686,1364.718C475.925,1364.718,483.165,1257.346,490.404,1227.606C497.41,1198.826,504.415,1196.572,511.421,1184.436C518.66,1171.895,525.9,1174.302,533.139,1154.035C540.378,1133.767,547.618,1083.146,554.857,1057.661C561.863,1032.999,568.868,1025.739,575.874,1002.33C583.114,978.142,590.353,919.098,597.592,913.862C604.598,908.795,611.604,906.261,618.609,906.261C625.849,906.261,633.088,924.3,640.327,953.992C647.567,983.684,654.806,1048.738,662.045,1084.415C668.817,1117.79,675.59,1164.067,682.362,1164.067C689.601,1164.067,696.84,1136.949,704.08,1122.721C711.086,1108.951,718.091,1080.159,725.097,1080.159C732.336,1080.159,739.576,1116.1,746.815,1136.706C753.821,1156.646,760.827,1198.323,767.832,1201.461C775.072,1204.704,782.311,1206.325,789.55,1206.325C796.789,1206.325,804.029,1171.667,811.268,1171.667C818.274,1171.667,825.28,1190.516,832.285,1190.516C839.525,1190.516,846.764,1180.861,854.003,1168.019C861.009,1155.592,868.015,1115.728,875.021,1115.728C882.26,1115.728,889.499,1199.333,896.738,1199.333C903.978,1199.333,911.217,1079.768,918.456,1055.533C924.995,1033.644,931.534,1022.7,938.072,1022.7C945.312,1022.7,952.551,1038.812,959.79,1038.812C966.796,1038.812,973.802,850.93,980.808,850.93C988.047,850.93,995.286,854.072,1002.526,860.355C1009.531,866.435,1016.537,952.815,1023.543,972.233C1030.782,992.298,1038.021,997.314,1045.261,1002.33"/></g><g class="series"><clipPath id="clip-0-8"><rect width="1087.99592074593" x="0" y="44.6" height="1675.2882990245862"/></clipPath><path class="outline" opacity="1" pointer-events="none" fill="none" stroke-width="0" transform="translate(49.68741226196289, 0)" clip-path="url(#clip-0-8)" clip-path-id="0-8" d="M21.718,1091.103C28.957,1113.296,36.196,1135.49,43.436,1135.49C50.442,1135.49,57.447,1041.245,64.453,1041.245C71.692,1041.245,78.932,1180.788,86.171,1180.788C93.177,1180.788,100.182,1176.025,107.188,1166.499C114.428,1156.656,121.667,999.29,128.906,999.29C136.145,999.29,143.385,1009.931,150.624,1031.212C157.163,1050.434,163.701,1140.572,170.24,1177.748C177.479,1218.907,184.719,1258.312,191.958,1258.312C198.964,1258.312,205.97,1182.489,212.975,1154.947C220.215,1126.486,227.454,1116.819,234.693,1091.711C241.699,1067.414,248.705,1025.936,255.711,1007.499C262.95,988.447,270.189,989.917,277.428,978.921C284.668,967.926,291.907,941.527,299.146,941.527C306.152,941.527,313.158,1144.002,320.164,1144.002C327.403,1144.002,334.642,1036.633,341.882,992.602C348.887,949.991,355.893,909.981,362.899,882.852C370.138,854.82,377.377,845.154,384.617,829.041C391.856,812.928,399.095,814.753,406.335,786.175C412.873,760.363,419.412,676.825,425.951,639.335C433.19,597.829,440.429,556.947,447.669,556.947C454.674,556.947,461.68,628.087,468.686,628.087C475.925,628.087,483.165,627.175,490.404,627.175C497.41,627.175,504.415,679.721,511.421,701.355C518.66,723.709,525.9,742.751,533.139,758.51C540.378,774.268,547.618,795.904,554.857,795.904C561.863,795.904,568.868,547.091,575.874,546.306C583.114,545.496,590.353,545.09,597.592,545.09C604.598,545.09,611.604,676.045,618.609,731.148C625.849,788.088,633.088,839.074,640.327,879.812C647.567,920.55,654.806,940.895,662.045,975.577C668.817,1008.022,675.59,1080.159,682.362,1080.159C689.601,1080.159,696.84,1046.426,704.08,1039.724C711.086,1033.239,718.091,1029.996,725.097,1029.996C732.336,1029.996,739.576,1097.871,746.815,1119.073C753.821,1139.59,760.827,1156.771,767.832,1156.771C775.072,1156.771,782.311,1145.725,789.55,1128.801C796.789,1111.878,804.029,1055.229,811.268,1055.229C818.274,1055.229,825.28,1143.881,832.285,1190.82C839.525,1239.325,846.764,1341.916,854.003,1341.916C861.009,1341.916,868.015,1250.986,875.021,1247.063C882.26,1243.01,889.499,1245.037,896.738,1240.983C903.978,1236.93,911.217,1224.37,918.456,1209.973C924.995,1196.97,931.534,1174.595,938.072,1161.027C945.312,1146.005,952.551,1149.373,959.79,1126.065C966.796,1103.509,973.802,995.017,980.808,949.128C988.047,901.709,995.286,870.793,1002.526,848.802C1009.531,827.521,1016.537,816.881,1023.543,816.881C1030.782,816.881,1038.021,898.053,1045.261,979.225"/><path class="line" opacity="1" pointer-events="none" fill="none" stroke="#d9d8d6" stroke-width="1.6" transform="translate(49.68741226196289, 0)" clip-path="url(#clip-0-8)" clip-path-id="0-8" d="M21.718,1091.103C28.957,1113.296,36.196,1135.49,43.436,1135.49C50.442,1135.49,57.447,1041.245,64.453,1041.245C71.692,1041.245,78.932,1180.788,86.171,1180.788C93.177,1180.788,100.182,1176.025,107.188,1166.499C114.428,1156.656,121.667,999.29,128.906,999.29C136.145,999.29,143.385,1009.931,150.624,1031.212C157.163,1050.434,163.701,1140.572,170.24,1177.748C177.479,1218.907,184.719,1258.312,191.958,1258.312C198.964,1258.312,205.97,1182.489,212.975,1154.947C220.215,1126.486,227.454,1116.819,234.693,1091.711C241.699,1067.414,248.705,1025.936,255.711,1007.499C262.95,988.447,270.189,989.917,277.428,978.921C284.668,967.926,291.907,941.527,299.146,941.527C306.152,941.527,313.158,1144.002,320.164,1144.002C327.403,1144.002,334.642,1036.633,341.882,992.602C348.887,949.991,355.893,909.981,362.899,882.852C370.138,854.82,377.377,845.154,384.617,829.041C391.856,812.928,399.095,814.753,406.335,786.175C412.873,760.363,419.412,676.825,425.951,639.335C433.19,597.829,440.429,556.947,447.669,556.947C454.674,556.947,461.68,628.087,468.686,628.087C475.925,628.087,483.165,627.175,490.404,627.175C497.41,627.175,504.415,679.721,511.421,701.355C518.66,723.709,525.9,742.751,533.139,758.51C540.378,774.268,547.618,795.904,554.857,795.904C561.863,795.904,568.868,547.091,575.874,546.306C583.114,545.496,590.353,545.09,597.592,545.09C604.598,545.09,611.604,676.045,618.609,731.148C625.849,788.088,633.088,839.074,640.327,879.812C647.567,920.55,654.806,940.895,662.045,975.577C668.817,1008.022,675.59,1080.159,682.362,1080.159C689.601,1080.159,696.84,1046.426,704.08,1039.724C711.086,1033.239,718.091,1029.996,725.097,1029.996C732.336,1029.996,739.576,1097.871,746.815,1119.073C753.821,1139.59,760.827,1156.771,767.832,1156.771C775.072,1156.771,782.311,1145.725,789.55,1128.801C796.789,1111.878,804.029,1055.229,811.268,1055.229C818.274,1055.229,825.28,1143.881,832.285,1190.82C839.525,1239.325,846.764,1341.916,854.003,1341.916C861.009,1341.916,868.015,1250.986,875.021,1247.063C882.26,1243.01,889.499,1245.037,896.738,1240.983C903.978,1236.93,911.217,1224.37,918.456,1209.973C924.995,1196.97,931.534,1174.595,938.072,1161.027C945.312,1146.005,952.551,1149.373,959.79,1126.065C966.796,1103.509,973.802,995.017,980.808,949.128C988.047,901.709,995.286,870.793,1002.526,848.802C1009.531,827.521,1016.537,816.881,1023.543,816.881C1030.782,816.881,1038.021,898.053,1045.261,979.225"/></g><g class="fl-label" transform="translate(1094.9481201171875, 918.4220581054688)" font-size="16" font-weight="700" opacity="1" aria-hidden="true"><path fill="none" d="" stroke-width="0.075rem" stroke="#aaaaaa"/><text class="bg" transform="translate(4, 5.28000020980835)" text-anchor="start"><tspan x="0" fill="none" stroke="rgb(255, 255, 255)" stroke-width="4" dy="0">Meat</tspan></text><text class="fg" transform="translate(4, 5.28000020980835)" text-anchor="start"><tspan x="0" fill="rgb(0, 128, 0)" dy="0">Meat</tspan></text></g><g class="fl-label" transform="translate(1094.9481201171875, 1116.3365478515625)" font-size="16" font-weight="700" opacity="1" aria-hidden="true"><path fill="none" d="" stroke-width="0.075rem" stroke="#aaaaaa"/><text class="bg" transform="translate(4, -2.7200000286102295)" text-anchor="start"><tspan x="0" fill="none" stroke="rgb(255, 255, 255)" stroke-width="4" dy="0">Oils and</tspan><tspan x="0" fill="none" stroke="rgb(255, 255, 255)" stroke-width="4" dy="16px">fats</tspan></text><text class="fg" transform="translate(4, -2.7200000286102295)" text-anchor="start"><tspan x="0" fill="rgb(0, 128, 0)" dy="0">Oils and</tspan><tspan x="0" fill="rgb(0, 128, 0)" dy="16px">fats</tspan></text></g></g><g id="data-points"><g class="series" transform="translate(49.68741226196289, 0)" clip-path="url(#clip-data-points-0)"><clipPath id="clip-data-points-0"><rect x="-4" y="44.6" height="1673.688299024586" width="1091.99592074593"/></clipPath></g><g class="series" transform="translate(49.68741226196289, 0)" clip-path="url(#clip-data-points-1)"><clipPath id="clip-data-points-1"><rect x="-4" y="44.6" height="1673.688299024586" width="1091.99592074593"/></clipPath></g><g class="series" transform="translate(49.68741226196289, 0)" clip-path="url(#clip-data-points-2)"><clipPath id="clip-data-points-2"><rect x="-4" y="44.6" height="1673.688299024586" width="1091.99592074593"/></clipPath></g><g class="series" transform="translate(49.68741226196289, 0)" clip-path="url(#clip-data-points-3)"><clipPath id="clip-data-points-3"><rect x="-4" y="44.6" height="1673.688299024586" width="1091.99592074593"/></clipPath></g><g class="series" transform="translate(49.68741226196289, 0)" clip-path="url(#clip-data-points-4)"><clipPath id="clip-data-points-4"><rect x="-4" y="44.6" height="1673.688299024586" width="1091.99592074593"/></clipPath></g><g class="series" transform="translate(49.68741226196289, 0)" clip-path="url(#clip-data-points-5)"><clipPath id="clip-data-points-5"><rect x="-4" y="44.6" height="1673.688299024586" width="1091.99592074593"/></clipPath></g><g class="series" transform="translate(49.68741226196289, 0)" clip-path="url(#clip-data-points-6)"><clipPath id="clip-data-points-6"><rect x="-4" y="44.6" height="1673.688299024586" width="1091.99592074593"/></clipPath></g><g class="series" transform="translate(49.68741226196289, 0)" clip-path="url(#clip-data-points-7)"><clipPath id="clip-data-points-7"><rect x="-4" y="44.6" height="1673.688299024586" width="1091.99592074593"/></clipPath></g><g class="series" transform="translate(49.68741226196289, 0)" clip-path="url(#clip-data-points-8)"><clipPath id="clip-data-points-8"><rect x="-4" y="44.6" height="1673.688299024586" width="1091.99592074593"/></clipPath></g></g><g id="lines-secondary"/><g id="data-points-secondary"/><g id="data-point-labels"><g class="series" transform="translate(49.68741226196289, 0)" clip-path="url(#clip-data-points-0)"/><g class="series" transform="translate(49.68741226196289, 0)" clip-path="url(#clip-data-points-1)"/><g class="series" transform="translate(49.68741226196289, 0)" clip-path="url(#clip-data-points-2)"/><g class="series" transform="translate(49.68741226196289, 0)" clip-path="url(#clip-data-points-3)"/><g class="series" transform="translate(49.68741226196289, 0)" clip-path="url(#clip-data-points-4)"/><g class="series" transform="translate(49.68741226196289, 0)" clip-path="url(#clip-data-points-5)"/><g class="series" transform="translate(49.68741226196289, 0)" clip-path="url(#clip-data-points-6)"/><g class="series" transform="translate(49.68741226196289, 0)" clip-path="url(#clip-data-points-7)"/><g class="series" transform="translate(49.68741226196289, 0)" clip-path="url(#clip-data-points-8)"/></g><g id="stack-labels"/><g class="annotations above"><g id="axes-highlights"><g class="axis-highlights-facet"><defs><pattern class="fl-pattern-auto" width="4" height="4" patternUnits="userSpaceOnUse" id="fl-pattern-diagonal-x"><path stroke-width="1" shape-rendering="auto" stroke-linecap="square" d="M 0 4 l 4 -4 M -1 1 l 2 -2 M 3 5 l 2 -2" style="stroke: currentcolor;"/></pattern><pattern class="fl-pattern-auto" width="4" height="4" patternUnits="userSpaceOnUse" id="fl-pattern-dots-x"><path stroke-width="1" shape-rendering="auto" stroke-linecap="square" d="M 1 2 A 1.2 1.2 0 1 1 1 2.1 Z" style="fill: currentcolor;"/></pattern><pattern class="fl-pattern-auto" width="4" height="4" patternUnits="userSpaceOnUse" id="fl-pattern-grid-x"><path stroke-width="1" shape-rendering="auto" stroke-linecap="square" d="M 2 0 l 0 4 M 0 2 l 4 0" style="stroke: currentcolor;"/></pattern><pattern class="fl-pattern-auto" width="4" height="4" patternUnits="userSpaceOnUse" id="fl-pattern-diagonal-y"><path stroke-width="1" shape-rendering="auto" stroke-linecap="square" d="M 0 4 l 4 -4 M -1 1 l 2 -2 M 3 5 l 2 -2" style="stroke: currentcolor;"/></pattern><pattern class="fl-pattern-auto" width="4" height="4" patternUnits="userSpaceOnUse" id="fl-pattern-grid-y"><path stroke-width="1" shape-rendering="auto" stroke-linecap="square" d="M 2 0 l 0 4 M 0 2 l 4 0" style="stroke: currentcolor;"/></pattern><pattern class="fl-pattern-auto" width="4" height="4" patternUnits="userSpaceOnUse" id="fl-pattern-dots-y"><path stroke-width="1" shape-rendering="auto" stroke-linecap="square" d="M 1 2 A 1.2 1.2 0 1 1 1 2.1 Z" style="fill: currentcolor;"/></pattern></defs><g class="axis-highlights" style="opacity: 1;" transform="translate(49.68741226196289, 0)"><g class="line x" pointer-events="none" transform="translate(107.18826293945312, 46.20000076293945)" style="opacity: 1;"><line stroke-dasharray="2 2" stroke="currentColor" stroke-width="2" y2="1672.0882990245861"/><text transform="translate(7.2, 17.28)" text-anchor="start" font-size="14.4" fill="currentColor"><tspan class="bg-label" y="0px" x="0" font-weight="regular" display="block" fill="none" stroke-width="2">December</tspan><tspan class="bg-label" y="17.28px" x="0" font-weight="regular" display="block" fill="none" stroke-width="2">2021</tspan><tspan class="fg-label" y="0px" x="0" font-weight="regular">December</tspan><tspan class="fg-label" y="17.28px" x="0" font-weight="regular">2021</tspan></text></g></g></g></g></g></svg><svg xmlns="http://www.w3.org/2000/svg" id="fl-layout-svg-screenshot-container" class="flourish-screenshot-svg-container" style="left: 0px; top: 0px; width: 1246px; height: 1812px; position: absolute;" x="0" y="0"><text style="dominant-baseline: text-before-edge;" x="0px" y="0px" font-family="Canva Sans Variable" font-size="32px" font-weight="700" fill="rgb(51, 51, 51)"><tspan dy="0" dx="0" x="0" opacity="1"/></text><text style="dominant-baseline: text-before-edge;" x="0px" y="0px" font-family="Canva Sans Variable" font-size="22.4px" font-weight="400" fill="rgb(51, 51, 51)"><tspan dy="0" dx="0" x="0" opacity="1"/></text><text style="dominant-baseline: text-before-edge;" x="0px" y="0px" font-family="Canva Sans Variable" font-size="19.2px" font-weight="400" fill="rgb(51, 51, 51)"><tspan dy="0" dx="0" x="0" opacity="1"/></text><text style="dominant-baseline: text-before-edge;" x="0px" y="0px" font-family="Canva Sans Variable" font-size="16px" font-weight="400" fill="rgb(51, 51, 51)"><tspan dy="0" dx="0" x="0" opacity="1"/></text></svg></svg>
